<svg width="617" height="792" viewBox="0 0 617 792" fill="none" xmlns="http://www.w3.org/2000/svg">
<g clip-path="url(#clip0)">
<path d="M510.004 194.116L522.52 197.589L528.079 208.025L532.947 222.643" stroke="white" stroke-opacity="0.8" stroke-width="1.5" stroke-miterlimit="10"/>
<path d="M515.571 209.416L523.909 213.598L526.689 224.725L516.961 224.034L525.998 231.688" stroke="white" stroke-opacity="0.8" stroke-width="1.5" stroke-miterlimit="10"/>
<path d="M224.988 140.534L215.26 150.971L193.017 184.37L177.022 209.415L174.942 239.342L185.369 257.424L193.017 276.914L184.67 305.432L181.891 324.923L188.149 342.313L195.796 361.795L192.318 377.104L180.501 385.449L174.243 391.713L156.169 390.322L146.441 400.058L145.051 416.067L153.389 433.458L162.426 440.421L173.544 448.076L165.206 457.121L159.647 468.248L160.338 483.557L169.375 493.993L180.501 501.648L182.59 484.948L188.149 476.602L193.707 471.03L194.407 483.557L209.693 491.211L218.04 496.775L232.636 499.557L234.725 511.384L243.762 530.874L261.137 535.738L270.874 532.956L285.47 538.52L301.456 540.611L314.662 529.475L321.619 514.866L325.788 500.257L334.825 503.039L352.9 514.866H372.364L384.181 505.129L392.528 514.866L407.823 516.957L416.851 509.302L425.198 490.512L426.588 473.121V466.857L434.926 461.294L442.573 447.376L443.963 436.939L448.831 443.203L457.869 442.503L466.906 434.158L470.385 426.503L482.892 423.022L489.849 411.894L491.238 398.676L495.407 390.322L499.577 381.976L500.276 368.058L489.849 367.359L484.981 355.532L482.892 347.877L489.15 343.013L489.849 326.314L490.539 314.486L494.018 306.832L503.754 306.132L511.402 299.869L521.13 286.651L529.468 277.605L536.425 261.605L535.035 242.815L525.998 231.687L532.946 222.642L530.167 196.897L520.439 182.288L504.445 169.061L492.628 156.543L484.981 154.452L491.929 142.625L488.459 128.016L489.849 114.098L487.76 106.444L491.929 88.3531L483.591 79.9989L468.296 84.8714L462.737 88.3531L455.089 75.8261L440.493 61.2171L423.808 50.7809L407.124 51.472L393.917 52.8716L384.181 60.526L372.364 53.5627L359.158 52.8716L350.12 58.4353L340.384 66.7808L336.914 53.5627L324.398 39.6448L309.802 25.7356L291.728 19.4721L279.212 16.6903L266.006 20.863L259.748 27.1265L245.842 26.4267L224.988 24.3447L218.04 20.1632L219.43 11.8177L213.172 2.77239L197.876 0.681641L188.149 7.64497L179.111 20.1632L181.192 34.0811L179.111 41.0357L172.154 47.999L164.507 52.1718L159.647 63.999V77.9169L161.037 96.6986L156.169 104.353L142.962 105.053L126.977 107.135L110.982 119.662L104.034 137.753L106.813 146.107L101.945 157.234L99.1655 176.716L104.034 198.288L111.681 208.724L126.977 217.07L134.624 220.551L129.756 228.906L115.85 237.942L101.254 239.342L90.8274 235.16H84.5695L76.2227 247.687L75.5322 270.651L84.5695 288.041L86.6497 320.05L89.4378 345.095L110.982 365.968L101.945 342.313L124.888 349.268L133.925 354.84L147.83 366.668L161.037 367.359L156.169 392.413" stroke="white" stroke-opacity="0.8" stroke-width="1.5" stroke-miterlimit="10"/>
<path d="M84.5693 288.042L95.6868 296.388L123.498 299.178L139.484 301.26L163.816 295.006L175.633 273.433L170.074 250.47L150.61 238.643L142.263 219.161L140.873 196.898L147.131 171.844L140.873 160.017L134.624 165.589L125.587 173.235L121.409 186.462L124.188 201.77L126.976 217.07" stroke="white" stroke-opacity="0.8" stroke-width="1.5" stroke-miterlimit="10"/>
<path d="M181.891 141.235L165.206 155.844L147.132 171.844" stroke="white" stroke-opacity="0.8" stroke-width="1.5" stroke-miterlimit="10"/>
<path d="M170.765 116.881L154.08 117.581L136.014 124.535L120.02 134.972L106.813 146.108" stroke="white" stroke-opacity="0.8" stroke-width="1.5" stroke-miterlimit="10"/>
<path d="M95.6875 296.388L99.1661 316.569L116.541 323.524L136.014 315.178L145.742 301.26" stroke="white" stroke-opacity="0.8" stroke-width="1.5" stroke-miterlimit="10"/>
<path d="M90.8281 235.161L99.1662 250.47H120.02L136.015 240.734" stroke="white" stroke-opacity="0.8" stroke-width="1.5" stroke-miterlimit="10"/>
<path d="M76.9219 256.034L86.6496 269.952L98.475 273.433L103.335 281.779L133.925 288.742L151.3 281.088L164.507 272.042L172.154 258.124" stroke="white" stroke-opacity="0.8" stroke-width="1.5" stroke-miterlimit="10"/>
<path d="M143.653 294.306L157.559 284.561L164.507 272.042" stroke="white" stroke-opacity="0.8" stroke-width="1.5" stroke-miterlimit="10"/>
<path d="M156.868 244.207L141.573 253.252L121.409 262.997L107.504 260.906" stroke="white" stroke-opacity="0.8" stroke-width="1.5" stroke-miterlimit="10"/>
<path d="M145.052 141.235L128.367 148.189L113.072 153.753L100.556 169.762" stroke="white" stroke-opacity="0.8" stroke-width="1.5" stroke-miterlimit="10"/>
<path d="M139.484 118.972L127.667 121.054L122.108 128.017L120.02 134.972" stroke="white" stroke-opacity="0.8" stroke-width="1.5" stroke-miterlimit="10"/>
<path d="M197.186 150.28L179.112 164.189L165.906 178.807L156.868 185.762L152 206.634L151.301 223.334L159.648 237.943L176.332 248.388" stroke="white" stroke-opacity="0.8" stroke-width="1.5" stroke-miterlimit="10"/>
<path d="M188.149 7.646L190.229 22.255L196.487 35.4731L209.003 49.391L211.782 66.0907L189.538 50.7819L179.111 41.0367L183.28 64.6998L197.876 70.2635" stroke="white" stroke-opacity="0.8" stroke-width="1.5" stroke-miterlimit="10"/>
<path d="M209.003 49.3908L220.82 34.7819L240.983 30.6004L259.748 27.1274L281.301 41.7364L295.198 57.0453L298.677 74.4361L306.324 98.7902" stroke="white" stroke-opacity="0.8" stroke-width="1.5" stroke-miterlimit="10"/>
<path d="M236.805 61.9179L262.527 66.0907L252.1 51.4729L238.894 48L219.43 48.6911L211.782 66.0907" stroke="white" stroke-opacity="0.8" stroke-width="1.5" stroke-miterlimit="10"/>
<path d="M298.676 74.4361L279.911 64.6997L262.527 66.0906" stroke="white" stroke-opacity="0.8" stroke-width="1.5" stroke-miterlimit="10"/>
<path d="M215.261 150.972L206.905 150.657L197.186 150.281L176.332 137.062L170.765 116.881L175.633 99.4902L184.67 83.4816L197.876 70.2635L220.12 63.3089L236.805 61.918L224.988 72.3542L234.725 79.3088L252.1 82.0906L257.668 100.881L250.711 118.272L238.203 130.099L224.988 140.535L222.908 123.836L218.73 138.453L209.693 140.535L199.965 135.672V123.836L201.355 114.79L208.303 105.054L219.43 102.272L231.945 107.136L234.725 100.881L213.172 90.4449L196.487 98.7904L183.28 112.008L175.633 99.4902L196.487 89.054L215.261 84.1814L229.157 87.6543L242.372 96.0085L245.842 105.745" stroke="white" stroke-opacity="0.8" stroke-width="1.5" stroke-miterlimit="10"/>
<path d="M190.928 135.671L206.905 150.657L190.928 135.671Z" stroke="white" stroke-opacity="0.8" stroke-width="1.5" stroke-miterlimit="10"/>
<path d="M183.28 112.008L190.928 135.671" stroke="white" stroke-opacity="0.8" stroke-width="1.5" stroke-miterlimit="10"/>
<path d="M229.856 67.4814L253.49 69.5722L268.785 84.1812L270.175 97.3993L266.006 116.181L254.189 130.799" stroke="white" stroke-opacity="0.8" stroke-width="1.5" stroke-miterlimit="10"/>
<path d="M204.135 22.9458L213.871 33.3908L220.82 34.7817" stroke="white" stroke-opacity="0.8" stroke-width="1.5" stroke-miterlimit="10"/>
<path d="M185.369 25.7363L189.538 38.2546L199.965 47.2999" stroke="white" stroke-opacity="0.8" stroke-width="1.5" stroke-miterlimit="10"/>
<path d="M159.647 77.9175L171.464 84.872L184.67 83.4811" stroke="white" stroke-opacity="0.8" stroke-width="1.5" stroke-miterlimit="10"/>
<path d="M174.942 54.2632L170.074 66.7814L174.243 77.2177L190.928 77.9175" stroke="white" stroke-opacity="0.8" stroke-width="1.5" stroke-miterlimit="10"/>
<path d="M156.169 104.354L170.765 116.881" stroke="white" stroke-opacity="0.8" stroke-width="1.5" stroke-miterlimit="10"/>
<path d="M99.166 316.569V336.051L101.945 342.314" stroke="white" stroke-opacity="0.8" stroke-width="1.5" stroke-miterlimit="10"/>
<path d="M170.075 250.47L193.017 276.915L160.338 308.224L143.653 321.442L120.719 331.878L100.556 329.787" stroke="white" stroke-opacity="0.8" stroke-width="1.5" stroke-miterlimit="10"/>
<path d="M215.261 43.1271L234.725 37.5635L263.227 43.827L275.742 52.8723L279.911 64.6995" stroke="white" stroke-opacity="0.8" stroke-width="1.5" stroke-miterlimit="10"/>
<path d="M284.08 73.0449L294.507 85.5719L293.117 105.053L290.338 114.79" stroke="white" stroke-opacity="0.8" stroke-width="1.5" stroke-miterlimit="10"/>
<path d="M267.396 71.6543L284.771 90.4448L284.08 117.581" stroke="white" stroke-opacity="0.8" stroke-width="1.5" stroke-miterlimit="10"/>
<path d="M273.653 34.7817L281.991 27.8184L298.676 34.7817L310.493 50.0905L309.802 64.6995L298.676 68.8723" stroke="white" stroke-opacity="0.8" stroke-width="1.5" stroke-miterlimit="10"/>
<path d="M302.155 83.4811L315.362 74.4358L318.84 54.9542L311.883 35.4727" stroke="white" stroke-opacity="0.8" stroke-width="1.5" stroke-miterlimit="10"/>
<path d="M320.92 78.6087L328.568 63.3086L324.399 39.6455" stroke="white" stroke-opacity="0.8" stroke-width="1.5" stroke-miterlimit="10"/>
<path d="M318.84 94.6176L332.737 82.0906L340.384 66.7817" stroke="white" stroke-opacity="0.8" stroke-width="1.5" stroke-miterlimit="10"/>
<path d="M333.436 100.181L338.994 87.6539L341.083 77.9175" stroke="white" stroke-opacity="0.8" stroke-width="1.5" stroke-miterlimit="10"/>
<path d="M345.952 79.9997L363.327 75.1358L384.181 60.5269" stroke="white" stroke-opacity="0.8" stroke-width="1.5" stroke-miterlimit="10"/>
<path d="M407.823 66.7817H434.926L446.053 75.136L457.179 86.2633L457.869 98.0992L454.391 109.227" stroke="white" stroke-opacity="0.8" stroke-width="1.5" stroke-miterlimit="10"/>
<path d="M366.107 92.5265L380.012 98.0989L408.514 91.8354L394.608 98.79L375.843 105.745L356.379 92.5265" stroke="white" stroke-opacity="0.8" stroke-width="1.5" stroke-miterlimit="10"/>
<path d="M341.083 94.6177L354.289 102.272L364.026 116.881L385.57 113.399L398.086 111.317" stroke="white" stroke-opacity="0.8" stroke-width="1.5" stroke-miterlimit="10"/>
<path d="M366.107 125.226L381.402 129.408L408.514 116.881L422.419 105.054L437.015 105.745L447.442 117.581L459.259 129.408L454.391 109.227L445.362 93.9177L430.757 86.2633L407.124 78.6089L392.528 86.9631H371.674L357.769 84.1813" stroke="white" stroke-opacity="0.8" stroke-width="1.5" stroke-miterlimit="10"/>
<path d="M405.035 130.099L423.11 124.535L438.405 127.317L449.531 136.362L448.832 148.889L437.015 151.671L425.199 140.535L407.124 135.671L405.035 130.099Z" stroke="white" stroke-opacity="0.8" stroke-width="1.5" stroke-miterlimit="10"/>
<path d="M395.998 142.626L419.64 155.144L426.588 162.799L424.5 177.416L439.104 165.589L437.015 151.671" stroke="white" stroke-opacity="0.8" stroke-width="1.5" stroke-miterlimit="10"/>
<path d="M441.883 116.181L428.677 112.708L416.161 114.79" stroke="white" stroke-opacity="0.8" stroke-width="1.5" stroke-miterlimit="10"/>
<path d="M437.015 174.635L464.826 185.762L487.76 180.198L497.496 170.453V159.326" stroke="white" stroke-opacity="0.8" stroke-width="1.5" stroke-miterlimit="10"/>
<path d="M460.648 93.2266L474.554 100.881L487.07 99.4901" stroke="white" stroke-opacity="0.8" stroke-width="1.5" stroke-miterlimit="10"/>
<path d="M469.686 114.789H479.422L489.849 114.099" stroke="white" stroke-opacity="0.8" stroke-width="1.5" stroke-miterlimit="10"/>
<path d="M466.215 124.535L478.722 132.19L488.459 128.017L482.201 141.235L472.465 139.144L459.258 129.408L457.65 138.278L456.479 144.717L446.052 154.453L439.104 165.589" stroke="white" stroke-opacity="0.8" stroke-width="1.5" stroke-miterlimit="10"/>
<path d="M466.216 143.317L457.65 138.278L466.216 143.317Z" stroke="white" stroke-opacity="0.8" stroke-width="1.5" stroke-miterlimit="10"/>
<path d="M475.253 147.498L466.216 143.317" stroke="white" stroke-opacity="0.8" stroke-width="1.5" stroke-miterlimit="10"/>
<path d="M456.479 144.717L462.038 156.544L477.333 153.753" stroke="white" stroke-opacity="0.8" stroke-width="1.5" stroke-miterlimit="10"/>
<path d="M409.204 156.544L417.551 162.108L424.499 177.416L431.457 159.326L420.33 148.19L407.124 135.671" stroke="white" stroke-opacity="0.8" stroke-width="1.5" stroke-miterlimit="10"/>
<path d="M424.499 177.416L432.846 185.071L450.221 194.116L466.906 195.507L489.15 188.544L497.497 170.453" stroke="white" stroke-opacity="0.8" stroke-width="1.5" stroke-miterlimit="10"/>
<path d="M426.588 196.898L441.184 204.552L455.789 205.243L481.502 203.161L494.018 194.807L501.666 180.889L504.445 169.062" stroke="white" stroke-opacity="0.8" stroke-width="1.5" stroke-miterlimit="10"/>
<path d="M447.442 213.598L464.826 212.898L480.113 210.816L491.239 202.462L494.018 208.725L491.929 215.68L477.333 224.725H450.921L432.147 217.77L418.25 201.771" stroke="white" stroke-opacity="0.8" stroke-width="1.5" stroke-miterlimit="10"/>
<path d="M504.445 187.853L515.572 201.071L516.961 224.034L511.403 242.125L507.924 247.688L501.666 260.906L493.319 275.515L481.503 281.088L464.127 288.742L449.531 275.515L461.348 278.997L473.165 274.124L478.033 262.297L475.253 246.297L466.907 235.861L450.921 224.725" stroke="white" stroke-opacity="0.8" stroke-width="1.5" stroke-miterlimit="10"/>
<path d="M469.686 230.289L484.29 237.252L492.628 253.252L496.107 264.388L493.319 275.515L501.666 278.997H514.182L521.13 272.733" stroke="white" stroke-opacity="0.8" stroke-width="1.5" stroke-miterlimit="10"/>
<path d="M491.93 226.116L498.887 234.47L503.056 244.206L503.755 256.034" stroke="white" stroke-opacity="0.8" stroke-width="1.5" stroke-miterlimit="10"/>
<path d="M494.019 208.725L505.145 226.116L511.403 242.125L514.182 251.17L513.483 265.079L505.145 272.733L496.107 264.388" stroke="white" stroke-opacity="0.8" stroke-width="1.5" stroke-miterlimit="10"/>
<path d="M487.76 278.997L496.107 287.351L510.703 285.951L529.468 277.606" stroke="white" stroke-opacity="0.8" stroke-width="1.5" stroke-miterlimit="10"/>
<path d="M247.407 191.675L245.327 167.671L238.204 130.099L254.19 130.799L275.044 125.226L290.339 114.79L304.244 105.054L306.324 98.79L333.436 100.181L344.562 106.444L354.29 119.663L363.327 133.58L384.181 145.408L398.087 162.107L416.852 192.025L421.72 217.77L428.677 233.079L441.184 260.215L437.715 283.17L432.147 303.351L410.603 325.614L398.777 336.75L375.144 331.878L356.379 317.96L337.605 308.224L320.23 298.478L304.935 288.742L293.118 290.133L288.25 293.606H279.912L266.697 299.178L259.058 306.833L254.19 317.269L252.101 326.314L248.622 333.269L235.416 340.923L227.768 352.051L218.04 361.105L208.304 363.886L195.797 361.796L211.433 320.051L248.622 333.269L253.141 290.824L243.238 287.176" stroke="white" stroke-opacity="0.8" stroke-width="1.5" stroke-miterlimit="10"/>
<path d="M174.243 391.714L179.112 402.15L168.685 395.886L159.647 398.677L162.427 412.586L169.375 420.241L178.412 420.94H187.45V404.932L190.928 388.232L198.576 381.977L206.224 376.405L208.304 363.887" stroke="white" stroke-opacity="0.8" stroke-width="1.5" stroke-miterlimit="10"/>
<path d="M157.209 397.277L155.129 408.063L160.688 420.59L175.633 430.677L191.278 425.113L187.45 420.94" stroke="white" stroke-opacity="0.8" stroke-width="1.5" stroke-miterlimit="10"/>
<path d="M173.544 448.077L186.06 447.377L198.226 444.595L211.432 423.722L226.378 414.677L234.026 399.718L240.284 394.496" stroke="white" stroke-opacity="0.8" stroke-width="1.5" stroke-miterlimit="10"/>
<path d="M177.372 460.595L170.424 471.731L169.375 484.258L180.501 501.649" stroke="white" stroke-opacity="0.8" stroke-width="1.5" stroke-miterlimit="10"/>
<path d="M198.227 444.595L194.058 458.854L193.708 471.031" stroke="white" stroke-opacity="0.8" stroke-width="1.5" stroke-miterlimit="10"/>
<path d="M178.071 482.167L183.63 468.949L194.057 458.854" stroke="white" stroke-opacity="0.8" stroke-width="1.5" stroke-miterlimit="10"/>
<path d="M267.395 451.2L258.008 444.945H246.192L236.114 449.118L229.857 459.904L224.639 469.99L230.556 485.299L238.544 482.858L241.254 477.435L242.713 474.513L253.49 456.772L267.395 451.2Z" stroke="white" stroke-opacity="0.8" stroke-width="1.5" stroke-miterlimit="10"/>
<path d="M242.713 488.081L241.228 477.435L242.713 488.081Z" stroke="white" stroke-opacity="0.8" stroke-width="1.5" stroke-miterlimit="10"/>
<path d="M249.321 499.217L242.714 488.081L249.321 499.217Z" stroke="white" stroke-opacity="0.8" stroke-width="1.5" stroke-miterlimit="10"/>
<path d="M270.07 460.087L263.917 466.158L260.447 475.904L262.527 489.822L272.264 499.208L284.081 506.521L296.937 508.253L314.662 507.212L324.399 496.426" stroke="white" stroke-opacity="0.8" stroke-width="1.5" stroke-miterlimit="10"/>
<path d="M215.261 361.796V368.409L214.212 373.273" stroke="white" stroke-opacity="0.8" stroke-width="1.5" stroke-miterlimit="10"/>
<path d="M221.519 359.014V368.751L220.47 374.664" stroke="white" stroke-opacity="0.8" stroke-width="1.5" stroke-miterlimit="10"/>
<path d="M202.055 363.187V367.018L197.877 373.623" stroke="white" stroke-opacity="0.8" stroke-width="1.5" stroke-miterlimit="10"/>
<path d="M202.334 407.688L208.303 414.677H218.73H226.378" stroke="white" stroke-opacity="0.8" stroke-width="1.5" stroke-miterlimit="10"/>
<path d="M209.693 408.063L214.212 407.713L220.12 404.59L226.037 397.277L228.817 381.277" stroke="white" stroke-opacity="0.8" stroke-width="1.5" stroke-miterlimit="10"/>
<path d="M159.647 468.249L168.335 460.595L177.722 451.899L189.888 453.99" stroke="white" stroke-opacity="0.8" stroke-width="1.5" stroke-miterlimit="10"/>
<path d="M205.874 456.422L204.484 468.249L205.874 477.294L211.083 485.99L218.04 496.776" stroke="white" stroke-opacity="0.8" stroke-width="1.5" stroke-miterlimit="10"/>
<path d="M216.65 456.422L215.951 472.081L221.519 487.039" stroke="white" stroke-opacity="0.8" stroke-width="1.5" stroke-miterlimit="10"/>
<path d="M224.639 469.99L224.298 481.817L230.556 489.821L237.854 493.644L242.713 488.08" stroke="white" stroke-opacity="0.8" stroke-width="1.5" stroke-miterlimit="10"/>
<path d="M232.636 499.558L236.245 500.249L239.934 500.949L249.321 499.208L257.318 509.994L270.874 515.908L279.212 515.217" stroke="white" stroke-opacity="0.8" stroke-width="1.5" stroke-miterlimit="10"/>
<path d="M318.84 512.085L309.453 519.739L297.637 528.435L279.912 525.303L267.046 520.78H252.101L242.023 512.776L236.246 500.249" stroke="white" stroke-opacity="0.8" stroke-width="1.5" stroke-miterlimit="10"/>
<path d="M265.307 362.146L277.822 366.668L295.547 358.664L314.662 357.623L333.785 349.619L340.384 345.796L321.27 340.573H308.413L294.507 346.137H280.951L270.524 353.1L265.307 362.146Z" stroke="white" stroke-opacity="0.8" stroke-width="1.5" stroke-miterlimit="10"/>
<path d="M282.691 297.438L271.914 301.61L267.745 311.355L264.966 317.269V325.614L269.485 330.837L261.138 333.96L257.318 326.655L254.189 317.269" stroke="white" stroke-opacity="0.8" stroke-width="1.5" stroke-miterlimit="10"/>
<path d="M254.539 353.791L247.233 348.928L247.582 340.923L248.622 333.269L243.763 308.049L243.238 287.176L250.536 264.213" stroke="white" stroke-opacity="0.8" stroke-width="1.5" stroke-miterlimit="10"/>
<path d="M187.449 412.586L191.968 396.236L204.134 387.191L212.481 385.109" stroke="white" stroke-opacity="0.8" stroke-width="1.5" stroke-miterlimit="10"/>
<path d="M258.708 363.887L252.45 372.232L259.399 384.759L271.565 389.623L278.863 388.582L272.605 379.887L259.399 369.8L258.708 363.887Z" stroke="white" stroke-opacity="0.8" stroke-width="1.5" stroke-miterlimit="10"/>
<path d="M247.932 363.187L254.539 358.664L259.399 360.055L265.307 362.146L272.605 379.887" stroke="white" stroke-opacity="0.8" stroke-width="1.5" stroke-miterlimit="10"/>
<path d="M240.982 378.846L250.71 393.455L254.477 394.434L269.484 398.327" stroke="white" stroke-opacity="0.8" stroke-width="1.5" stroke-miterlimit="10"/>
<path d="M252.101 365.277L249.671 375.714L253.84 383.018L264.966 393.104L283.041 393.804L277.473 396.236L265.657 403.541L259.058 401.8L254.478 394.434" stroke="white" stroke-opacity="0.8" stroke-width="1.5" stroke-miterlimit="10"/>
<path d="M252.101 326.314L252.8 335.701L264.267 339.183L269.485 330.837" stroke="white" stroke-opacity="0.8" stroke-width="1.5" stroke-miterlimit="10"/>
<path d="M234.025 410.845L244.111 419.199L258.008 421.981" stroke="white" stroke-opacity="0.8" stroke-width="1.5" stroke-miterlimit="10"/>
<path d="M241.324 403.891L244.803 414.677L251.061 417.109" stroke="white" stroke-opacity="0.8" stroke-width="1.5" stroke-miterlimit="10"/>
<path d="M237.854 428.595L261.836 433.808L270.524 433.117L267.745 439.031L267.395 451.199L268.094 457.122L254.538 467.558L253.14 488.78L268.435 508.253L281.991 516.258L298.676 520.43L318.839 512.085L325.788 500.258L326.487 487.381L318.49 479.385L312.931 479.726L313.272 486.69L304.584 493.294L287.209 491.562L282.69 485.99L283.73 476.253L276.432 469.64L270.07 460.087L268.094 457.122" stroke="white" stroke-opacity="0.8" stroke-width="1.5" stroke-miterlimit="10"/>
<path d="M318.49 388.932L291.028 398.327V422.331L294.856 440.422" stroke="white" stroke-opacity="0.8" stroke-width="1.5" stroke-miterlimit="10"/>
<path d="M286.86 438.681L278.521 449.808L279.911 461.986L288.249 469.64L298.327 479.035" stroke="white" stroke-opacity="0.8" stroke-width="1.5" stroke-miterlimit="10"/>
<path d="M304.585 439.031L299.726 451.899V459.554L306.325 465.467L312.932 461.986L315.362 456.072L315.012 467.558L301.806 479.385L298.327 479.035L294.508 487.381L294.857 492.253" stroke="white" stroke-opacity="0.8" stroke-width="1.5" stroke-miterlimit="10"/>
<path d="M291.378 442.154L284.771 452.94L289.639 467.208L302.504 474.513H307.713" stroke="white" stroke-opacity="0.8" stroke-width="1.5" stroke-miterlimit="10"/>
<path d="M342.123 395.886V410.845L335.175 417.109L330.822 415.018L325.788 412.586L306.673 427.545L304.585 439.031L296.246 443.895L286.86 438.681L286.51 426.854L281.65 425.463L277.822 415.718L283.04 393.805L292.418 388.932L307.364 380.586H324.049" stroke="white" stroke-opacity="0.8" stroke-width="1.5" stroke-miterlimit="10"/>
<path d="M335.175 417.109L328.917 425.463L329.616 435.549L337.954 440.072L354.29 453.99L360.547 451.899L381.751 448.076" stroke="white" stroke-opacity="0.8" stroke-width="1.5" stroke-miterlimit="10"/>
<path d="M317.791 433.808L322.659 442.854L326.487 444.945L332.737 449.467L340.043 449.117L330.656 442.504L326.138 436.249L328.917 425.463" stroke="white" stroke-opacity="0.8" stroke-width="1.5" stroke-miterlimit="10"/>
<path d="M376.193 450.858L374.104 458.513L366.806 458.163L355.68 460.254L345.952 456.072L346.992 459.554L357.07 464.076L368.196 462.336L377.924 461.986L380.012 458.513" stroke="white" stroke-opacity="0.8" stroke-width="1.5" stroke-miterlimit="10"/>
<path d="M346.467 414.502L353.25 423.372L370.45 424.938L388.7 427.204L388.35 436.94L386.27 440.763L381.751 448.076L382.442 458.513L370.625 467.558L350.47 472.081L330.657 466.158L326.138 462.336L318.84 452.249L316.751 442.504L317.791 433.809L319.53 423.372L323.359 420.591L330.823 415.018" stroke="white" stroke-opacity="0.8" stroke-width="1.5" stroke-miterlimit="10"/>
<path d="M349.081 408.238L362.113 418.674L383.491 423.372L393.918 414.502L405.385 406.156H412.683L419.981 408.763L425.714 420.24V429.111L423.634 444.769L417.901 455.206L426.589 466.858L412.683 458.854L397.047 452.599L380.012 458.512" stroke="white" stroke-opacity="0.8" stroke-width="1.5" stroke-miterlimit="10"/>
<path d="M386.27 440.763L400.175 434.333L404.213 432.925L412.166 430.161L425.714 429.111" stroke="white" stroke-opacity="0.8" stroke-width="1.5" stroke-miterlimit="10"/>
<path d="M404.214 432.925L415.288 441.113L407.99 451.549L397.047 452.599" stroke="white" stroke-opacity="0.8" stroke-width="1.5" stroke-miterlimit="10"/>
<path d="M279.737 301.785L267.745 311.355L270.874 320.567L273.479 333.619L264.617 343.014L255.754 346.137L247.582 340.923" stroke="white" stroke-opacity="0.8" stroke-width="1.5" stroke-miterlimit="10"/>
<path d="M286.859 304.042L293.808 305.958L300.066 316.919L305.799 325.79L325.438 337.792L340.384 345.796L353.765 368.059L375.143 372.232L390.788 371.191L401.731 366.494L406.949 353.45L399.126 360.23L386.619 360.755L377.232 354.491L370.45 347.187L365.765 338.317L363.676 329.446L356.378 317.96L382.966 310.656L392.868 287.176L390.264 266.82L406.949 234.986L406.424 218.811L392.868 189.593L387.135 177.591" stroke="white" stroke-opacity="0.8" stroke-width="1.5" stroke-miterlimit="10"/>
<path d="M288.599 298.653L301.106 299.178L311.541 315.353L318.839 323.182L332.395 326.83L339.693 335.185L344.387 326.83L345.427 338.832L354.814 356.582L375.143 372.232" stroke="white" stroke-opacity="0.8" stroke-width="1.5" stroke-miterlimit="10"/>
<path d="M348.557 319.526L350.121 332.053L351.686 345.096L362.637 356.057L368.371 361.271L381.926 365.968L401.732 366.493L412.167 359.705H418.941L424.159 361.271L426.239 369.1V375.364L416.336 369.625L406.425 369.1" stroke="white" stroke-opacity="0.8" stroke-width="1.5" stroke-miterlimit="10"/>
<path d="M309.453 298.653L313.622 306.999L318.84 323.182" stroke="white" stroke-opacity="0.8" stroke-width="1.5" stroke-miterlimit="10"/>
<path d="M324.573 309.615L326.138 320.051V325.265" stroke="white" stroke-opacity="0.8" stroke-width="1.5" stroke-miterlimit="10"/>
<path d="M331.871 310.131L334.476 321.092L332.395 326.831" stroke="white" stroke-opacity="0.8" stroke-width="1.5" stroke-miterlimit="10"/>
<path d="M419.465 322.133L428.843 328.396" stroke="white" stroke-opacity="0.8" stroke-width="1.5" stroke-miterlimit="10"/>
<path d="M442.398 287.692L450.745 290.824L454.39 296.563L458.043 302.31L464.301 302.826" stroke="white" stroke-opacity="0.8" stroke-width="1.5" stroke-miterlimit="10"/>
<path d="M440.834 295.006L452.31 306.999L453.35 319.526" stroke="white" stroke-opacity="0.8" stroke-width="1.5" stroke-miterlimit="10"/>
<path d="M372.539 415.027L387.135 411.37L400.691 403.541L409.554 402.5L419.981 408.763L420.505 399.893L406.949 396.236L394.958 398.843L384.531 399.893L371.499 406.673L354.814 405.632" stroke="white" stroke-opacity="0.8" stroke-width="1.5" stroke-miterlimit="10"/>
<path d="M329.267 395.711L311.542 400.409L303.72 408.763L302.68 419.2L297.986 432.243L296.247 443.895" stroke="white" stroke-opacity="0.8" stroke-width="1.5" stroke-miterlimit="10"/>
<path d="M330.656 466.158L338.645 491.737L365.241 504.255L380.877 501.649L394.433 489.122L376.708 492.778H362.636L344.387 487.039L330.656 466.158Z" stroke="white" stroke-opacity="0.8" stroke-width="1.5" stroke-miterlimit="10"/>
<path d="M326.487 487.381L338.654 491.737" stroke="white" stroke-opacity="0.8" stroke-width="1.5" stroke-miterlimit="10"/>
<path d="M342.123 410.845L338.645 425.463L346.467 438.506L359.507 444.77L373.579 443.204" stroke="white" stroke-opacity="0.8" stroke-width="1.5" stroke-miterlimit="10"/>
<path d="M353.25 423.372L352.726 432.242L365.766 437.465L375.144 436.94L379.837 433.808L378.797 428.07" stroke="white" stroke-opacity="0.8" stroke-width="1.5" stroke-miterlimit="10"/>
<path d="M385.055 391.022L402.255 389.973L415.287 396.236L420.505 399.893" stroke="white" stroke-opacity="0.8" stroke-width="1.5" stroke-miterlimit="10"/>
<path d="M420.505 341.964L428.852 342.489H442.923L451.786 334.66L453.875 328.921L453.35 319.526" stroke="white" stroke-opacity="0.8" stroke-width="1.5" stroke-miterlimit="10"/>
<path d="M447.617 325.265L442.923 334.135L433.021 334.66" stroke="white" stroke-opacity="0.8" stroke-width="1.5" stroke-miterlimit="10"/>
<path d="M384.006 354.491H392.868L410.602 351.885L434.585 355.008L447.616 347.703L453.874 328.921" stroke="white" stroke-opacity="0.8" stroke-width="1.5" stroke-miterlimit="10"/>
<path d="M464.302 302.826L473.165 313.787L475.769 325.265V335.701L467.947 340.923L460.133 345.096L452.835 347.703H447.617" stroke="white" stroke-opacity="0.8" stroke-width="1.5" stroke-miterlimit="10"/>
<path d="M453.875 338.833L460.133 330.487L467.431 328.921L475.769 335.701L453.875 338.833Z" stroke="white" stroke-opacity="0.8" stroke-width="1.5" stroke-miterlimit="10"/>
<path d="M426.238 375.364L430.407 383.709L434.061 391.539L433.536 407.197" stroke="white" stroke-opacity="0.8" stroke-width="1.5" stroke-miterlimit="10"/>
<path d="M353.766 368.06L364.717 377.455L377.233 380.062H389.224L406.425 379.537L418.416 377.455" stroke="white" stroke-opacity="0.8" stroke-width="1.5" stroke-miterlimit="10"/>
<path d="M233.685 419.2L224.473 424.413L218.731 431.718L214.562 435.375L208.304 443.729" stroke="white" stroke-opacity="0.8" stroke-width="1.5" stroke-miterlimit="10"/>
<path d="M350.471 472.081L354.815 480.776L363.677 484.424L374.104 484.949H388.7L402.78 481.292L412.683 484.949L419.981 491.737L418.416 478.169L412.167 466.158L402.256 460.945H387.136L382.442 458.513" stroke="white" stroke-opacity="0.8" stroke-width="1.5" stroke-miterlimit="10"/>
<path d="M377.923 461.985L384.006 468.774L399.651 465.642" stroke="white" stroke-opacity="0.8" stroke-width="1.5" stroke-miterlimit="10"/>
<path d="M394.433 489.122L407.989 497.992L410.078 501.649L407.473 505.821L395.482 507.912L384.181 505.13L380.877 501.649" stroke="white" stroke-opacity="0.8" stroke-width="1.5" stroke-miterlimit="10"/>
<path d="M430.407 383.709L441.359 383.193L447.354 380.525L460.132 374.839L469.511 369.1L466.39 355.532L457.519 363.362L443.448 370.141L426.238 369.1" stroke="white" stroke-opacity="0.8" stroke-width="1.5" stroke-miterlimit="10"/>
<path d="M460.133 382.143L447.354 380.525" stroke="white" stroke-opacity="0.8" stroke-width="1.5" stroke-miterlimit="10"/>
<path d="M477.857 292.915H470.559L464.127 288.742L464.301 302.826L453.35 319.526L447.617 325.265L440.834 325.79L428.852 328.396L418.94 335.701L398.777 336.751L392.868 343.014L376.708 343.53" stroke="white" stroke-opacity="0.8" stroke-width="1.5" stroke-miterlimit="10"/>
<path d="M496.623 296.047H506.01L514.357 288.742" stroke="white" stroke-opacity="0.8" stroke-width="1.5" stroke-miterlimit="10"/>
<path d="M466.391 351.36L473.689 344.055L483.591 331.003L486.196 308.565L486.72 291.865L481.502 281.088" stroke="white" stroke-opacity="0.8" stroke-width="1.5" stroke-miterlimit="10"/>
<path d="M473.688 344.055L478.897 350.319L484.631 367.535L474.204 382.668L461.697 392.58L446.576 400.409H434.061" stroke="white" stroke-opacity="0.8" stroke-width="1.5" stroke-miterlimit="10"/>
<path d="M434.061 391.539L443.447 390.498L458.568 388.932L474.204 382.668L478.897 388.932L487.244 392.064" stroke="white" stroke-opacity="0.8" stroke-width="1.5" stroke-miterlimit="10"/>
<path d="M425.714 420.241L436.665 418.15L448.141 421.282L457.004 428.595L454.915 437.981L443.963 436.94" stroke="white" stroke-opacity="0.8" stroke-width="1.5" stroke-miterlimit="10"/>
<path d="M426.238 437.465L432.496 434.85L434.585 423.897L436.665 418.15" stroke="white" stroke-opacity="0.8" stroke-width="1.5" stroke-miterlimit="10"/>
<path d="M461.697 392.58L470.56 400.934L474.204 412.936L470.385 426.504" stroke="white" stroke-opacity="0.8" stroke-width="1.5" stroke-miterlimit="10"/>
<path d="M437.189 413.461L450.221 414.502L458.568 421.282L465.341 428.595L466.906 434.159L467.43 422.331L463.777 410.845L455.954 404.591L446.576 400.409" stroke="white" stroke-opacity="0.8" stroke-width="1.5" stroke-miterlimit="10"/>
<path d="M470.56 400.934L477.858 395.711L485.156 396.236L487.76 403.541L483.067 413.461L474.204 412.936" stroke="white" stroke-opacity="0.8" stroke-width="1.5" stroke-miterlimit="10"/>
<path d="M487.244 375.889L491.929 380.586L499.577 381.977" stroke="white" stroke-opacity="0.8" stroke-width="1.5" stroke-miterlimit="10"/>
<path d="M489.849 367.359L494.018 373.798" stroke="white" stroke-opacity="0.8" stroke-width="1.5" stroke-miterlimit="10"/>
<path d="M434.585 423.897L441.359 433.283L439.278 444.245L436.149 451.549" stroke="white" stroke-opacity="0.8" stroke-width="1.5" stroke-miterlimit="10"/>
<path d="M275.043 258.991L292.252 254.293L275.043 258.991Z" stroke="white" stroke-opacity="0.8" stroke-width="1.5" stroke-miterlimit="10"/>
<path d="M275.043 258.991L259.923 266.304L255.229 277.256L253.141 290.824L258.358 298.129L266.697 299.179L262.527 308.565L264.966 317.269" stroke="white" stroke-opacity="0.8" stroke-width="1.5" stroke-miterlimit="10"/>
<path d="M293.809 279.872L295.373 267.345L305.8 268.386L311.542 272.558L309.978 284.044L300.591 281.429L293.809 279.872Z" stroke="white" stroke-opacity="0.8" stroke-width="1.5" stroke-miterlimit="10"/>
<path d="M262.012 276.215L262.527 288.217L271.39 291.865L276.083 284.561L262.012 276.215Z" stroke="white" stroke-opacity="0.8" stroke-width="1.5" stroke-miterlimit="10"/>
<path d="M289.639 246.988L281.816 239.684L284.43 219.336L285.47 200.546L293.808 188.027L300.494 185.674L313.106 181.239L336.564 170.287L361.587 169.762L387.135 177.591L367.321 160.891L347.516 153.587L325.613 158.285L307.888 167.146L297.986 173.41L293.808 188.027" stroke="white" stroke-opacity="0.8" stroke-width="1.5" stroke-miterlimit="10"/>
<path d="M302.68 178.632L315.187 170.803L333.436 162.974L352.21 159.842L368.886 166.63" stroke="white" stroke-opacity="0.8" stroke-width="1.5" stroke-miterlimit="10"/>
<path d="M289.639 246.988L292.252 254.293L290.679 262.647L293.808 279.872L276.083 284.56L267.22 274.649L259.922 266.304V256.383L263.051 233.42L262.011 214.114L255.229 203.161L241.673 200.546L223.424 196.373L199.965 201.595L183.28 219.852L183.805 212.032L190.063 201.595L195.272 193.241L202.054 186.978H212.997H226.037L247.407 191.675L255.229 203.161L269.825 204.727L280.252 201.595L293.808 188.027L303.719 201.07L314.662 222.984L318.07 223.64L328.226 225.6L337.605 221.943H351.16L367.321 218.286L375.143 219.336" stroke="white" stroke-opacity="0.8" stroke-width="1.5" stroke-miterlimit="10"/>
<path d="M199.441 195.332L211.957 193.766L223.424 196.373" stroke="white" stroke-opacity="0.8" stroke-width="1.5" stroke-miterlimit="10"/>
<path d="M255.229 277.256L262.012 276.215" stroke="white" stroke-opacity="0.8" stroke-width="1.5" stroke-miterlimit="10"/>
<path d="M298.502 258.991L311.018 262.647L311.542 272.559" stroke="white" stroke-opacity="0.8" stroke-width="1.5" stroke-miterlimit="10"/>
<path d="M279.737 269.436L285.47 281.429L288.25 293.606L286.86 304.042L277.473 313.437L277.124 328.746L276.083 339.183L267.046 346.837L254.539 353.792L250.02 356.232L247.932 363.187L242.373 372.232L239.934 383.368L244.112 394.146L242.714 401.109L250.361 407.714L241.324 403.891L234.026 410.845L233.685 419.2L237.854 428.595L221.86 437.631L212.822 448.768L209.694 458.854L202.745 453.29L203.095 436.249" stroke="white" stroke-opacity="0.8" stroke-width="1.5" stroke-miterlimit="10"/>
<path d="M314.662 222.984L323.009 216.204L332.396 199.505L345.427 197.414L359.508 201.07L365.241 208.9L375.144 219.336L380.877 229.772L379.322 213.073L373.064 198.464L361.072 190.109L344.387 185.937L331.871 189.593L322.485 197.939L317.791 207.85L314.662 222.984Z" stroke="white" stroke-opacity="0.8" stroke-width="1.5" stroke-miterlimit="10"/>
<path d="M204.659 257.425L206.739 262.122L211.957 257.949L221.86 252.736L232.287 246.988L240.634 241.775L248.456 240.209L236.98 229.772H223.424L212.997 231.338L206.739 239.684L203.095 246.988L204.659 257.425Z" stroke="white" stroke-opacity="0.8" stroke-width="1.5" stroke-miterlimit="10"/>
<path d="M198.401 242.816L204.659 231.863L213.522 225.075L226.038 219.853L244.278 225.075L254.19 242.816L248.456 240.209L238.545 254.293L229.682 263.688L216.651 275.174L203.095 282.995L205.699 274.125L206.74 262.122L196.313 252.736L194.232 237.077L205.699 224.55L214.562 219.336L226.038 219.853" stroke="white" stroke-opacity="0.8" stroke-width="1.5" stroke-miterlimit="10"/>
<path d="M206.739 270.476L217.166 268.386L228.642 257.949L236.98 249.079" stroke="white" stroke-opacity="0.8" stroke-width="1.5" stroke-miterlimit="10"/>
<path d="M369.934 227.166L356.379 227.682L342.298 228.207L324.573 229.248L338.645 232.904L350.645 236.552L364.717 234.47L380.877 229.772L406.949 234.986L425.714 251.686L441.184 260.215L449.531 275.515L455.789 260.215L447.442 246.988L431.456 239.343" stroke="white" stroke-opacity="0.8" stroke-width="1.5" stroke-miterlimit="10"/>
<path d="M285.47 200.546L298.501 211.507L314.662 222.984L307.364 231.339L281.816 239.684L306.324 250.12L315.186 256.384L320.92 265.779L323.533 277.781L319.88 288.217L312.582 290.824L304.934 288.742L342.822 295.522L382.966 310.656L421.029 287.176L424.158 275.69L425.714 251.686" stroke="white" stroke-opacity="0.8" stroke-width="1.5" stroke-miterlimit="10"/>
<path d="M321.445 228.731L314.662 234.986L307.889 242.299L315.187 256.384" stroke="white" stroke-opacity="0.8" stroke-width="1.5" stroke-miterlimit="10"/>
<path d="M314.662 222.984L307.889 242.299L327.703 258.474L349.597 277.781L382.966 310.655L414.772 322.133" stroke="white" stroke-opacity="0.8" stroke-width="1.5" stroke-miterlimit="10"/>
<path d="M324.573 229.248L339.694 254.818L390.264 266.82L421.029 287.176L432.147 303.351L442.399 309.09L444.488 315.353" stroke="white" stroke-opacity="0.8" stroke-width="1.5" stroke-miterlimit="10"/>
<path d="M319.88 288.217L333.436 263.688L339.694 254.818L365.241 251.17L380.877 229.773L406.425 218.811L418.25 201.771" stroke="white" stroke-opacity="0.8" stroke-width="1.5" stroke-miterlimit="10"/>
<path d="M306.324 98.79L363.327 133.58L342.823 128.533L300.066 125.926L241.674 148.889L219.255 165.064L202.055 186.978L245.327 167.671L272.439 157.235L295.897 141.585L307.889 138.969L342.299 139.494L368.37 151.496" stroke="white" stroke-opacity="0.8" stroke-width="1.5" stroke-miterlimit="10"/>
<path d="M325.613 158.285L342.298 139.494L342.823 128.533L333.436 100.181" stroke="white" stroke-opacity="0.8" stroke-width="1.5" stroke-miterlimit="10"/>
<path d="M247.407 191.675L267.221 190.11L297.986 173.41L293.293 152.537L304.244 105.054" stroke="white" stroke-opacity="0.8" stroke-width="1.5" stroke-miterlimit="10"/>
<path d="M199.966 201.596L215.611 206.809L226.038 219.853" stroke="white" stroke-opacity="0.8" stroke-width="1.5" stroke-miterlimit="10"/>
<path d="M309.978 284.044L304.935 288.742" stroke="white" stroke-opacity="0.8" stroke-width="1.5" stroke-miterlimit="10"/>
<path d="M340.385 345.796L327.703 365.452L332.912 380.061L334.136 384.059L318.84 372.932L300.766 373.623L288.949 383.709L283.041 393.804L280.952 397.627L270.175 408.413L254.19 407.022L244.112 394.146" stroke="white" stroke-opacity="0.8" stroke-width="1.5" stroke-miterlimit="10"/>
<path d="M333.436 364.928L341.782 383.193L350.645 392.58L371.499 393.105L380.361 384.759H391.828L403.304 385.275L418.94 386.841L427.287 396.236L433.536 407.198L425.714 420.241L413.207 413.977L401.215 421.807L388.699 427.204" stroke="white" stroke-opacity="0.8" stroke-width="1.5" stroke-miterlimit="10"/>
<path d="M297.986 369.625L295.548 358.664L297.986 369.625Z" stroke="white" stroke-opacity="0.8" stroke-width="1.5" stroke-miterlimit="10"/>
<path d="M298.502 368.06L288.949 383.71" stroke="white" stroke-opacity="0.8" stroke-width="1.5" stroke-miterlimit="10"/>
<path d="M193.017 276.915L195.796 291.349L218.73 286.651L241.673 271.517L250.535 264.213L261.487 245.431L254.189 242.815" stroke="white" stroke-opacity="0.8" stroke-width="1.5" stroke-miterlimit="10"/>
<path d="M203.094 282.995L195.796 291.349L188.498 311.18L181.891 324.923L170.765 333.269L153.389 350.66L124.888 349.269" stroke="white" stroke-opacity="0.8" stroke-width="1.5" stroke-miterlimit="10"/>
<path d="M230.722 346.662L234.375 355.532V362.837" stroke="white" stroke-opacity="0.8" stroke-width="1.5" stroke-miterlimit="10"/>
<path d="M218.731 286.651L217.166 304.392" stroke="white" stroke-opacity="0.8" stroke-width="1.5" stroke-miterlimit="10"/>
<path d="M188.498 311.181L190.578 326.831L205.699 346.137L218.04 361.105" stroke="white" stroke-opacity="0.8" stroke-width="1.5" stroke-miterlimit="10"/>
<path d="M181.891 324.924L190.578 326.831L211.432 320.051L217.166 304.392L243.238 287.176L251.06 275.174L259.922 266.304L274.003 272.042L285.994 268.386L292.252 254.293L298.501 258.991L295.372 267.345" stroke="white" stroke-opacity="0.8" stroke-width="1.5" stroke-miterlimit="10"/>
<path d="M227.768 352.051L228.118 364.928L228.817 381.278L219.78 395.195L204.834 402.5L202.335 407.687L199.966 412.586L191.278 425.113" stroke="white" stroke-opacity="0.8" stroke-width="1.5" stroke-miterlimit="10"/>
<path d="M239.068 338.833V347.187L241.673 360.755" stroke="white" stroke-opacity="0.8" stroke-width="1.5" stroke-miterlimit="10"/>
<path d="M261.487 245.423L281.817 239.684" stroke="white" stroke-opacity="0.8" stroke-width="1.5" stroke-miterlimit="10"/>
<path d="M174.418 235.511L194.232 237.077L193.017 276.915L206.739 262.122" stroke="white" stroke-opacity="0.8" stroke-width="1.5" stroke-miterlimit="10"/>
<path d="M188.149 185.762L177.023 195.507L167.295 203.161L160.338 220.552L165.905 233.079L174.943 239.343L183.281 219.852H226.037L255.229 203.161L244.278 225.075L262.012 214.114" stroke="white" stroke-opacity="0.8" stroke-width="1.5" stroke-miterlimit="10"/>
<path d="M293.809 188.027L331.872 189.593L336.565 170.287" stroke="white" stroke-opacity="0.8" stroke-width="1.5" stroke-miterlimit="10"/>
<path d="M361.588 169.762L361.072 190.109L387.135 177.591L380.877 229.772" stroke="white" stroke-opacity="0.8" stroke-width="1.5" stroke-miterlimit="10"/>
<path d="M283.04 335.01L288.599 340.573" stroke="white" stroke-opacity="0.8" stroke-width="1.5" stroke-miterlimit="10"/>
<path d="M303.895 330.837L300.416 337.092" stroke="white" stroke-opacity="0.8" stroke-width="1.5" stroke-miterlimit="10"/>
<path d="M280.951 346.137L288.599 340.573L293.467 340.923L300.416 337.092L314.321 335.701L325.439 337.792L305.8 325.79L293.292 326.831L283.381 331.528L276.433 341.614L270.524 353.1" stroke="white" stroke-opacity="0.8" stroke-width="1.5" stroke-miterlimit="10"/>
<path d="M434.926 461.294L418.005 526.781L403.925 581.569L406.18 596.896M406.18 596.896L411.748 634.8L450.851 675.495L474.309 709.936L407.054 698.984H367.951L335.114 684.891L306.953 655.148L256.908 628.537L211.546 601.926L177.145 559.656L147.429 522.084L133.348 509.565L83.3025 517.395L44.1992 520.518L42.6348 537.742L89.5517 547.138L116.148 572.183L119.277 606.623L123.962 644.187L164.629 662.977L202.168 680.193L208.426 666.109H238.143L270.988 683.325L311.647 703.673L342.928 734.981L391.418 747.508L438.335 750.64L472.745 763.158L496.203 770.988L505.59 791.344H565.023L536.871 749.074L496.203 694.286L469.616 669.232L461.793 642.621L406.18 596.896Z" stroke="white" stroke-opacity="0.8" stroke-width="1.5" stroke-miterlimit="10"/>
<path d="M346.056 592.53V636.366L333.549 669.232L319.469 630.103L346.056 592.53Z" stroke="white" stroke-opacity="0.8" stroke-width="1.5" stroke-miterlimit="10"/>
<path d="M177.146 559.656L241.272 587.833L296.011 620.707L333.55 669.232L383.596 662.977L450.851 675.495" stroke="white" stroke-opacity="0.8" stroke-width="1.5" stroke-miterlimit="10"/>
<path d="M392.528 514.867L371.08 553.392L346.057 592.531L366.386 642.621L411.747 634.8" stroke="white" stroke-opacity="0.8" stroke-width="1.5" stroke-miterlimit="10"/>
<path d="M261.601 553.393L306.953 580.004L319.469 630.103" stroke="white" stroke-opacity="0.8" stroke-width="1.5" stroke-miterlimit="10"/>
<path d="M155.242 534.611L178.709 515.82L194.407 483.558" stroke="white" stroke-opacity="0.8" stroke-width="1.5" stroke-miterlimit="10"/>
<path d="M188.149 342.314L172.452 360.851L161.037 367.36" stroke="white" stroke-opacity="0.8" stroke-width="1.5" stroke-miterlimit="10"/>
<path d="M178.71 515.82L243.763 530.875L245.353 532.642L272.544 562.788L330.421 550.261L352.901 514.867L371.08 553.392L391.418 567.485L380.467 619.142L366.387 642.621L383.596 662.977" stroke="white" stroke-opacity="0.8" stroke-width="1.5" stroke-miterlimit="10"/>
<path d="M211.546 601.926L216.239 580.003L245.353 532.642" stroke="white" stroke-opacity="0.8" stroke-width="1.5" stroke-miterlimit="10"/>
<path d="M416.852 509.303L391.418 567.485" stroke="white" stroke-opacity="0.8" stroke-width="1.5" stroke-miterlimit="10"/>
<path d="M272.543 562.788L260.036 597.228L256.907 628.537" stroke="white" stroke-opacity="0.8" stroke-width="1.5" stroke-miterlimit="10"/>
<path d="M330.421 550.261L346.057 592.531" stroke="white" stroke-opacity="0.8" stroke-width="1.5" stroke-miterlimit="10"/>
<path d="M238.544 254.302L250.535 264.213" stroke="white" stroke-opacity="0.8" stroke-width="1.5" stroke-miterlimit="10"/>
<path d="M0.402344 486.077L44.1991 520.518" stroke="white" stroke-opacity="0.8" stroke-width="1.5" stroke-miterlimit="10"/>
<path d="M461.793 642.621L518.097 658.28L588.481 705.239L616.633 724.029" stroke="white" stroke-opacity="0.8" stroke-width="1.5" stroke-miterlimit="10"/>
<path d="M496.203 694.286L552.507 720.897L586.917 742.811L544.693 734.981L496.203 694.286Z" stroke="white" stroke-opacity="0.8" stroke-width="1.5" stroke-miterlimit="10"/>
<path d="M186.523 694.286L272.544 722.463L336.67 769.422L414.877 775.685L449.286 767.856" stroke="white" stroke-opacity="0.8" stroke-width="1.5" stroke-miterlimit="10"/>
<path d="M42.6348 537.742L50.4572 569.051L89.5517 598.794" stroke="white" stroke-opacity="0.8" stroke-width="1.5" stroke-miterlimit="10"/>
<path d="M232.977 304.707C229.542 314.181 220.426 321.328 213.382 317.287C207.456 313.901 205.743 304.226 205.437 302.31C202.894 286.363 219.159 264.222 219.159 264.222C219.159 264.222 238.973 288.165 232.977 304.707Z" fill="#FF0099"/>
</g>
<defs>
<clipPath id="clip0">
<rect width="617" height="792" fill="white"/>
</clipPath>
</defs>
</svg>
