<svg width="1168" height="651" viewBox="0 0 1168 651" fill="none" xmlns="http://www.w3.org/2000/svg">
<g opacity="0.9" clip-path="url(#clip0)">
<path d="M534.934 394.114L521.534 352.872L540.649 346.661L554.05 387.903L595.29 374.503L601.498 393.609L560.257 407.009L573.651 448.229L554.535 454.44L541.142 413.22L499.879 426.627L493.671 407.521L534.934 394.114Z" fill="#FF0099"/>
<path d="M601.622 254.967C598.494 252.921 594.916 251.665 591.195 251.306C587.306 250.822 583.358 251.19 579.625 252.385C576.021 253.475 572.724 255.396 569.999 257.994C567.456 260.476 565.439 263.444 564.069 266.722C562.685 270.111 561.923 273.722 561.821 277.381C561.683 281.243 562.237 285.098 563.458 288.764C564.621 292.438 566.397 295.889 568.711 298.971C570.893 301.918 573.642 304.4 576.795 306.272C579.895 308.103 583.343 309.266 586.919 309.685C590.762 310.121 594.654 309.704 598.318 308.463C602.044 307.24 605.509 305.331 608.534 302.836C611.502 300.5 613.817 297.44 615.257 293.949L643.23 311.866C639.712 318.199 634.849 323.685 628.983 327.938C622.437 332.854 615.111 336.636 607.312 339.124C599.09 341.873 590.459 343.2 581.791 343.048C573.748 342.922 565.815 341.158 558.477 337.865C551.21 334.545 544.723 329.735 539.437 323.748C533.648 317.094 529.322 309.3 526.738 300.868C523.912 292.597 522.855 283.825 523.636 275.119C524.395 267.167 526.816 259.464 530.742 252.506C534.707 245.441 540.047 239.241 546.448 234.273C553.268 229.02 560.956 225.001 569.162 222.4C573.111 221.117 577.171 220.205 581.29 219.675C585.332 219.149 589.408 218.92 593.484 218.99C597.326 219.051 601.151 219.523 604.892 220.396C608.283 221.178 611.568 222.361 614.679 223.918L601.622 254.967Z" fill="black" stroke="black" stroke-width="2.5" stroke-miterlimit="10"/>
<path d="M724.246 236.073C723.105 232.548 721.375 229.241 719.131 226.292C716.962 223.365 714.257 220.874 711.16 218.954C708.04 217.079 704.575 215.85 700.971 215.34C696.923 214.889 692.826 215.307 688.952 216.566C685.078 217.824 681.518 219.894 678.508 222.638C675.906 225.144 673.86 228.168 672.502 231.515C671.19 234.879 670.534 238.462 670.568 242.072C670.552 249.503 672.905 256.746 677.287 262.749C679.443 265.717 682.13 268.261 685.212 270.251C688.315 272.257 691.816 273.567 695.474 274.09C699.522 274.541 703.619 274.123 707.493 272.864C711.367 271.606 714.927 269.536 717.937 266.792C720.588 264.218 722.651 261.101 723.982 257.654C725.307 254.225 725.984 250.579 725.977 246.904C725.976 243.225 725.392 239.569 724.246 236.073ZM759.018 224.775C761.848 233.094 762.887 241.917 762.066 250.666C761.288 258.676 758.833 266.433 754.862 273.435C750.856 280.375 745.573 286.496 739.292 291.475C725.935 301.976 709.279 307.387 692.301 306.744C684.291 306.437 676.417 304.578 669.116 301.27C661.836 297.899 655.333 293.056 650.017 287.048C644.222 280.455 639.886 272.712 637.295 264.325C634.464 256.046 633.437 247.257 634.283 238.547C635.078 230.628 637.519 222.962 641.448 216.039C645.432 209.146 650.749 203.115 657.09 198.298C670.594 188.089 687.141 182.721 704.066 183.059C712.022 183.267 719.862 185.019 727.149 188.218C734.444 191.467 740.967 196.226 746.287 202.179C752.089 208.721 756.429 216.424 759.018 224.775Z" fill="black" stroke="black" stroke-width="2.5" stroke-miterlimit="10"/>
<path d="M863.645 191.003C862.497 187.47 860.727 184.17 858.418 181.259C856.144 178.365 853.367 175.905 850.221 173.994C847.056 172.087 843.541 170.832 839.884 170.304C835.916 169.757 831.876 170.152 828.089 171.455C824.179 172.631 820.601 174.712 817.646 177.529C815.033 180.042 812.961 183.062 811.557 186.403C810.153 189.744 809.447 193.337 809.482 196.961C809.467 200.658 810.041 204.334 811.182 207.851C812.343 211.393 814.048 214.733 816.237 217.75C818.367 220.75 821.062 223.306 824.17 225.275C827.442 227.347 831.142 228.649 834.991 229.084C838.841 229.518 842.739 229.074 846.392 227.785C850.222 226.614 853.723 224.558 856.61 221.784C859.225 219.193 861.295 216.107 862.7 212.706C864.122 209.311 864.922 205.688 865.061 202.011C865.251 198.286 864.772 194.558 863.645 191.003ZM882.843 245.578L878.196 231.276L877.747 231.422C875.975 238.321 872.197 244.541 866.891 249.296C861.342 254.412 854.741 258.251 847.55 260.545C839.976 263.151 831.895 263.94 823.961 262.848C816.651 261.795 809.643 259.228 803.384 255.311C797.037 251.265 791.516 246.051 787.117 239.945C782.452 233.617 778.847 226.573 776.441 219.089C773.959 211.667 772.747 203.879 772.855 196.054C772.956 188.601 774.444 181.233 777.243 174.324C780.083 167.337 784.445 161.071 790.013 155.981C795.581 150.891 802.214 147.107 809.429 144.903C816.461 142.373 824.021 141.676 831.395 142.879C837.16 143.833 842.701 145.835 847.743 148.786L848.192 148.64L825.943 80.1649L862.017 68.4436L916.064 234.783L882.843 245.578Z" fill="black" stroke="black" stroke-width="2.5" stroke-miterlimit="10"/>
<path d="M998.412 133.588C996.766 128.133 993.132 123.494 988.229 120.589C983.302 117.656 977.245 117.357 970.057 119.692C966.667 120.706 963.492 122.335 960.691 124.498C958.209 126.437 956.093 128.806 954.446 131.491C952.883 134.084 951.834 136.953 951.356 139.942C950.846 142.856 950.971 145.847 951.721 148.709L998.412 133.588ZM1036.16 136.638L1037.62 141.128C1038.07 142.523 1038.45 143.941 1038.75 145.377L959.187 171.228C960.401 174.105 962.268 176.66 964.641 178.69C967.02 180.697 969.754 182.241 972.702 183.244C978.98 185.388 985.784 185.441 992.097 183.396C997.182 181.919 1001.82 179.201 1005.59 175.486C1008.75 172.261 1011.14 168.371 1012.6 164.1L1042.84 171.798C1040.14 180.934 1035.04 189.18 1028.07 195.683C1020.23 202.878 1010.86 208.213 1000.66 211.291C992.735 213.914 984.42 215.173 976.071 215.013C968.176 214.896 960.385 213.208 953.151 210.049C945.912 206.803 939.467 202.019 934.266 196.03C928.443 189.286 924.095 181.399 921.503 172.874C918.722 164.572 917.651 155.792 918.357 147.065C918.974 139.177 921.204 131.5 924.909 124.508C928.634 117.628 933.696 111.562 939.798 106.664C946.329 101.411 953.784 97.4227 961.779 94.9046C969.356 92.3441 977.355 91.2705 985.337 91.7428C992.77 92.2071 1000.01 94.2945 1006.55 97.8581C1013.27 101.657 1019.16 106.778 1023.85 112.911C1029.3 120.043 1033.44 128.087 1036.07 136.667L1036.16 136.638Z" fill="black" stroke="black" stroke-width="2.5" stroke-miterlimit="10"/>
<path d="M615.031 263.368C611.903 261.322 608.325 260.066 604.603 259.707C600.715 259.223 596.767 259.591 593.034 260.786C589.43 261.876 586.133 263.798 583.408 266.396C580.883 268.906 578.891 271.9 577.552 275.199C576.168 278.588 575.406 282.199 575.303 285.858C575.166 289.719 575.72 293.574 576.941 297.24C578.104 300.914 579.88 304.365 582.194 307.447C584.376 310.394 587.124 312.877 590.278 314.749C593.378 316.58 596.826 317.742 600.402 318.161C604.245 318.597 608.137 318.18 611.801 316.94C615.527 315.717 618.992 313.808 622.017 311.312C624.984 308.977 627.3 305.916 628.74 302.426L656.7 320.073C653.182 326.406 648.319 331.892 642.453 336.145C635.907 341.062 628.581 344.843 620.782 347.332C612.56 350.081 603.929 351.408 595.261 351.255C587.218 351.13 579.285 349.366 571.947 346.072C564.68 342.753 558.193 337.943 552.907 331.955C547.118 325.302 542.792 317.507 540.208 309.076C537.382 300.805 536.325 292.032 537.106 283.326C537.865 275.375 540.286 267.671 544.212 260.714C548.223 253.723 553.587 247.601 559.991 242.705C566.811 237.452 574.499 233.433 582.705 230.832C586.654 229.549 590.714 228.637 594.833 228.108C598.875 227.581 602.951 227.352 607.027 227.422C610.869 227.483 614.694 227.955 618.435 228.828C621.826 229.61 625.111 230.793 628.222 232.35L615.031 263.368Z" fill="black" stroke="#242424" stroke-width="2.5" stroke-miterlimit="10"/>
<path d="M737.625 244.459C736.483 240.934 734.753 237.628 732.51 234.679C730.34 231.751 727.635 229.261 724.538 227.34C721.418 225.465 717.953 224.236 714.349 223.726C710.301 223.275 706.204 223.693 702.33 224.952C698.456 226.21 694.896 228.281 691.886 231.024C689.285 233.53 687.238 236.555 685.88 239.901C684.568 243.265 683.912 246.848 683.946 250.458C683.93 257.89 686.283 265.132 690.665 271.135C692.821 274.112 695.511 276.663 698.598 278.66C701.701 280.666 705.202 281.975 708.86 282.499C712.907 282.95 717.005 282.532 720.878 281.273C724.752 280.015 728.312 277.944 731.322 275.201C733.974 272.627 736.036 269.509 737.368 266.063C738.692 262.633 739.369 258.988 739.363 255.312C739.361 251.625 738.775 247.962 737.625 244.459ZM772.396 233.161C775.255 241.502 776.312 250.355 775.496 259.135C774.717 267.145 772.263 274.902 768.292 281.904C764.296 288.846 759.023 294.972 752.752 299.959C739.395 310.459 722.739 315.871 705.761 315.227C697.751 314.921 689.876 313.062 682.576 309.754C675.288 306.387 668.777 301.547 663.454 295.539C657.646 288.945 653.3 281.196 650.702 272.801C647.871 264.522 646.844 255.733 647.69 247.023C648.486 239.104 650.926 231.438 654.855 224.515C658.839 217.622 664.156 211.591 670.497 206.774C684.001 196.551 700.555 191.173 717.488 191.506C725.445 191.713 733.285 193.465 740.571 196.664C747.866 199.914 754.389 204.672 759.71 210.625C765.516 217.137 769.871 224.809 772.486 233.132L772.396 233.161Z" fill="black" stroke="#242424" stroke-width="2.5" stroke-miterlimit="10"/>
<path d="M877.054 199.404C875.907 195.871 874.137 192.571 871.827 189.66C869.553 186.767 866.777 184.306 863.631 182.395C860.466 180.488 856.951 179.233 853.293 178.705C849.326 178.158 845.285 178.553 841.499 179.856C837.589 181.032 834.011 183.113 831.055 185.93C828.442 188.443 826.37 191.463 824.967 194.804C823.563 198.146 822.856 201.738 822.891 205.362C822.877 209.059 823.451 212.735 824.592 216.252C825.752 219.794 827.457 223.134 829.646 226.152C831.776 229.151 834.471 231.707 837.579 233.676C840.851 235.748 844.551 237.05 848.401 237.485C852.25 237.92 856.148 237.475 859.801 236.186C863.631 235.015 867.132 232.959 870.02 230.185C872.67 227.608 874.776 224.527 876.214 221.123C877.636 217.728 878.436 214.105 878.575 210.427C878.733 206.691 878.218 202.958 877.054 199.404ZM896.252 253.979L891.605 239.677L891.156 239.823C889.354 246.686 885.565 252.865 880.264 257.585C874.715 262.701 868.113 266.54 860.923 268.834C853.349 271.44 845.268 272.229 837.334 271.137C830.024 270.084 823.015 267.517 816.756 263.6C810.413 259.587 804.888 254.408 800.474 248.339C795.809 242.01 792.204 234.967 789.798 227.483C787.35 220.042 786.176 212.242 786.325 204.41C786.425 196.958 787.913 189.589 790.713 182.681C793.552 175.694 797.915 169.427 803.483 164.338C809.05 159.248 815.683 155.464 822.898 153.26C829.93 150.73 837.49 150.033 844.864 151.236C850.603 152.198 856.118 154.2 861.138 157.143L861.587 156.997L839.352 88.5659L875.427 76.8447L929.474 243.184L896.252 253.979Z" fill="black" stroke="#242424" stroke-width="2.5" stroke-miterlimit="10"/>
<path d="M1011.73 142.018C1010.08 136.563 1006.45 131.925 1001.55 129.02C996.621 126.086 990.564 125.787 983.376 128.123C980.063 129.155 976.964 130.776 974.227 132.907C971.744 134.847 969.629 137.216 967.981 139.901C966.419 142.494 965.37 145.363 964.891 148.351C964.382 151.266 964.506 154.257 965.256 157.119L1011.73 142.018ZM1049.48 145.069L1050.93 149.559C1051.39 150.954 1051.77 152.372 1052.07 153.808L972.596 179.63C973.809 182.507 975.677 185.061 978.05 187.091C980.429 189.098 983.163 190.643 986.11 191.645C992.388 193.79 999.193 193.843 1005.51 191.797C1010.59 190.321 1015.23 187.602 1019 183.887C1022.14 180.633 1024.51 176.717 1025.93 172.427L1056.17 180.125C1053.47 189.26 1048.37 197.507 1041.41 204.009C1033.55 211.216 1024.16 216.556 1013.95 219.632C1006.02 222.255 997.709 223.514 989.36 223.354C981.466 223.236 973.674 221.549 966.44 218.39C959.208 215.166 952.764 210.408 947.555 204.446C941.732 197.702 937.384 189.814 934.792 181.29C931.966 172.994 930.853 164.211 931.519 155.472C932.136 147.584 934.366 139.907 938.071 132.915C941.797 126.035 946.858 119.969 952.96 115.071C959.492 109.818 966.946 105.83 974.942 103.312C982.518 100.751 990.517 99.6776 998.5 100.15C1005.93 100.614 1013.17 102.702 1019.71 106.265C1026.43 110.065 1032.32 115.185 1037.02 121.318C1042.55 128.44 1046.76 136.494 1049.46 145.099L1049.48 145.069Z" fill="black" stroke="#242424" stroke-width="2.5" stroke-miterlimit="10"/>
<path d="M628.447 271.792C625.319 269.737 621.738 268.473 618.012 268.109C614.124 267.625 610.175 267.993 606.443 269.187C602.839 270.278 599.542 272.199 596.817 274.797C594.274 277.279 592.257 280.247 590.887 283.525C589.502 286.914 588.741 290.525 588.638 294.184C588.5 298.046 589.055 301.9 590.275 305.566C591.439 309.24 593.215 312.691 595.529 315.774C597.711 318.721 600.459 321.203 603.613 323.075C606.712 324.906 610.161 326.069 613.737 326.488C617.58 326.924 621.472 326.507 625.136 325.266C628.862 324.043 632.327 322.134 635.351 319.638C638.319 317.303 640.635 314.243 642.075 310.752L670.048 328.669C666.53 335.002 661.667 340.488 655.8 344.741C649.255 349.657 641.929 353.439 634.129 355.927C625.907 358.676 617.277 360.003 608.609 359.851C600.565 359.725 592.632 357.961 585.295 354.668C578.028 351.348 571.541 346.538 566.254 340.551C560.466 333.897 556.139 326.103 553.556 317.671C550.729 309.4 549.673 300.628 550.454 291.922C551.213 283.97 553.634 276.266 557.56 269.309C561.571 262.318 566.935 256.196 573.338 251.3C580.159 246.047 587.846 242.029 596.053 239.427C600.002 238.144 604.062 237.232 608.18 236.703C612.223 236.176 616.299 235.947 620.374 236.017C624.217 236.079 628.041 236.55 631.783 237.423C635.173 238.206 638.459 239.388 641.57 240.945L628.447 271.792Z" fill="black" stroke="#494949" stroke-width="2.5" stroke-miterlimit="10"/>
<path d="M751.041 252.883C749.899 249.358 748.17 246.051 745.926 243.103C743.757 240.175 741.052 237.685 737.954 235.764C734.835 233.889 731.37 232.66 727.765 232.15C723.718 231.699 719.62 232.117 715.747 233.376C711.873 234.634 708.313 236.704 705.303 239.448C702.701 241.954 700.655 244.978 699.297 248.325C697.985 251.689 697.329 255.272 697.363 258.882C697.347 266.313 699.7 273.556 704.081 279.559C706.238 282.536 708.928 285.087 712.015 287.084C715.117 289.09 718.618 290.399 722.277 290.923C726.324 291.373 730.422 290.956 734.295 289.697C738.169 288.438 741.729 286.368 744.739 283.624C747.391 281.051 749.453 277.933 750.784 274.487C752.058 271.062 752.689 267.433 752.645 263.78C752.692 260.086 752.15 256.407 751.041 252.883ZM785.813 241.585C788.643 249.904 789.682 258.727 788.861 267.476C788.083 275.486 785.628 283.243 781.657 290.245C777.661 297.188 772.388 303.314 766.117 308.3C752.76 318.801 736.104 324.213 719.126 323.569C711.116 323.262 703.242 321.404 695.941 318.096C688.66 314.724 682.158 309.882 676.842 303.873C671.034 297.279 666.688 289.53 664.09 281.135C661.259 272.856 660.232 264.067 661.078 255.357C661.873 247.438 664.314 239.772 668.243 232.849C672.226 225.956 677.544 219.925 683.885 215.108C697.389 204.885 713.943 199.507 730.876 199.839C738.833 200.047 746.672 201.799 753.959 204.998C761.254 208.248 767.777 213.006 773.097 218.959C778.904 225.507 783.247 233.218 785.835 241.578L785.813 241.585Z" fill="black" stroke="#494949" stroke-width="2.5" stroke-miterlimit="10"/>
<path d="M890.44 207.813C889.292 204.279 887.522 200.979 885.212 198.069C882.938 195.175 880.162 192.714 877.016 190.804C873.887 188.889 870.409 187.614 866.783 187.054C862.816 186.508 858.776 186.903 854.989 188.206C851.079 189.382 847.501 191.463 844.545 194.28C841.933 196.793 839.861 199.812 838.457 203.154C837.053 206.495 836.347 210.088 836.381 213.712C836.367 217.409 836.941 221.085 838.082 224.602C839.242 228.144 840.947 231.484 843.136 234.501C845.23 237.503 847.886 240.071 850.957 242.062C854.229 244.134 857.929 245.436 861.779 245.871C865.628 246.306 869.526 245.862 873.179 244.572C877.009 243.401 880.51 241.345 883.398 238.571C886.048 235.995 888.154 232.913 889.592 229.509C891.031 226.112 891.846 222.484 891.998 218.799C892.14 215.073 891.612 211.352 890.44 207.813ZM909.637 262.387L904.99 248.086L904.541 248.232C902.739 255.095 898.95 261.274 893.649 265.994C888.1 271.109 881.499 274.949 874.308 277.242C866.734 279.849 858.653 280.638 850.719 279.545C843.409 278.493 836.401 275.926 830.142 272.009C823.798 267.995 818.273 262.817 813.859 256.747C809.195 250.419 805.589 243.375 803.183 235.891C800.736 228.451 799.561 220.651 799.71 212.819C799.81 205.367 801.298 197.998 804.098 191.09C806.935 184.121 811.288 177.87 816.84 172.79C822.393 167.711 829.006 163.929 836.201 161.72C843.233 159.19 850.793 158.493 858.167 159.696C863.906 160.659 869.421 162.661 874.44 165.603L874.889 165.457L852.655 97.0263L888.842 85.2685L942.881 251.586L909.637 262.387Z" fill="black" stroke="#494949" stroke-width="2.5" stroke-miterlimit="10"/>
<path d="M1025.12 150.45C1023.48 144.995 1019.84 140.356 1014.94 137.451C1010.01 134.518 1003.96 134.219 996.769 136.554C993.457 137.586 990.358 139.207 987.621 141.339C985.138 143.279 983.022 145.647 981.375 148.332C979.813 150.925 978.763 153.794 978.285 156.783C977.775 159.698 977.9 162.688 978.65 165.55L1025.12 150.45ZM1062.87 153.5L1064.33 157.99C1064.78 159.385 1065.16 160.803 1065.46 162.239L986.012 188.054C987.225 190.931 989.093 193.485 991.466 195.515C993.845 197.522 996.579 199.067 999.526 200.069C1005.8 202.214 1012.61 202.267 1018.92 200.221C1024 198.713 1028.62 195.967 1032.37 192.229C1035.53 189.004 1037.93 185.111 1039.39 180.836L1069.63 188.534C1066.93 197.669 1061.83 205.916 1054.87 212.419C1047.02 219.614 1037.65 224.949 1027.46 228.027C1019.56 230.625 1011.29 231.871 1002.98 231.712C995.084 231.595 987.293 229.908 980.058 226.748C972.826 223.524 966.382 218.766 961.174 212.804C955.35 206.06 951.002 198.172 948.41 189.648C945.585 181.352 944.471 172.569 945.137 163.83C945.754 155.942 947.985 148.265 951.69 141.273C955.415 134.394 960.477 128.327 966.578 123.429C973.11 118.176 980.565 114.188 988.56 111.67C996.136 109.11 1004.14 108.036 1012.12 108.508C1019.55 108.973 1026.79 111.06 1033.33 114.624C1040.05 118.423 1045.94 123.543 1050.63 129.676C1056.1 136.827 1060.24 144.895 1062.87 153.5Z" fill="black" stroke="#494949" stroke-width="2.5" stroke-miterlimit="10"/>
<path d="M641.863 280.216C638.735 278.17 635.156 276.914 631.435 276.555C627.546 276.071 623.598 276.439 619.865 277.634C616.261 278.724 612.964 280.645 610.24 283.243C607.697 285.725 605.68 288.694 604.309 291.971C602.925 295.361 602.163 298.971 602.061 302.63C601.923 306.492 602.477 310.347 603.698 314.013C604.861 317.687 606.637 321.138 608.952 324.22C611.134 327.167 613.882 329.649 617.036 331.522C620.135 333.352 623.583 334.515 627.159 334.934C631.002 335.37 634.894 334.953 638.558 333.712C642.284 332.489 645.749 330.581 648.774 328.085C651.742 325.749 654.058 322.689 655.497 319.198L683.47 337.115C679.952 343.448 675.089 348.934 669.223 353.187C662.677 358.103 655.351 361.885 647.552 364.373C639.33 367.122 630.699 368.449 622.031 368.297C613.945 368.139 605.978 366.327 598.621 362.971C591.354 359.652 584.868 354.842 579.581 348.854C573.792 342.201 569.466 334.406 566.882 325.975C564.056 317.704 562.999 308.931 563.781 300.225C564.534 292.267 566.952 284.555 570.879 277.59C574.89 270.599 580.254 264.477 586.658 259.581C593.478 254.328 601.166 250.31 609.372 247.708C613.321 246.425 617.381 245.513 621.5 244.984C625.542 244.457 629.618 244.228 633.694 244.298C637.536 244.36 641.361 244.831 645.102 245.705C648.493 246.487 651.778 247.669 654.889 249.227L641.863 280.216Z" fill="black" stroke="#6D6D6D" stroke-width="2.5" stroke-miterlimit="10"/>
<path d="M764.45 261.285C763.308 257.76 761.578 254.453 759.335 251.504C757.165 248.576 754.46 246.086 751.363 244.166C748.243 242.291 744.778 241.062 741.174 240.552C737.126 240.101 733.029 240.519 729.155 241.777C725.282 243.036 721.721 245.106 718.711 247.85C716.11 250.356 714.063 253.38 712.705 256.727C711.394 260.091 710.737 263.674 710.771 267.284C710.755 274.715 713.108 281.958 717.49 287.961C719.646 290.938 722.336 293.489 725.423 295.486C728.526 297.509 732.033 298.834 735.699 299.37C739.747 299.82 743.844 299.402 747.718 298.144C751.592 296.885 755.152 294.815 758.162 292.071C760.814 289.497 762.876 286.38 764.207 282.933C765.525 279.475 766.184 275.801 766.151 272.1C766.158 268.428 765.583 264.778 764.45 261.285ZM799.221 249.987C802.051 258.306 803.09 267.129 802.27 275.878C801.491 283.888 799.036 291.645 795.065 298.647C791.069 305.59 785.797 311.716 779.525 316.702C766.168 327.203 749.512 332.614 732.534 331.971C724.524 331.664 716.65 329.805 709.349 326.497C702.069 323.126 695.566 318.283 690.25 312.275C684.442 305.681 680.096 297.931 677.498 289.537C674.667 281.258 673.64 272.468 674.486 263.759C675.282 255.84 677.722 248.174 681.651 241.251C685.635 234.358 690.952 228.326 697.293 223.51C710.797 213.287 727.351 207.908 744.284 208.241C752.241 208.449 760.081 210.201 767.367 213.4C774.662 216.649 781.185 221.408 786.506 227.361C792.305 233.913 796.64 241.627 799.221 249.987Z" fill="black" stroke="#6D6D6D" stroke-width="2.5" stroke-miterlimit="10"/>
<path d="M903.855 216.237C902.708 212.704 900.937 209.404 898.628 206.493C896.354 203.6 893.577 201.139 890.431 199.228C887.267 197.321 883.752 196.066 880.094 195.538C876.127 194.991 872.086 195.386 868.299 196.689C864.389 197.865 860.811 199.946 857.856 202.763C855.243 205.276 853.171 208.296 851.767 211.637C850.363 214.979 849.657 218.571 849.692 222.195C849.677 225.892 850.251 229.568 851.392 233.085C852.553 236.627 854.258 239.967 856.447 242.985C858.577 245.984 861.272 248.54 864.38 250.509C867.652 252.581 871.352 253.883 875.201 254.318C879.051 254.753 882.949 254.308 886.602 253.019C890.432 251.848 893.933 249.792 896.821 247.018C899.471 244.441 901.577 241.36 903.015 237.956C904.437 234.561 905.237 230.938 905.376 227.26C905.534 223.524 905.019 219.791 903.855 216.237ZM923.038 270.767L918.406 256.51L917.957 256.656C916.155 263.519 912.365 269.698 907.064 274.418C901.516 279.534 894.914 283.373 887.723 285.667C880.149 288.273 872.069 289.062 864.135 287.97C856.825 286.917 849.816 284.35 843.557 280.433C837.214 276.42 831.689 271.241 827.274 265.172C822.61 258.843 819.005 251.8 816.599 244.316C814.151 236.875 812.977 229.075 813.125 221.243C813.226 213.791 814.714 206.422 817.513 199.514C820.353 192.527 824.716 186.26 830.283 181.171C835.851 176.081 842.484 172.297 849.699 170.093C856.731 167.563 864.291 166.866 871.665 168.069C877.404 169.031 882.919 171.033 887.938 173.976L888.388 173.83L866.153 105.399L902.25 93.6703L956.282 259.965L923.038 270.767Z" fill="black" stroke="#6D6D6D" stroke-width="2.5" stroke-miterlimit="10"/>
<path d="M1038.51 158.783C1036.86 153.328 1033.23 148.69 1028.33 145.785C1023.4 142.851 1017.34 142.553 1010.16 144.888C1006.84 145.92 1003.74 147.541 1001.01 149.673C998.525 151.612 996.409 153.981 994.762 156.666C993.199 159.259 992.15 162.128 991.672 165.117C991.162 168.032 991.287 171.022 992.037 173.884L1038.51 158.783ZM1076.26 161.834L1077.72 166.324C1078.17 167.719 1078.55 169.137 1078.85 170.573L999.376 196.395C1000.59 199.272 1002.46 201.826 1004.83 203.856C1007.18 205.864 1009.88 207.418 1012.8 208.44C1019.08 210.584 1025.88 210.637 1032.2 208.592C1037.28 207.115 1041.92 204.397 1045.69 200.682C1048.85 197.457 1051.24 193.566 1052.7 189.296L1082.94 196.994C1080.24 206.129 1075.14 214.376 1068.17 220.879C1060.33 228.074 1050.96 233.409 1040.76 236.487C1032.83 239.11 1024.52 240.369 1016.17 240.209C1008.28 240.091 1000.48 238.404 993.25 235.245C986.018 232.021 979.574 227.263 974.365 221.301C968.541 214.557 964.194 206.669 961.601 198.145C958.838 189.852 957.78 181.085 958.492 172.373C959.11 164.485 961.34 156.808 965.045 149.816C968.77 142.936 973.832 136.87 979.934 131.972C986.465 126.719 993.92 122.731 1001.92 120.213C1009.49 117.652 1017.49 116.579 1025.47 117.051C1032.91 117.515 1040.14 119.603 1046.68 123.166C1053.41 126.966 1059.29 132.086 1063.99 138.219C1069.46 145.323 1073.62 153.342 1076.28 161.901L1076.26 161.834Z" fill="black" stroke="#6D6D6D" stroke-width="2.5" stroke-miterlimit="10"/>
<path d="M655.264 288.595C652.136 286.549 648.557 285.293 644.836 284.934C640.947 284.45 636.999 284.818 633.266 286.013C629.662 287.103 626.365 289.024 623.641 291.622C621.098 294.14 619.093 297.148 617.747 300.462C616.362 303.852 615.601 307.463 615.498 311.122C615.36 314.983 615.915 318.838 617.135 322.504C618.299 326.178 620.075 329.629 622.389 332.711C624.571 335.658 627.319 338.141 630.473 340.013C633.572 341.844 637.021 343.006 640.597 343.425C644.44 343.861 648.332 343.444 651.996 342.204C655.722 340.98 659.187 339.072 662.211 336.576C665.179 334.241 667.495 331.18 668.935 327.69L696.908 345.606C693.337 351.87 688.442 357.281 682.565 361.461C676.019 366.377 668.693 370.159 660.894 372.647C652.669 375.427 644.031 376.782 635.35 376.653C627.307 376.527 619.374 374.764 612.036 371.47C604.769 368.15 598.282 363.34 592.996 357.353C587.207 350.699 582.881 342.905 580.297 334.473C577.473 326.182 576.426 317.388 577.226 308.664C577.985 300.713 580.405 293.009 584.332 286.052C588.317 279.048 593.658 272.908 600.044 267.99C606.864 262.737 614.551 258.719 622.758 256.117C626.707 254.834 630.767 253.922 634.886 253.393C638.928 252.866 643.004 252.637 647.08 252.707C650.922 252.769 654.746 253.24 658.488 254.113C661.878 254.896 665.164 256.078 668.275 257.635L655.264 288.595Z" fill="black" stroke="#929292" stroke-width="2.5" stroke-miterlimit="10"/>
<path d="M777.858 269.686C776.716 266.161 774.987 262.855 772.743 259.906C770.574 256.978 767.869 254.488 764.771 252.567C761.651 250.692 758.186 249.463 754.582 248.953C750.534 248.502 746.437 248.92 742.563 250.179C738.69 251.437 735.129 253.508 732.12 256.251C729.518 258.794 727.483 261.857 726.15 265.24C724.855 268.603 724.214 272.181 724.261 275.783C724.245 283.214 726.598 290.457 730.979 296.46C733.136 299.437 735.825 301.988 738.912 303.985C742.015 305.99 745.516 307.3 749.174 307.824C753.222 308.274 757.319 307.856 761.193 306.598C765.067 305.339 768.627 303.269 771.637 300.525C774.289 297.951 776.351 294.834 777.682 291.387C779.007 287.958 779.684 284.313 779.678 280.637C779.66 276.913 779.046 273.216 777.858 269.686ZM812.629 258.388C815.46 266.707 816.498 275.53 815.678 284.279C814.899 292.289 812.445 300.047 808.474 307.048C804.477 313.991 799.205 320.117 792.934 325.104C779.576 335.604 762.921 341.016 745.942 340.372C737.932 340.066 730.058 338.207 722.758 334.899C715.477 331.527 708.974 326.685 703.658 320.677C697.85 314.082 693.504 306.333 690.906 297.939C688.075 289.659 687.049 280.87 687.894 272.16C688.69 264.241 691.13 256.575 695.059 249.652C699.043 242.759 704.36 236.728 710.701 231.911C724.205 221.688 740.759 216.31 757.693 216.643C765.649 216.851 773.489 218.603 780.775 221.801C788.071 225.051 794.593 229.809 799.914 235.763C805.713 242.315 810.048 250.028 812.629 258.388Z" fill="black" stroke="#929292" stroke-width="2.5" stroke-miterlimit="10"/>
<path d="M917.263 224.639C916.116 221.105 914.345 217.805 912.036 214.894C909.762 212.001 906.986 209.54 903.84 207.629C900.675 205.722 897.16 204.467 893.502 203.939C889.535 203.393 885.494 203.787 881.707 205.09C877.797 206.267 874.22 208.348 871.264 211.164C868.647 213.687 866.574 216.718 865.174 220.072C863.774 223.426 863.075 227.03 863.122 230.664C863.107 234.361 863.682 238.037 864.822 241.554C865.983 245.096 867.688 248.436 869.877 251.453C871.986 254.41 874.644 256.934 877.706 258.888C880.978 260.959 884.678 262.261 888.528 262.696C892.377 263.131 896.275 262.687 899.928 261.397C903.758 260.226 907.259 258.17 910.147 255.396C912.797 252.82 914.903 249.738 916.341 246.334C917.763 242.939 918.563 239.316 918.702 235.639C918.884 231.915 918.397 228.19 917.263 224.639ZM936.461 279.213L931.814 264.912L931.365 265.058C929.563 271.921 925.774 278.1 920.473 282.819C914.924 287.935 908.322 291.774 901.131 294.068C893.558 296.674 885.477 297.463 877.543 296.371C870.233 295.318 863.224 292.751 856.965 288.834C850.622 284.821 845.097 279.643 840.683 273.573C836.018 267.245 832.413 260.201 830.007 252.717C827.559 245.277 826.385 237.476 826.534 229.645C826.634 222.193 828.122 214.824 830.922 207.915C833.767 200.939 838.131 194.683 843.697 189.603C849.263 184.523 855.891 180.746 863.1 178.546C870.112 175.972 877.665 175.227 885.044 176.38C890.783 177.343 896.298 179.345 901.317 182.287L901.767 182.141L879.561 113.8L915.658 102.072L969.705 268.411L936.461 279.213Z" fill="black" stroke="#929292" stroke-width="2.5" stroke-miterlimit="10"/>
<path d="M1051.94 167.252C1050.29 161.797 1046.66 157.159 1041.76 154.254C1036.83 151.32 1030.77 151.021 1023.59 153.357C1020.27 154.389 1017.17 156.01 1014.44 158.142C1011.95 160.081 1009.84 162.45 1008.19 165.135C1006.63 167.728 1005.58 170.597 1005.1 173.586C1004.59 176.501 1004.72 179.491 1005.47 182.353L1051.94 167.252ZM1089.69 170.303L1091.15 174.793C1091.6 176.188 1091.98 177.606 1092.28 179.042L1012.81 204.864C1014.02 207.741 1015.89 210.295 1018.26 212.325C1020.64 214.332 1023.37 215.877 1026.32 216.88C1032.6 219.024 1039.4 219.077 1045.72 217.031C1050.8 215.562 1055.44 212.852 1059.22 209.144C1062.38 205.919 1064.77 202.029 1066.22 197.758L1096.46 205.457C1093.71 214.538 1088.59 222.723 1081.62 229.169C1073.77 236.364 1064.4 241.699 1054.21 244.777C1046.3 247.404 1038.01 248.672 1029.68 248.529C1021.8 248.396 1014.03 246.701 1006.82 243.543C999.591 240.319 993.147 235.561 987.938 229.599C982.114 222.855 977.767 214.967 975.174 206.443C972.349 198.147 971.236 189.364 971.902 180.625C972.519 172.737 974.749 165.06 978.454 158.068C982.179 151.189 987.241 145.122 993.343 140.224C999.874 134.971 1007.33 130.983 1015.32 128.465C1022.9 125.904 1030.9 124.831 1038.88 125.303C1046.31 125.767 1053.55 127.855 1060.09 131.419C1066.82 135.218 1072.7 140.338 1077.4 146.471C1082.88 153.621 1087.04 161.691 1089.69 170.303Z" fill="black" stroke="#929292" stroke-width="2.5" stroke-miterlimit="10"/>
<path d="M668.656 297.027C665.528 294.98 661.95 293.724 658.229 293.365C654.34 292.881 650.392 293.249 646.659 294.444C643.055 295.534 639.758 297.456 637.033 300.054C634.49 302.535 632.473 305.504 631.103 308.782C629.719 312.171 628.957 315.782 628.854 319.441C628.716 323.302 629.271 327.157 630.491 330.823C631.655 334.497 633.431 337.948 635.745 341.03C637.927 343.977 640.675 346.46 643.829 348.332C646.928 350.163 650.377 351.325 653.953 351.744C657.796 352.18 661.688 351.763 665.352 350.523C669.078 349.3 672.543 347.391 675.568 344.895C678.535 342.56 680.851 339.499 682.291 336.009L710.264 353.925C706.746 360.258 701.883 365.744 696.016 369.997C689.471 374.914 682.145 378.695 674.345 381.184C666.123 383.933 657.493 385.26 648.825 385.107C640.769 384.963 632.828 383.177 625.489 379.857C618.222 376.537 611.735 371.728 606.449 365.74C600.66 359.086 596.333 351.292 593.75 342.86C590.924 334.589 589.867 325.817 590.648 317.111C591.407 309.16 593.828 301.456 597.754 294.498C601.765 287.507 607.129 281.385 613.533 276.489C620.321 271.21 627.981 267.159 636.166 264.519C640.115 263.236 644.175 262.324 648.293 261.794C652.336 261.268 656.411 261.039 660.487 261.109C664.33 261.17 668.154 261.642 671.896 262.515C675.286 263.297 678.571 264.479 681.682 266.037L668.656 297.027Z" fill="black" stroke="#B6B6B6" stroke-width="2.5" stroke-miterlimit="10"/>
<path d="M791.266 278.088C790.124 274.563 788.395 271.256 786.151 268.307C783.982 265.379 781.277 262.889 778.179 260.969C775.047 259.128 771.577 257.934 767.974 257.459C763.927 257.008 759.829 257.426 755.956 258.684C752.082 259.943 748.522 262.013 745.512 264.757C742.91 267.263 740.864 270.287 739.506 273.634C738.194 276.998 737.538 280.581 737.572 284.191C737.556 291.622 739.909 298.865 744.29 304.868C746.447 307.845 749.137 310.396 752.224 312.393C755.326 314.398 758.827 315.708 762.486 316.232C766.533 316.682 770.63 316.264 774.504 315.006C778.378 313.747 781.938 311.677 784.948 308.933C787.6 306.36 789.662 303.242 790.993 299.796C792.318 296.366 792.995 292.721 792.989 289.045C793.003 285.324 792.422 281.625 791.266 278.088ZM826.038 266.79C828.868 275.108 829.907 283.931 829.086 292.681C828.307 300.691 825.853 308.448 821.882 315.449C817.885 322.392 812.613 328.518 806.342 333.505C792.985 344.005 776.329 349.417 759.351 348.773C751.373 348.452 743.533 346.591 736.263 343.293C728.982 339.922 722.479 335.079 717.164 329.071C711.343 322.475 706.987 314.72 704.382 306.318C701.551 298.039 700.524 289.249 701.37 280.539C702.171 272.616 704.619 264.948 708.557 258.024C712.541 251.131 717.859 245.1 724.199 240.283C737.703 230.061 754.257 224.682 771.191 225.015C779.147 225.223 786.987 226.975 794.273 230.174C801.539 233.442 808.031 238.21 813.322 244.164C819.122 250.716 823.457 258.43 826.038 266.79Z" fill="black" stroke="#B6B6B6" stroke-width="2.5" stroke-miterlimit="10"/>
<path d="M930.671 233.041C929.524 229.507 927.754 226.207 925.444 223.296C923.17 220.403 920.394 217.942 917.248 216.031C914.083 214.124 910.568 212.869 906.91 212.341C902.943 211.795 898.902 212.189 895.116 213.492C891.206 214.669 887.628 216.75 884.672 219.566C882.059 222.079 879.987 225.099 878.584 228.44C877.18 231.782 876.473 235.375 876.508 238.998C876.494 242.696 877.068 246.371 878.209 249.888C879.369 253.43 881.074 256.77 883.263 259.788C885.393 262.787 888.088 265.343 891.196 267.312C894.468 269.384 898.168 270.686 902.018 271.121C905.867 271.556 909.765 271.112 913.418 269.822C917.248 268.651 920.749 266.595 923.637 263.821C926.287 261.245 928.393 258.163 929.831 254.759C931.253 251.364 932.053 247.741 932.192 244.064C932.35 240.328 931.835 236.594 930.671 233.041ZM949.869 287.615L945.222 273.314L944.773 273.46C942.971 280.323 939.182 286.502 933.881 291.221C928.332 296.337 921.73 300.176 914.54 302.47C906.966 305.076 898.885 305.865 890.951 304.773C883.641 303.72 876.633 301.153 870.374 297.236C864.03 293.223 858.505 288.045 854.091 281.975C849.426 275.646 845.821 268.603 843.415 261.119C840.997 253.719 839.838 245.965 839.985 238.181C840.086 230.729 841.574 223.36 844.373 216.452C847.213 209.465 851.576 203.198 857.143 198.109C862.711 193.019 869.344 189.235 876.559 187.031C883.534 184.494 891.037 183.764 898.369 184.908C904.108 185.871 909.623 187.873 914.642 190.815L915.091 190.669L892.857 122.239L928.954 110.51L983.001 276.85L949.869 287.615Z" fill="black" stroke="#B6B6B6" stroke-width="2.5" stroke-miterlimit="10"/>
<path d="M1065.35 175.654C1063.7 170.199 1060.07 165.561 1055.17 162.656C1050.24 159.722 1044.18 159.423 1036.99 161.759C1033.68 162.791 1030.58 164.412 1027.85 166.543C1025.36 168.483 1023.25 170.852 1021.6 173.537C1020.04 176.13 1018.99 178.999 1018.51 181.988C1018 184.902 1018.12 187.893 1018.87 190.755L1065.35 175.654ZM1103.09 178.705L1104.55 183.195C1105.01 184.59 1105.39 186.008 1105.69 187.444L1026.21 213.266C1027.44 216.089 1029.3 218.593 1031.65 220.585C1034.03 222.592 1036.76 224.137 1039.71 225.14C1045.99 227.284 1052.79 227.337 1059.1 225.291C1064.19 223.815 1068.83 221.096 1072.6 217.381C1075.76 214.156 1078.15 210.266 1079.6 205.996L1109.84 213.694C1107.14 222.829 1102.04 231.076 1095.08 237.579C1087.23 244.774 1077.86 250.109 1067.67 253.187C1059.74 255.81 1051.42 257.068 1043.08 256.908C1035.18 256.791 1027.39 255.104 1020.16 251.945C1012.92 248.72 1006.48 243.962 1001.27 238C995.447 231.256 991.1 223.369 988.508 214.844C985.682 206.548 984.569 197.765 985.235 189.026C985.845 181.165 988.057 173.512 991.735 166.536C995.46 159.657 1000.52 153.59 1006.62 148.692C1013.15 143.439 1020.61 139.451 1028.6 136.933C1036.18 134.373 1044.18 133.299 1052.16 133.771C1059.64 134.249 1066.91 136.367 1073.47 139.977C1080.2 143.776 1086.09 148.897 1090.78 155.03C1096.26 162.137 1100.43 170.161 1103.1 178.727L1103.09 178.705Z" fill="black" stroke="#B6B6B6" stroke-width="2.5" stroke-miterlimit="10"/>
<path d="M682.065 305.428C678.937 303.382 675.359 302.126 671.637 301.767C667.748 301.283 663.8 301.651 660.067 302.845C656.464 303.936 653.166 305.857 650.442 308.455C647.899 310.937 645.882 313.905 644.511 317.183C643.127 320.572 642.366 324.183 642.263 327.842C642.125 331.704 642.68 335.558 643.9 339.224C645.063 342.899 646.84 346.349 649.154 349.432C651.336 352.379 654.084 354.861 657.238 356.733C660.337 358.564 663.785 359.727 667.361 360.146C671.204 360.582 675.097 360.165 678.76 358.924C682.487 357.701 685.951 355.792 688.976 353.296C691.944 350.961 694.26 347.901 695.699 344.41L723.673 362.327C720.155 368.66 715.291 374.146 709.425 378.399C702.853 383.265 695.51 386.993 687.703 389.428C679.481 392.177 670.85 393.504 662.182 393.352C654.139 393.226 646.206 391.462 638.868 388.169C631.602 384.849 625.115 380.039 619.828 374.051C614.039 367.362 609.725 359.528 607.168 351.06C604.341 342.789 603.285 334.017 604.066 325.311C604.825 317.359 607.245 309.656 611.172 302.698C615.183 295.707 620.547 289.585 626.95 284.689C633.77 279.436 641.458 275.418 649.665 272.816C653.614 271.533 657.674 270.621 661.792 270.092C665.835 269.565 669.91 269.336 673.986 269.406C677.838 269.488 681.67 269.982 685.417 270.88C688.807 271.662 692.092 272.844 695.203 274.402L682.065 305.428Z" fill="black" stroke="#DBDBDB" stroke-width="2.5" stroke-miterlimit="10"/>
<path d="M804.726 286.497C803.584 282.972 801.855 279.665 799.611 276.716C797.442 273.788 794.737 271.298 791.639 269.378C788.52 267.503 785.055 266.273 781.45 265.764C777.402 265.313 773.305 265.731 769.431 266.989C765.558 268.248 761.997 270.318 758.988 273.062C756.386 275.568 754.34 278.592 752.982 281.939C751.67 285.302 751.013 288.886 751.048 292.496C751.031 299.927 753.385 307.17 757.766 313.173C759.922 316.15 762.612 318.701 765.699 320.698C768.802 322.703 772.303 324.013 775.961 324.537C780.009 324.987 784.106 324.569 787.98 323.311C791.853 322.052 795.414 319.982 798.423 317.238C801.012 314.664 803.02 311.566 804.312 308.152C805.637 304.722 806.313 301.077 806.307 297.401C806.362 293.705 805.828 290.025 804.726 286.497ZM839.498 275.199C842.328 283.518 843.366 292.341 842.546 301.09C841.767 309.1 839.313 316.857 835.342 323.859C831.345 330.801 826.073 336.927 819.802 341.914C806.445 352.415 789.789 357.826 772.811 357.182C764.8 356.876 756.926 355.017 749.626 351.709C742.345 348.338 735.842 343.495 730.527 337.487C724.718 330.893 720.372 323.143 717.775 314.749C714.944 306.47 713.917 297.68 714.763 288.971C715.558 281.052 717.998 273.386 721.927 266.463C725.911 259.57 731.229 253.538 737.57 248.722C751.073 238.499 767.627 233.12 784.561 233.453C792.517 233.661 800.357 235.413 807.643 238.612C814.939 241.861 821.461 246.62 826.782 252.573C832.567 259.134 836.887 266.852 839.453 275.214L839.498 275.199Z" fill="black" stroke="#DBDBDB" stroke-width="2.5" stroke-miterlimit="10"/>
<path d="M944.065 241.472C942.917 237.938 941.147 234.638 938.838 231.727C936.564 228.834 933.787 226.373 930.641 224.462C927.476 222.555 923.961 221.3 920.304 220.772C916.336 220.226 912.296 220.62 908.509 221.923C904.599 223.1 901.021 225.181 898.066 227.997C895.453 230.51 893.381 233.53 891.977 236.871C890.573 240.213 889.867 243.806 889.902 247.429C889.887 251.127 890.461 254.803 891.602 258.319C892.763 261.862 894.468 265.201 896.657 268.219C898.787 271.218 901.482 273.774 904.59 275.744C907.862 277.815 911.562 279.118 915.411 279.552C919.261 279.987 923.159 279.543 926.812 278.253C930.642 277.082 934.143 275.026 937.031 272.252C939.681 269.676 941.787 266.594 943.225 263.19C944.647 259.795 945.447 256.172 945.586 252.495C945.744 248.759 945.229 245.025 944.065 241.472ZM963.263 296.046L958.609 281.722L958.159 281.868C956.357 288.731 952.568 294.91 947.267 299.63C941.718 304.746 935.117 308.585 927.926 310.878C920.352 313.485 912.271 314.274 904.337 313.182C897.028 312.129 890.019 309.562 883.76 305.645C877.417 301.632 871.891 296.453 867.477 290.384C862.813 284.055 859.207 277.011 856.802 269.527C854.354 262.087 853.18 254.287 853.328 246.455C853.428 239.003 854.916 231.634 857.716 224.726C860.556 217.739 864.918 211.472 870.486 206.383C876.054 201.293 882.687 197.509 889.902 195.305C896.933 192.774 904.493 192.078 911.868 193.281C917.607 194.243 923.122 196.245 928.141 199.188L928.59 199.042L906.363 130.633L942.46 118.905L996.507 285.244L963.263 296.046Z" fill="black" stroke="#DBDBDB" stroke-width="2.5" stroke-miterlimit="10"/>
<path d="M1078.77 184.078C1077.12 178.623 1073.48 173.985 1068.58 171.08C1063.66 168.146 1057.6 167.847 1050.41 170.183C1047.1 171.215 1044 172.835 1041.26 174.967C1038.78 176.907 1036.66 179.276 1035.02 181.961C1033.45 184.554 1032.4 187.423 1031.93 190.411C1031.42 193.326 1031.54 196.317 1032.29 199.179L1078.77 184.078ZM1116.51 187.129L1117.97 191.619C1118.42 193.014 1118.8 194.432 1119.1 195.868L1039.63 221.69C1040.84 224.567 1042.71 227.121 1045.08 229.151C1047.46 231.158 1050.2 232.703 1053.14 233.705C1059.42 235.849 1066.23 235.903 1072.54 233.857C1077.63 232.381 1082.26 229.662 1086.04 225.947C1089.19 222.722 1091.59 218.832 1093.04 214.562L1123.28 222.26C1120.58 231.395 1115.48 239.642 1108.52 246.144C1100.67 253.34 1091.3 258.674 1081.11 261.753C1073.18 264.376 1064.86 265.634 1056.51 265.474C1048.62 265.357 1040.83 263.67 1033.59 260.511C1026.36 257.286 1019.92 252.528 1014.71 246.566C1008.88 239.822 1004.54 231.935 1001.94 223.41C999.12 215.114 998.006 206.331 998.672 197.592C999.289 189.705 1001.52 182.027 1005.22 175.035C1008.95 168.156 1014.01 162.089 1020.11 157.191C1026.61 151.944 1034.03 147.951 1041.99 145.417C1049.57 142.856 1057.57 141.782 1065.55 142.255C1072.98 142.719 1080.22 144.807 1086.76 148.37C1093.48 152.169 1099.37 157.29 1104.06 163.423C1109.58 170.526 1113.79 178.556 1116.49 187.136L1116.51 187.129Z" fill="black" stroke="#DBDBDB" stroke-width="2.5" stroke-miterlimit="10"/>
<path d="M695.473 313.83C692.345 311.784 688.767 310.527 685.045 310.169C681.156 309.684 677.208 310.052 673.475 311.247C669.872 312.337 666.574 314.259 663.85 316.857C661.307 319.339 659.29 322.307 657.919 325.585C656.535 328.974 655.774 332.585 655.671 336.244C655.533 340.105 656.088 343.96 657.308 347.626C658.472 351.3 660.248 354.751 662.562 357.833C664.744 360.78 667.492 363.263 670.646 365.135C673.745 366.966 677.194 368.128 680.769 368.547C684.612 368.983 688.505 368.566 692.168 367.326C695.933 366.066 699.425 364.106 702.46 361.549C705.428 359.214 707.744 356.153 709.183 352.663L737.156 370.58C733.638 376.913 728.775 382.398 722.909 386.651C716.363 391.568 709.038 395.349 701.238 397.838C693.016 400.587 684.385 401.914 675.717 401.762C667.674 401.636 659.741 399.872 652.403 396.579C645.137 393.259 638.65 388.449 633.363 382.461C621.95 368.935 616.28 351.484 617.563 333.832C618.321 325.881 620.742 318.177 624.669 311.22C628.622 304.22 633.927 298.075 640.276 293.142C647.096 287.889 654.784 283.871 662.99 281.269C666.939 279.986 670.999 279.074 675.118 278.545C679.16 278.019 683.236 277.789 687.312 277.859C691.154 277.921 694.979 278.392 698.72 279.266C702.111 280.048 705.396 281.23 708.507 282.788L695.473 313.83Z" fill="black" stroke="white" stroke-width="2.5" stroke-miterlimit="10"/>
<path d="M818.074 294.943C816.932 291.418 815.202 288.112 812.959 285.163C810.789 282.235 808.084 279.745 804.987 277.824C801.867 275.949 798.402 274.72 794.798 274.21C790.75 273.759 786.653 274.177 782.779 275.436C778.906 276.694 775.345 278.765 772.335 281.508C769.707 284.036 767.644 287.092 766.284 290.474C764.972 293.838 764.316 297.421 764.35 301.031C764.334 308.463 766.687 315.706 771.068 321.708C773.225 324.685 775.914 327.236 779.001 329.233C782.104 331.239 785.605 332.549 789.263 333.072C793.311 333.523 797.408 333.105 801.282 331.846C805.155 330.588 808.716 328.517 811.726 325.774C814.377 323.2 816.44 320.082 817.771 316.636C819.096 313.207 819.773 309.561 819.766 305.885C819.789 302.171 819.218 298.477 818.074 294.943ZM852.845 283.645C855.675 291.964 856.714 300.787 855.894 309.536C855.115 317.546 852.66 325.303 848.689 332.305C844.693 339.248 839.421 345.374 833.149 350.36C819.792 360.861 803.136 366.273 786.158 365.629C778.148 365.322 770.274 363.464 762.973 360.156C755.693 356.784 749.19 351.942 743.874 345.933C738.066 339.339 733.72 331.59 731.122 323.195C728.291 314.916 727.264 306.127 728.11 297.417C728.906 289.498 731.346 281.832 735.275 274.909C739.259 268.016 744.576 261.985 750.917 257.168C764.421 246.945 780.975 241.567 797.908 241.9C805.865 242.107 813.705 243.859 820.991 247.058C828.286 250.308 834.809 255.066 840.13 261.019C845.936 267.567 850.279 275.278 852.868 283.638L852.845 283.645Z" fill="black" stroke="white" stroke-width="2.5" stroke-miterlimit="10"/>
<path d="M957.496 249.866C956.348 246.332 954.578 243.032 952.269 240.122C949.995 237.228 947.218 234.767 944.072 232.856C940.907 230.949 937.392 229.694 933.734 229.166C929.767 228.62 925.727 229.014 921.94 230.318C918.03 231.494 914.452 233.575 911.497 236.391C908.884 238.904 906.812 241.924 905.408 245.266C904.004 248.607 903.298 252.2 903.332 255.823C903.334 259.51 903.921 263.173 905.071 266.676C906.231 270.219 907.936 273.558 910.125 276.576C912.255 279.575 914.95 282.131 918.058 284.1C921.33 286.172 925.03 287.474 928.88 287.909C932.729 288.344 936.627 287.9 940.28 286.61C944.11 285.439 947.611 283.383 950.499 280.609C953.149 278.033 955.255 274.951 956.693 271.547C958.115 268.152 958.915 264.529 959.054 260.852C959.196 257.126 958.668 253.405 957.496 249.866ZM976.693 304.44L972.047 290.139L971.597 290.285C969.831 297.179 966.061 303.396 960.764 308.151C955.215 313.267 948.614 317.106 941.423 319.4C933.849 322.006 925.768 322.795 917.834 321.703C910.525 320.65 903.516 318.083 897.257 314.166C890.913 310.153 885.388 304.975 880.974 298.905C876.288 292.561 872.668 285.497 870.254 277.989C867.806 270.549 866.632 262.748 866.781 254.917C866.881 247.464 868.369 240.096 871.169 233.187C874.008 226.2 878.371 219.934 883.939 214.844C889.506 209.755 896.139 205.97 903.354 203.766C910.386 201.236 917.946 200.539 925.32 201.742C931.052 202.71 936.559 204.714 941.571 207.656L942.02 207.51L919.771 139.035L955.868 127.306L1009.92 293.646L976.693 304.44Z" fill="black" stroke="white" stroke-width="2.5" stroke-miterlimit="10"/>
<path d="M1092.06 192.516C1090.42 187.061 1086.78 182.423 1081.88 179.517C1076.95 176.584 1070.89 176.285 1063.71 178.621C1060.39 179.652 1057.29 181.273 1054.56 183.405C1052.07 185.345 1049.96 187.714 1048.31 190.399C1046.75 192.992 1045.7 195.861 1045.22 198.849C1044.71 201.764 1044.84 204.754 1045.59 207.616L1092.06 192.516ZM1129.81 195.567L1131.27 200.057C1131.72 201.451 1132.1 202.87 1132.4 204.306L1053.04 230.091C1054.25 232.968 1056.12 235.522 1058.49 237.552C1060.87 239.559 1063.61 241.104 1066.55 242.107C1072.83 244.251 1079.64 244.304 1085.95 242.258C1091.03 240.782 1095.67 238.064 1099.45 234.348C1102.6 231.124 1104.99 227.233 1106.45 222.963L1136.71 230.557C1134 239.692 1128.91 247.939 1121.94 254.441C1114.09 261.637 1104.72 266.971 1094.53 270.05C1086.6 272.673 1078.29 273.931 1069.94 273.771C1062.04 273.654 1054.25 271.967 1047.02 268.808C1039.79 265.583 1033.34 260.825 1028.13 254.863C1022.31 248.119 1017.96 240.232 1015.37 231.707C1012.53 223.45 1011.38 214.704 1012.01 205.993C1012.62 198.105 1014.85 190.428 1018.56 183.436C1022.33 176.519 1027.45 170.431 1033.63 165.534C1040.16 160.281 1047.61 156.293 1055.61 153.775C1063.18 151.214 1071.18 150.141 1079.17 150.613C1086.58 151.094 1093.79 153.188 1100.31 156.75C1107.03 160.549 1112.92 165.67 1117.62 171.803C1123.08 178.923 1127.24 186.96 1129.9 195.537L1129.81 195.567Z" fill="black" stroke="white" stroke-width="2.5" stroke-miterlimit="10"/>
<path d="M371.281 430.038C371.006 435.991 370.203 441.909 368.881 447.721C367.704 452.878 365.69 457.808 362.92 462.316C360.061 466.789 356.346 470.654 351.988 473.687C346.717 477.305 340.923 480.092 334.806 481.951C331.306 483.084 327.739 484.002 324.127 484.701C320.87 485.357 317.569 485.774 314.251 485.949L308.342 454.31C310.453 454.315 312.561 454.161 314.649 453.849C316.691 453.575 318.706 453.128 320.672 452.513C326.242 450.703 329.862 448.112 331.532 444.74C333.352 440.658 334.319 436.247 334.373 431.779L334.982 421.652L254.188 328.762L294.261 315.741L341.577 378.207L342.228 377.995L341.14 300.509L379.438 288.066L371.281 430.038Z" fill="black" stroke="black" stroke-width="2.5" stroke-miterlimit="10"/>
<path d="M394.914 295.647L386.765 437.567C386.489 443.52 385.686 449.438 384.365 455.25C383.187 460.407 381.174 465.337 378.404 469.845C375.568 474.343 371.87 478.236 367.523 481.299C362.253 484.916 356.458 487.703 350.341 489.562C346.841 490.695 343.274 491.614 339.662 492.312C336.386 492.986 333.065 493.418 329.726 493.604L323.817 461.966C325.928 461.971 328.036 461.817 330.124 461.505C332.166 461.231 334.181 460.784 336.147 460.169C341.717 458.359 345.337 455.768 347.007 452.396C348.827 448.314 349.794 443.903 349.848 439.434L350.457 429.308L269.619 336.357L309.692 323.337L357.007 385.803L357.636 385.598L356.548 308.112L394.846 295.669" fill="black"/>
<path d="M394.914 295.647L386.765 437.567C386.489 443.52 385.686 449.438 384.365 455.25C383.187 460.407 381.174 465.337 378.404 469.845C375.568 474.343 371.87 478.236 367.523 481.299C362.253 484.916 356.458 487.703 350.341 489.562C346.841 490.695 343.274 491.614 339.662 492.312C336.386 492.986 333.065 493.418 329.726 493.604L323.817 461.966C325.928 461.971 328.036 461.817 330.124 461.505C332.166 461.231 334.181 460.784 336.147 460.169C341.717 458.359 345.337 455.768 347.007 452.396C348.827 448.314 349.794 443.903 349.848 439.434L350.457 429.308L269.619 336.357L309.692 323.337L357.007 385.803L357.636 385.598L356.548 308.112L394.846 295.669" stroke="#242424" stroke-width="2.5" stroke-miterlimit="10"/>
<path d="M410.366 303.309L402.306 445.274C402.043 451.268 401.244 457.225 399.92 463.077C398.743 468.234 396.729 473.165 393.959 477.673C391.124 482.171 387.426 486.063 383.079 489.126C377.808 492.744 372.013 495.531 365.897 497.389C362.396 498.523 358.83 499.441 355.218 500.139C351.942 500.814 348.621 501.246 345.282 501.432L339.373 469.793C341.484 469.798 343.592 469.644 345.68 469.333C347.721 469.059 349.736 468.611 351.702 467.996C357.273 466.186 360.893 463.595 362.562 460.223C364.414 456.057 365.377 451.551 365.39 446.993L365.999 436.867L285.184 343.983L325.256 330.963L372.587 393.399L373.238 393.187L372.18 315.717L410.366 303.309Z" fill="black" stroke="#494949" stroke-width="2.5" stroke-miterlimit="10"/>
<path d="M425.939 310.883L417.819 452.893C417.544 458.846 416.741 464.764 415.419 470.576C414.242 475.733 412.228 480.663 409.458 485.171C406.623 489.669 402.925 493.562 398.578 496.625C393.307 500.242 387.512 503.029 381.396 504.888C377.895 506.021 374.329 506.94 370.717 507.638C367.441 508.313 364.12 508.744 360.781 508.93L354.872 477.292C356.983 477.297 359.091 477.143 361.179 476.831C363.221 476.557 365.235 476.11 367.201 475.495C372.772 473.685 376.392 471.094 378.061 467.722C379.881 463.64 380.848 459.229 380.902 454.761L381.511 444.634L300.718 351.744L340.791 338.723L388.106 401.189L388.758 400.977L387.67 323.491L425.968 311.048" fill="black"/>
<path d="M425.939 310.883L417.819 452.893C417.544 458.846 416.741 464.764 415.419 470.576C414.242 475.733 412.228 480.663 409.458 485.171C406.623 489.669 402.925 493.562 398.578 496.625C393.307 500.242 387.512 503.029 381.396 504.888C377.895 506.021 374.329 506.94 370.717 507.638C367.441 508.313 364.12 508.744 360.781 508.93L354.872 477.292C356.983 477.297 359.091 477.143 361.179 476.831C363.221 476.557 365.235 476.11 367.201 475.495C372.772 473.685 376.392 471.094 378.061 467.722C379.881 463.64 380.848 459.229 380.902 454.761L381.511 444.634L300.718 351.744L340.791 338.723L388.106 401.189L388.758 400.977L387.67 323.491L425.968 311.048" stroke="#6D6D6D" stroke-width="2.5" stroke-miterlimit="10"/>
<path d="M441.453 318.502L433.333 460.511C433.058 466.465 432.255 472.382 430.933 478.194C429.756 483.352 427.742 488.282 424.972 492.79C422.137 497.288 418.439 501.18 414.091 504.243C408.821 507.861 403.026 510.648 396.909 512.507C393.409 513.64 389.843 514.558 386.23 515.257C382.955 515.931 379.634 516.363 376.295 516.549L370.385 484.911C372.496 484.916 374.605 484.762 376.692 484.45C378.734 484.176 380.749 483.729 382.715 483.114C388.286 481.304 391.906 478.713 393.575 475.341C395.395 471.258 396.362 466.848 396.416 462.379L397.025 452.253L316.232 359.362L356.304 346.342L403.62 408.808L404.271 408.596L403.183 331.11L441.481 318.666" fill="black"/>
<path d="M441.453 318.502L433.333 460.511C433.058 466.465 432.255 472.382 430.933 478.194C429.756 483.352 427.742 488.282 424.972 492.79C422.137 497.288 418.439 501.18 414.091 504.243C408.821 507.861 403.026 510.648 396.909 512.507C393.409 513.64 389.843 514.558 386.23 515.257C382.955 515.931 379.634 516.363 376.295 516.549L370.385 484.911C372.496 484.916 374.605 484.762 376.692 484.45C378.734 484.176 380.749 483.729 382.715 483.114C388.286 481.304 391.906 478.713 393.575 475.341C395.395 471.258 396.362 466.848 396.416 462.379L397.025 452.253L316.232 359.362L356.304 346.342L403.62 408.808L404.271 408.596L403.183 331.11L441.481 318.666" stroke="#929292" stroke-width="2.5" stroke-miterlimit="10"/>
<path d="M456.973 326.142L448.853 468.152C448.578 474.105 447.775 480.023 446.453 485.835C445.276 490.992 443.263 495.923 440.493 500.431C437.657 504.929 433.959 508.821 429.612 511.884C424.341 515.502 418.546 518.289 412.43 520.147C408.93 521.281 405.363 522.199 401.751 522.897C398.475 523.572 395.154 524.004 391.815 524.19L385.922 492.447C388.033 492.452 390.141 492.298 392.229 491.986C394.27 491.712 396.285 491.265 398.251 490.65C403.822 488.84 407.442 486.249 409.111 482.877C410.931 478.795 411.898 474.384 411.952 469.915L412.561 459.789L331.679 366.853L371.751 353.833L419.067 416.298L419.696 416.094L418.608 338.608L456.906 326.164" fill="black"/>
<path d="M456.973 326.142L448.853 468.152C448.578 474.105 447.775 480.023 446.453 485.835C445.276 490.992 443.263 495.923 440.493 500.431C437.657 504.929 433.959 508.821 429.612 511.884C424.341 515.502 418.546 518.289 412.43 520.147C408.93 521.281 405.363 522.199 401.751 522.897C398.475 523.572 395.154 524.004 391.815 524.19L385.922 492.447C388.033 492.452 390.141 492.298 392.229 491.986C394.27 491.712 396.285 491.265 398.251 490.65C403.822 488.84 407.442 486.249 409.111 482.877C410.931 478.795 411.898 474.384 411.952 469.915L412.561 459.789L331.679 366.853L371.751 353.833L419.067 416.298L419.696 416.094L418.608 338.608L456.906 326.164" stroke="#B6B6B6" stroke-width="2.5" stroke-miterlimit="10"/>
<path d="M472.42 333.782L464.3 475.792C464.024 481.746 463.221 487.663 461.9 493.475C460.722 498.632 458.709 503.563 455.939 508.071C453.103 512.569 449.405 516.461 445.058 519.524C439.788 523.142 433.993 525.929 427.876 527.787C424.376 528.921 420.809 529.839 417.197 530.537C413.921 531.212 410.601 531.644 407.261 531.83L401.352 500.191C403.463 500.196 405.571 500.042 407.659 499.731C409.701 499.457 411.716 499.01 413.682 498.394C419.252 496.584 422.872 493.993 424.542 490.621C426.362 486.539 427.329 482.128 427.383 477.66L427.992 467.534L347.199 374.643L387.339 361.601L434.648 423.895L435.299 423.683L434.234 346.19L472.42 333.782Z" fill="black" stroke="#DBDBDB" stroke-width="2.5" stroke-miterlimit="10"/>
<path d="M487.999 341.379L479.879 483.389C479.604 489.342 478.8 495.26 477.479 501.072C476.302 506.229 474.288 511.159 471.518 515.667C468.683 520.165 464.985 524.058 460.637 527.121C455.367 530.738 449.572 533.525 443.455 535.384C439.955 536.517 436.389 537.436 432.776 538.134C429.501 538.809 426.18 539.24 422.841 539.426L416.931 507.788C419.042 507.793 421.151 507.639 423.238 507.327C425.28 507.053 427.295 506.606 429.261 505.991C434.832 504.181 438.452 501.59 440.121 498.218C441.941 494.136 442.908 489.725 442.962 485.257L443.571 475.13L362.778 382.24L402.85 369.219L450.166 431.685L450.817 431.473L449.729 353.987L488.027 341.544" fill="black"/>
<path d="M487.999 341.379L479.879 483.389C479.604 489.342 478.8 495.26 477.479 501.072C476.302 506.229 474.288 511.159 471.518 515.667C468.683 520.165 464.985 524.058 460.637 527.121C455.367 530.738 449.572 533.525 443.455 535.384C439.955 536.517 436.389 537.436 432.776 538.134C429.501 538.809 426.18 539.24 422.841 539.426L416.931 507.788C419.042 507.793 421.151 507.639 423.238 507.327C425.28 507.053 427.295 506.606 429.261 505.991C434.832 504.181 438.452 501.59 440.121 498.218C441.941 494.136 442.908 489.725 442.962 485.257L443.571 475.13L362.778 382.24L402.85 369.219L450.166 431.685L450.817 431.473L449.729 353.987L488.027 341.544" stroke="white" stroke-width="2.5" stroke-miterlimit="10"/>
<path d="M239.565 369.206C235.574 367.328 231.316 366.082 226.942 365.514C222.413 364.894 217.802 365.314 213.459 366.742C210.218 367.757 207.24 369.47 204.734 371.761C203.589 372.735 202.772 374.039 202.396 375.494C202.02 376.949 202.102 378.484 202.632 379.891C203.072 381.368 203.982 382.662 205.225 383.576C206.467 384.489 207.974 384.972 209.516 384.951C215.106 385.225 220.708 385.064 226.272 384.471C230.812 384.017 235.38 383.919 239.934 384.177C244.479 384.428 248.961 385.347 253.237 386.904C257.452 388.435 261.3 390.828 264.535 393.931C268.056 397.455 270.638 401.804 272.048 406.581C274.159 412.238 274.75 418.349 273.762 424.306C272.774 430.262 270.24 435.857 266.415 440.53C262.774 445.019 258.374 448.835 253.415 451.804C248.358 454.893 242.957 457.381 237.322 459.217C228.38 462.123 219.027 463.561 209.625 463.475C200.785 463.555 192.043 461.616 184.067 457.805L197.346 429.886C201.949 432.399 206.978 434.038 212.178 434.722C217.577 435.55 223.095 435.092 228.283 433.386C231.297 432.385 234.039 430.704 236.298 428.473C237.466 427.378 238.273 425.954 238.612 424.39C238.951 422.825 238.806 421.195 238.195 419.715C237.678 418.058 236.654 416.605 235.268 415.56C233.881 414.514 232.202 413.929 230.466 413.887C224.419 413.44 218.343 413.545 212.315 414.2C208.124 414.562 203.913 414.628 199.714 414.397C195.538 414.198 191.425 413.312 187.538 411.776C183.652 410.214 180.124 407.882 177.165 404.92C173.827 401.466 171.376 397.254 170.023 392.646C167.923 386.816 167.476 380.519 168.73 374.45C169.986 369.072 172.423 364.041 175.864 359.721C179.384 355.297 183.622 351.495 188.401 348.474C193.161 345.411 198.292 342.968 203.671 341.204C211.856 338.538 220.413 337.191 229.02 337.212C237.195 337.122 245.287 338.86 252.701 342.301L239.565 369.206Z" fill="black" stroke="black" stroke-width="2.5" stroke-miterlimit="10"/>
<path d="M252.974 377.608C248.976 375.73 244.709 374.487 240.328 373.923C235.799 373.303 231.188 373.723 226.845 375.151C223.605 376.166 220.626 377.879 218.12 380.17C216.975 381.144 216.158 382.448 215.782 383.903C215.406 385.358 215.488 386.894 216.018 388.3C216.458 389.777 217.368 391.071 218.611 391.985C219.853 392.898 221.36 393.381 222.903 393.36C228.491 393.66 234.096 393.5 239.658 392.88C244.199 392.441 248.766 392.342 253.321 392.586C257.865 392.837 262.348 393.756 266.624 395.313C270.838 396.844 274.686 399.237 277.921 402.34C281.442 405.864 284.025 410.213 285.434 414.991C287.546 420.647 288.137 426.758 287.148 432.715C286.16 438.672 283.627 444.266 279.801 448.939C276.161 453.428 271.76 457.244 266.801 460.213C261.744 463.302 256.343 465.79 250.708 467.626C241.767 470.532 232.413 471.971 223.012 471.884C214.202 471.93 205.497 469.971 197.558 466.155L210.837 438.236C215.405 440.774 220.403 442.449 225.579 443.176C231.017 444.01 236.576 443.54 241.797 441.803C244.81 440.803 247.552 439.122 249.811 436.891C250.979 435.796 251.786 434.371 252.125 432.807C252.464 431.243 252.319 429.612 251.709 428.133C251.181 426.492 250.155 425.056 248.774 424.023C247.393 422.991 245.725 422.414 244.001 422.372C237.891 421.917 231.751 422.034 225.663 422.721C221.472 423.078 217.261 423.144 213.062 422.918C208.886 422.719 204.773 421.833 200.886 420.297C197.001 418.734 193.472 416.402 190.513 413.441C187.175 409.986 184.724 405.775 183.371 401.166C181.271 395.336 180.824 389.04 182.078 382.971C183.334 377.593 185.771 372.562 189.212 368.242C192.738 363.782 196.992 359.949 201.795 356.906C206.554 353.842 211.686 351.399 217.065 349.636C225.25 346.97 233.806 345.622 242.414 345.644C250.589 345.553 258.68 347.292 266.095 350.732L252.974 377.608Z" fill="black" stroke="#242424" stroke-width="2.5" stroke-miterlimit="10"/>
<path d="M266.389 386.032C262.391 384.154 258.124 382.911 253.743 382.347C249.214 381.727 244.603 382.147 240.26 383.575C237.02 384.59 234.041 386.303 231.535 388.594C230.39 389.568 229.574 390.872 229.197 392.327C228.821 393.782 228.904 395.317 229.434 396.724C229.851 398.216 230.747 399.53 231.984 400.464C233.22 401.398 234.729 401.901 236.28 401.896C241.868 402.196 247.473 402.035 253.035 401.416C257.576 400.976 262.143 400.878 266.698 401.122C271.242 401.373 275.724 402.292 280.001 403.849C284.215 405.379 288.063 407.773 291.298 410.876C294.819 414.4 297.402 418.749 298.811 423.526C300.922 429.182 301.514 435.294 300.525 441.25C299.537 447.207 297.004 452.801 293.178 457.475C289.56 461.895 285.202 465.654 280.299 468.585C275.242 471.675 269.841 474.163 264.206 475.998C255.264 478.905 245.911 480.343 236.509 480.256C227.669 480.337 218.927 478.397 210.951 474.586L224.23 446.667C228.798 449.206 233.795 450.88 238.972 451.607C244.37 452.435 249.888 451.977 255.077 450.271C258.09 449.27 260.833 447.589 263.091 445.358C264.252 444.257 265.051 442.828 265.38 441.263C265.71 439.697 265.555 438.068 264.937 436.593C264.409 434.952 263.383 433.516 262.002 432.483C260.621 431.451 258.953 430.874 257.229 430.832C251.182 430.377 245.106 430.481 239.078 431.144C234.887 431.502 230.677 431.568 226.477 431.342C222.302 431.143 218.188 430.257 214.301 428.72C210.416 427.158 206.887 424.826 203.928 421.864C200.59 418.41 198.139 414.199 196.786 409.59C194.724 403.745 194.318 397.443 195.612 391.38C196.869 386.003 199.306 380.972 202.747 376.652C206.266 372.227 210.504 368.425 215.284 365.405C220.044 362.341 225.175 359.898 230.554 358.135C238.739 355.469 247.296 354.121 255.903 354.143C264.043 354.034 272.105 355.739 279.503 359.134L266.389 386.032Z" fill="black" stroke="#494949" stroke-width="2.5" stroke-miterlimit="10"/>
<path d="M279.775 394.44C275.777 392.563 271.511 391.319 267.129 390.755C262.6 390.136 257.989 390.556 253.646 391.984C250.406 392.998 247.427 394.712 244.922 397.003C243.776 397.977 242.96 399.28 242.584 400.735C242.207 402.19 242.29 403.726 242.82 405.132C243.26 406.61 244.17 407.904 245.412 408.817C246.655 409.731 248.162 410.214 249.704 410.193C255.293 410.493 260.897 410.332 266.46 409.713C271 409.273 275.567 409.175 280.122 409.419C284.666 409.67 289.149 410.589 293.425 412.146C297.639 413.676 301.487 416.07 304.723 419.173C308.243 422.697 310.826 427.046 312.235 431.823C314.348 437.465 314.948 443.562 313.974 449.509C313.001 455.455 310.488 461.044 306.685 465.72C303.045 470.209 298.644 474.025 293.685 476.994C288.628 480.083 283.227 482.571 277.592 484.407C268.651 487.313 259.297 488.751 249.896 488.665C241.045 488.716 232.3 486.743 224.33 482.898L237.609 454.978C242.177 457.517 247.175 459.192 252.351 459.918C257.767 460.766 263.306 460.318 268.516 458.613C271.529 457.612 274.272 455.931 276.53 453.7C277.699 452.605 278.506 451.181 278.845 449.617C279.184 448.052 279.038 446.422 278.428 444.942C277.899 443.309 276.877 441.879 275.502 440.85C274.127 439.822 272.467 439.244 270.75 439.196C264.703 438.741 258.627 438.846 252.599 439.509C248.408 439.867 244.198 439.933 239.998 439.707C235.83 439.503 231.724 438.615 227.844 437.078C223.959 435.516 220.431 433.184 217.471 430.222C214.119 426.777 211.653 422.57 210.284 417.962C208.185 412.132 207.738 405.836 208.991 399.767C210.247 394.389 212.684 389.358 216.126 385.038C219.645 380.614 223.883 376.812 228.663 373.791C233.423 370.728 238.554 368.285 243.933 366.521C252.118 363.855 260.674 362.507 269.282 362.529C277.457 362.439 285.548 364.177 292.963 367.618L279.775 394.44Z" fill="black" stroke="#6D6D6D" stroke-width="2.5" stroke-miterlimit="10"/>
<path d="M293.182 402.842C289.184 400.964 284.918 399.721 280.537 399.157C276.008 398.537 271.397 398.958 267.054 400.386C263.813 401.4 260.835 403.114 258.329 405.405C257.184 406.379 256.367 407.682 255.991 409.137C255.615 410.592 255.697 412.128 256.227 413.534C256.667 415.012 257.577 416.306 258.819 417.219C260.062 418.132 261.569 418.615 263.111 418.595C268.7 418.895 274.304 418.734 279.867 418.115C284.429 417.664 289.019 417.559 293.597 417.799C298.141 418.05 302.623 418.968 306.9 420.526C311.133 422.052 315 424.449 318.25 427.561C321.75 431.088 324.314 435.434 325.71 440.203C327.82 445.851 328.413 451.953 327.432 457.903C326.45 463.852 323.927 469.441 320.115 474.115C316.474 478.604 312.074 482.419 307.114 485.388C302.057 488.478 296.657 490.966 291.022 492.801C282.08 495.708 272.727 497.146 263.325 497.06C254.484 497.14 245.743 495.201 237.767 491.39L251.046 463.47C255.614 466.009 260.611 467.683 265.788 468.41C271.186 469.238 276.704 468.78 281.893 467.074C284.906 466.074 287.649 464.393 289.907 462.162C291.075 461.067 291.883 459.642 292.221 458.078C292.56 456.514 292.415 454.883 291.805 453.404C291.277 451.763 290.251 450.327 288.87 449.294C287.489 448.262 285.821 447.685 284.097 447.643C278.05 447.188 271.974 447.292 265.946 447.956C261.755 448.313 257.545 448.379 253.345 448.153C249.17 447.954 245.056 447.068 241.169 445.531C237.285 443.942 233.764 441.582 230.819 438.594C227.481 435.139 225.03 430.928 223.677 426.319C221.578 420.489 221.13 414.193 222.384 408.124C223.64 402.746 226.077 397.715 229.518 393.395C233.038 388.97 237.276 385.169 242.056 382.148C246.815 379.085 251.947 376.641 257.325 374.878C265.51 372.212 274.067 370.864 282.675 370.886C290.85 370.796 298.941 372.534 306.356 375.974L293.182 402.842Z" fill="black" stroke="#929292" stroke-width="2.5" stroke-miterlimit="10"/>
<path d="M306.592 411.243C302.594 409.365 298.327 408.122 293.946 407.558C289.417 406.938 284.806 407.358 280.463 408.786C277.223 409.801 274.244 411.514 271.738 413.806C270.593 414.779 269.776 416.083 269.4 417.538C269.024 418.993 269.107 420.529 269.637 421.935C270.076 423.413 270.987 424.707 272.229 425.62C273.471 426.533 274.978 427.016 276.521 426.996C282.11 427.295 287.714 427.135 293.277 426.515C297.83 426.086 302.41 426.001 306.976 426.259C311.52 426.51 316.003 427.429 320.279 428.986C324.55 430.46 328.464 432.817 331.764 435.902C335.285 439.427 337.867 443.775 339.277 448.553C341.388 454.209 341.979 460.32 340.991 466.277C340.003 472.234 337.469 477.828 333.644 482.502C329.977 487.021 325.54 490.857 320.538 493.834C315.482 496.924 310.081 499.411 304.446 501.247C295.515 504.174 286.169 505.635 276.771 505.573C267.93 505.653 259.189 503.714 251.213 499.903L264.492 471.983C269.06 474.522 274.057 476.197 279.234 476.923C284.632 477.751 290.15 477.293 295.339 475.587C298.352 474.587 301.095 472.906 303.353 470.675C304.521 469.58 305.329 468.155 305.668 466.591C306.006 465.027 305.861 463.396 305.251 461.917C304.723 460.276 303.697 458.84 302.316 457.807C300.935 456.775 299.267 456.198 297.543 456.156C291.496 455.701 285.42 455.805 279.392 456.469C275.201 456.826 270.991 456.892 266.791 456.666C262.616 456.467 258.502 455.581 254.615 454.045C250.73 452.482 247.201 450.15 244.242 447.189C240.874 443.717 238.404 439.475 237.048 434.832C234.949 429.002 234.501 422.705 235.755 416.636C237.011 411.259 239.448 406.228 242.89 401.907C246.409 397.483 250.647 393.681 255.427 390.66C260.187 387.597 265.318 385.154 270.697 383.391C278.857 380.695 287.394 379.312 295.987 379.293C304.162 379.203 312.253 380.942 319.668 384.382L306.592 411.243Z" fill="black" stroke="#B6B6B6" stroke-width="2.5" stroke-miterlimit="10"/>
<path d="M319.971 419.555C315.973 417.677 311.707 416.434 307.325 415.87C302.796 415.25 298.185 415.671 293.842 417.099C290.602 418.113 287.623 419.827 285.117 422.118C283.972 423.092 283.156 424.395 282.779 425.85C282.403 427.305 282.486 428.841 283.016 430.247C283.455 431.725 284.366 433.019 285.608 433.932C286.851 434.845 288.357 435.328 289.9 435.308C295.489 435.608 301.093 435.447 306.656 434.828C311.196 434.388 315.763 434.29 320.318 434.534C324.862 434.785 329.345 435.703 333.621 437.261C337.835 438.791 341.683 441.185 344.919 444.288C348.439 447.812 351.022 452.161 352.431 456.938C354.543 462.594 355.134 468.705 354.145 474.662C353.157 480.619 350.624 486.213 346.798 490.887C343.158 495.376 338.758 499.191 333.798 502.16C328.741 505.25 323.34 507.738 317.706 509.573C308.785 512.502 299.449 513.968 290.061 513.914C281.22 513.994 272.478 512.055 264.502 508.244L277.781 480.325C282.349 482.863 287.347 484.538 292.523 485.264C297.921 486.093 303.439 485.635 308.628 483.929C311.641 482.928 314.384 481.247 316.643 479.016C317.811 477.921 318.618 476.497 318.957 474.932C319.296 473.368 319.15 471.738 318.54 470.258C318.012 468.617 316.987 467.181 315.606 466.149C314.225 465.117 312.556 464.539 310.832 464.497C304.785 464.042 298.709 464.147 292.681 464.81C288.491 465.168 284.28 465.234 280.08 465.007C275.905 464.808 271.791 463.922 267.904 462.386C264.019 460.824 260.49 458.492 257.531 455.53C254.193 452.076 251.743 447.864 250.389 443.256C248.29 437.426 247.842 431.129 249.096 425.06C250.352 419.683 252.789 414.651 256.231 410.331C259.76 405.847 264.025 401.994 268.844 398.935C273.603 395.872 278.735 393.429 284.113 391.666C292.298 389 300.855 387.652 309.463 387.674C317.638 387.583 325.729 389.322 333.144 392.762L319.971 419.555Z" fill="black" stroke="#DBDBDB" stroke-width="2.5" stroke-miterlimit="10"/>
<path d="M333.416 428.069C329.418 426.191 325.151 424.948 320.77 424.384C316.241 423.764 311.63 424.184 307.287 425.612C304.046 426.627 301.068 428.34 298.562 430.631C297.417 431.605 296.6 432.909 296.224 434.364C295.848 435.819 295.93 437.355 296.46 438.761C296.9 440.239 297.81 441.532 299.053 442.446C300.295 443.359 301.802 443.842 303.345 443.821C308.934 444.095 314.536 443.934 320.1 443.341C324.64 442.887 329.208 442.789 333.763 443.047C338.307 443.298 342.789 444.217 347.065 445.774C351.28 447.305 355.128 449.698 358.363 452.801C361.884 456.325 364.467 460.674 365.876 465.452C367.987 471.108 368.578 477.219 367.59 483.176C366.602 489.133 364.069 494.727 360.243 499.4C356.603 503.889 352.202 507.705 347.243 510.674C342.186 513.763 336.785 516.251 331.15 518.087C322.209 520.994 312.855 522.432 303.454 522.345C294.613 522.425 285.871 520.486 277.895 516.675L291.174 488.756C295.784 491.269 300.821 492.906 306.029 493.584C311.427 494.413 316.945 493.955 322.134 492.249C325.147 491.248 327.89 489.567 330.148 487.336C331.317 486.241 332.124 484.817 332.463 483.252C332.802 481.688 332.656 480.058 332.046 478.578C331.528 476.921 330.505 475.468 329.118 474.423C327.732 473.377 326.053 472.792 324.316 472.75C318.269 472.303 312.194 472.408 306.165 473.063C301.975 473.425 297.764 473.491 293.564 473.26C289.389 473.061 285.275 472.175 281.388 470.639C277.503 469.077 273.975 466.744 271.015 463.783C267.677 460.329 265.227 456.117 263.873 451.508C261.774 445.678 261.326 439.382 262.58 433.313C263.836 427.935 266.273 422.904 269.715 418.584C273.234 414.16 277.472 410.358 282.252 407.337C287.012 404.274 292.143 401.831 297.522 400.067C305.707 397.401 314.263 396.053 322.871 396.075C331.046 395.985 339.137 397.723 346.552 401.164L333.416 428.069Z" fill="black" stroke="white" stroke-width="2.5" stroke-miterlimit="10"/>
<path d="M124.549 430.927C123.412 427.41 121.723 424.096 119.546 421.109C117.452 418.169 114.815 415.656 111.776 413.706C108.519 411.663 104.842 410.383 101.019 409.961C97.1968 409.54 93.3283 409.988 89.703 411.272C85.8729 412.443 82.3722 414.498 79.4843 417.273C76.8341 419.849 74.7277 422.93 73.2899 426.335C71.8679 429.73 71.0682 433.352 70.9292 437.03C70.6016 444.508 72.9876 451.851 77.6477 457.708C79.9218 460.601 82.6982 463.062 85.8442 464.973C89.0075 466.883 92.5232 468.138 96.1821 468.663C100.149 469.211 104.19 468.816 107.976 467.512C111.886 466.335 115.464 464.254 118.42 461.438C121.038 458.91 123.076 455.842 124.39 452.449C125.678 449.025 126.317 445.392 126.272 441.735C126.253 438.065 125.672 434.42 124.549 430.927ZM159.545 419.556C161.996 427.025 163.219 434.842 163.167 442.703C163.161 450.208 161.735 457.645 158.964 464.621C156.201 471.468 152.04 477.663 146.747 482.813C140.988 488.375 134.002 492.507 126.354 494.875C119.719 497.054 112.692 497.771 105.754 496.977C99.3779 496.414 93.2686 494.157 88.0594 490.439L87.6102 490.585L108.699 555.491L72.6924 567.191L19.9292 404.802L54.274 393.643L58.6509 407.114L59.3023 406.902C61.569 400.898 65.0486 395.424 69.5243 390.823C74.8768 385.293 81.5618 381.232 88.9369 379.03C96.3486 376.509 104.234 375.695 112.003 376.648C119.267 377.566 126.248 380.028 132.479 383.87C138.803 387.815 144.338 392.902 148.801 398.871C153.52 405.113 157.152 412.106 159.545 419.556Z" fill="black" stroke="#111111" stroke-width="2.5" stroke-miterlimit="10"/>
<path d="M137.949 439.306C136.812 435.789 135.124 432.475 132.947 429.488C130.852 426.548 128.215 424.035 125.177 422.085C121.899 420.05 118.203 418.785 114.365 418.385C110.527 417.985 106.648 418.461 103.02 419.777C99.1904 420.948 95.6897 423.004 92.8018 425.778C90.1515 428.354 88.0452 431.436 86.6074 434.84C85.1853 438.235 84.3857 441.858 84.2466 445.535C83.9191 453.013 86.305 460.356 90.9651 466.213C93.2393 469.106 96.0156 471.567 99.1617 473.478C102.325 475.389 105.841 476.644 109.5 477.168C113.468 477.741 117.517 477.37 121.316 476.084C125.226 474.908 128.804 472.827 131.759 470.01C134.378 467.482 136.415 464.415 137.729 461.021C139.017 457.598 139.656 453.964 139.612 450.307C139.632 446.576 139.071 442.864 137.949 439.306ZM172.945 427.935C175.396 435.404 176.62 443.221 176.568 451.083C176.586 458.572 175.191 465.998 172.455 472.971C169.691 479.817 165.53 486.013 160.237 491.163C154.459 496.709 147.459 500.82 139.8 503.165C133.207 505.347 126.222 506.084 119.319 505.327C112.943 504.764 106.834 502.507 101.625 498.79L101.175 498.936L122.264 563.842L86.1002 575.592L33.3444 413.226L67.6892 402.067L72.0661 415.538L72.7175 415.326C74.9841 409.322 78.4638 403.848 82.9395 399.247C88.2999 393.672 95.0104 389.576 102.42 387.357C109.832 384.836 117.717 384.022 125.487 384.975C132.75 385.893 139.732 388.356 145.962 392.198C152.286 396.142 157.821 401.229 162.284 407.198C166.979 413.462 170.583 420.472 172.945 427.935Z" fill="black" stroke="#333333" stroke-width="2.5" stroke-miterlimit="10"/>
<path d="M151.365 447.73C150.228 444.213 148.54 440.899 146.362 437.913C144.268 434.972 141.631 432.459 138.593 430.509C135.335 428.466 131.658 427.186 127.836 426.764C124.013 426.343 120.145 426.791 116.519 428.075C112.689 429.246 109.189 431.302 106.301 434.076C103.65 436.652 101.544 439.734 100.106 443.138C98.6842 446.533 97.8846 450.156 97.7455 453.833C97.418 461.311 99.8039 468.654 104.464 474.511C106.738 477.404 109.515 479.865 112.661 481.776C115.824 483.687 119.34 484.942 122.998 485.466C126.965 486.014 131.006 485.62 134.793 484.315C138.703 483.138 142.281 481.057 145.236 478.241C147.846 475.763 149.891 472.754 151.234 469.416C152.523 465.993 153.161 462.359 153.117 458.702C153.106 454.976 152.514 451.274 151.365 447.73ZM186.361 436.359C188.812 443.828 190.036 451.645 189.983 459.507C189.977 467.012 188.551 474.448 185.781 481.424C183.04 488.252 178.91 494.437 173.653 499.587C167.875 505.133 160.874 509.244 153.216 511.589C146.623 513.771 139.638 514.508 132.735 513.751C126.359 513.188 120.249 510.931 115.04 507.214L114.591 507.36L135.68 572.266L99.516 584.016L46.7529 421.628L81.0752 410.476L85.4521 423.947L86.1035 423.735C88.3612 417.704 91.8415 412.204 96.3261 407.581C101.679 402.051 108.364 397.99 115.739 395.788C123.15 393.267 131.035 392.453 138.805 393.406C146.068 394.324 153.05 396.787 159.28 400.629C165.605 404.573 171.14 409.66 175.603 415.629C180.331 421.884 183.968 428.892 186.361 436.359Z" fill="black" stroke="#555555" stroke-width="2.5" stroke-miterlimit="10"/>
<path d="M164.751 456.138C163.614 452.622 161.925 449.308 159.748 446.321C157.654 443.381 155.017 440.868 151.978 438.917C148.716 436.903 145.041 435.651 141.227 435.253C137.413 434.855 133.558 435.321 129.949 436.618C126.119 437.789 122.618 439.845 119.73 442.619C117.08 445.196 114.973 448.277 113.536 451.681C112.114 455.076 111.314 458.699 111.175 462.377C110.847 469.854 113.233 477.197 117.893 483.054C120.168 485.948 122.944 488.409 126.09 490.319C129.255 492.256 132.778 493.534 136.45 494.077C140.417 494.625 144.457 494.23 148.244 492.925C152.154 491.749 155.732 489.668 158.687 486.852C161.306 484.324 163.343 481.256 164.657 477.863C165.946 474.439 166.584 470.806 166.54 467.149C166.52 463.408 165.916 459.693 164.751 456.138ZM199.747 444.767C202.198 452.237 203.421 460.054 203.369 467.915C203.363 475.42 201.937 482.857 199.166 489.833C196.403 496.679 192.242 502.875 186.949 508.025C181.171 513.571 174.17 517.682 166.512 520.027C159.919 522.209 152.933 522.946 146.031 522.189C139.655 521.626 133.545 519.369 128.336 515.652L127.887 515.798L148.976 580.704L112.902 592.425L60.1385 430.037L94.4833 418.877L98.8602 432.348L99.579 432.115C101.8 426.068 105.247 420.545 109.705 415.893C115.057 410.363 121.742 406.302 129.118 404.099C136.529 401.579 144.414 400.765 152.184 401.718C159.447 402.636 166.429 405.098 172.659 408.94C178.984 412.885 184.519 417.971 188.982 423.941C193.729 430.221 197.377 437.26 199.769 444.76L199.747 444.767Z" fill="black" stroke="#777777" stroke-width="2.5" stroke-miterlimit="10"/>
<path d="M178.16 464.54C177.024 461.065 175.348 457.79 173.194 454.835C171.1 451.895 168.462 449.382 165.424 447.431C162.167 445.388 158.49 444.108 154.667 443.687C150.845 443.265 146.976 443.713 143.351 444.997C139.485 446.149 135.947 448.2 133.028 450.983C130.413 453.537 128.33 456.584 126.901 459.948C125.479 463.343 124.68 466.966 124.541 470.643C124.213 478.121 126.599 485.464 131.259 491.321C133.533 494.214 136.31 496.675 139.456 498.586C142.593 500.566 146.099 501.892 149.762 502.485C153.729 503.033 157.77 502.639 161.556 501.334C165.466 500.157 169.044 498.076 172 495.26C174.618 492.732 176.655 489.664 177.969 486.271C179.258 482.847 179.896 479.214 179.852 475.557C179.865 471.819 179.294 468.102 178.16 464.54ZM213.156 453.169C215.607 460.638 216.831 468.455 216.779 476.317C216.772 483.822 215.346 491.258 212.576 498.234C209.812 505.081 205.651 511.277 200.358 516.427C194.58 521.972 187.58 526.084 179.921 528.428C173.328 530.61 166.343 531.348 159.44 530.59C153.099 529.997 147.031 527.728 141.858 524.017L141.409 524.163L162.498 589.069L126.311 600.826L73.5552 438.461L107.945 427.287L112.322 440.757L112.973 440.546C115.24 434.541 118.72 429.068 123.195 424.466C128.538 418.935 135.212 414.869 142.578 412.658C149.966 410.099 157.835 409.239 165.601 410.142C172.864 411.06 179.846 413.522 186.076 417.364C192.401 421.309 197.936 426.395 202.398 432.364C207.148 438.634 210.801 445.664 213.201 453.154L213.156 453.169Z" fill="black" stroke="#999999" stroke-width="2.5" stroke-miterlimit="10"/>
<path d="M191.568 472.942C190.454 469.43 188.791 466.117 186.64 463.125C184.546 460.185 181.909 457.672 178.871 455.721C175.613 453.678 171.936 452.398 168.114 451.977C164.291 451.555 160.423 452.003 156.797 453.287C152.967 454.458 149.467 456.514 146.579 459.288C143.928 461.865 141.822 464.946 140.384 468.35C138.962 471.745 138.162 475.368 138.023 479.046C137.696 486.523 140.082 493.866 144.742 499.723C147.016 502.617 149.792 505.078 152.938 506.988C156.102 508.899 159.617 510.154 163.276 510.679C167.243 511.227 171.284 510.832 175.071 509.527C178.981 508.351 182.558 506.27 185.514 503.453C188.133 500.925 190.17 497.858 191.484 494.464C192.762 491.094 193.41 487.518 193.395 483.915C193.359 480.184 192.743 476.482 191.568 472.942ZM226.564 461.571C229.015 469.04 230.239 476.857 230.187 484.719C230.18 492.224 228.754 499.66 225.984 506.636C223.22 513.483 219.059 519.679 213.766 524.828C207.988 530.374 200.988 534.485 193.329 536.83C186.736 539.012 179.751 539.75 172.848 538.992C166.472 538.429 160.363 536.172 155.154 532.455L154.704 532.601L175.794 597.507L139.742 609.221L86.9859 446.855L121.308 435.703L125.685 449.174L126.336 448.962C128.603 442.958 132.083 437.484 136.559 432.883C141.911 427.353 148.596 423.292 155.971 421.09C163.383 418.569 171.268 417.755 179.038 418.708C186.301 419.626 193.283 422.088 199.513 425.93C205.854 429.882 211.402 434.982 215.872 440.968C220.564 447.189 224.179 454.153 226.564 461.571Z" fill="black" stroke="#BBBBBB" stroke-width="2.5" stroke-miterlimit="10"/>
<path d="M204.984 481.366C203.847 477.849 202.158 474.535 199.981 471.548C197.887 468.608 195.25 466.095 192.211 464.144C188.954 462.102 185.277 460.822 181.454 460.4C177.632 459.979 173.763 460.427 170.138 461.711C166.308 462.882 162.807 464.937 159.919 467.712C157.305 470.309 155.237 473.403 153.837 476.812C152.415 480.207 151.615 483.83 151.476 487.507C151.148 494.985 153.534 502.328 158.194 508.185C160.469 511.078 163.245 513.539 166.391 515.45C169.554 517.361 173.07 518.616 176.729 519.14C180.696 519.688 184.737 519.294 188.523 517.989C192.433 516.812 196.011 514.731 198.967 511.915C201.585 509.387 203.622 506.319 204.936 502.926C206.225 499.502 206.863 495.869 206.819 492.212C206.768 488.523 206.149 484.865 204.984 481.366ZM239.98 469.995C242.424 477.467 243.64 485.287 243.58 493.15C243.573 500.655 242.147 508.091 239.377 515.067C236.613 521.914 232.452 528.11 227.16 533.26C221.382 538.805 214.381 542.917 206.722 545.261C200.138 547.425 193.167 548.15 186.279 547.386C179.903 546.823 173.794 544.566 168.584 540.849L168.135 540.995L189.253 605.991L153.157 617.719L100.372 455.264L134.716 444.105L139.093 457.575L139.745 457.364C142.011 451.359 145.491 445.886 149.967 441.284C155.319 435.754 162.004 431.693 169.379 429.491C176.791 426.97 184.676 426.156 192.446 427.109C199.709 428.027 206.691 430.49 212.921 434.332C219.266 438.247 224.827 443.309 229.318 449.258C234.013 455.522 237.617 462.532 239.98 469.995Z" fill="black" stroke="#DDDDDD" stroke-width="2.5" stroke-miterlimit="10"/>
<path d="M218.399 489.789C217.262 486.273 215.574 482.959 213.397 479.972C211.302 477.032 208.665 474.519 205.627 472.568C202.37 470.525 198.692 469.245 194.87 468.824C191.047 468.402 187.179 468.851 183.554 470.135C179.724 471.305 176.223 473.361 173.335 476.135C170.685 478.712 168.578 481.793 167.14 485.197C165.718 488.592 164.919 492.215 164.78 495.893C164.452 503.37 166.838 510.713 171.498 516.57C173.772 519.464 176.549 521.925 179.695 523.836C182.858 525.746 186.374 527.001 190.033 527.526C194 528.074 198.04 527.679 201.827 526.374C205.737 525.198 209.315 523.117 212.27 520.3C214.889 517.772 216.926 514.705 218.24 511.311C219.529 507.888 220.167 504.255 220.123 500.597C220.104 496.928 219.522 493.283 218.399 489.789ZM253.395 478.418C255.846 485.888 257.07 493.705 257.018 501.566C257.011 509.071 255.585 516.508 252.815 523.484C250.051 530.33 245.89 536.526 240.597 541.676C234.819 547.222 227.819 551.333 220.16 553.678C213.567 555.86 206.582 556.597 199.679 555.84C193.303 555.277 187.194 553.02 181.985 549.303L181.535 549.449L202.625 614.355L166.55 626.076L113.78 463.665L148.102 452.513L152.479 465.984L153.13 465.772C155.397 459.768 158.877 454.294 163.352 449.693C168.705 444.163 175.39 440.102 182.765 437.9C190.177 435.379 198.062 434.565 205.831 435.518C213.095 436.436 220.077 438.899 226.307 442.74C232.631 446.685 238.166 451.772 242.629 457.741C247.355 463.979 250.995 470.97 253.395 478.418Z" fill="black" stroke="white" stroke-width="2.5" stroke-miterlimit="10"/>
</g>
<defs>
<clipPath id="clip0">
<rect width="1123.85" height="318.946" fill="white" transform="translate(0 347.289) rotate(-18)"/>
</clipPath>
</defs>
</svg>
