<svg width="726" height="385" viewBox="0 0 726 385" fill="none" xmlns="http://www.w3.org/2000/svg">
<rect width="619.834" height="303.815" rx="25" transform="matrix(-1 0 0 1 620.816 81.1851)" fill="black"/>
<rect x="-2" y="2" width="615.834" height="299.815" rx="23" transform="matrix(-1 0 0 1 616.816 81.1851)" stroke="#EBEBEB" stroke-opacity="0.25" stroke-width="4"/>
<rect width="619.834" height="303.815" rx="25" transform="matrix(-1 0 0 1 645.898 62.7175)" fill="black"/>
<rect x="-2" y="2" width="615.834" height="299.815" rx="23" transform="matrix(-1 0 0 1 641.898 62.7175)" stroke="#EBEBEB" stroke-opacity="0.5" stroke-width="4"/>
<rect width="619.834" height="303.815" rx="25" transform="matrix(-1 0 0 1 671.898 42.7366)" fill="black"/>
<rect x="-2" y="2" width="615.834" height="299.815" rx="23" transform="matrix(-1 0 0 1 667.898 42.7366)" stroke="#EBEBEB" stroke-opacity="0.75" stroke-width="4"/>
<rect x="-2" y="2" width="615.834" height="299.815" rx="23" transform="matrix(-1 0 0 1 721.834 0)" fill="#F5F5F5" stroke="#EBEBEB" stroke-width="4"/>
</svg>
