<svg width="499" height="841" viewBox="0 0 499 841" fill="none" xmlns="http://www.w3.org/2000/svg">
<path d="M11.5754 823.598L0.914062 808.128L51.7923 483.614L52.5555 459.714L61.8061 432.739L76.4567 388.801L99.5832 354.114L121.172 346.402L125.797 333.301L138.123 321.739L141.986 307.089L160.487 274.714L173.588 250.051L182.838 237.714L195.176 216.127L219.066 210.738L246.818 200.714L281.508 174.502L310.034 158.314L331.623 147.526L355.512 136.738L383.264 124.401L407.94 119.001L422.579 117.464L426.441 134.426L421.041 163.714L420.266 176.051L403.315 192.238L397.14 207.651L396.377 230.776L398.689 253.127L388.664 260.064L379.217 256.41L376.523 271.731L367.85 276.252L370.545 283.871L360.912 289.364L372.476 297.839L389.439 316.339L400.227 341.002L420.266 351.801L445.706 388.801L464.207 422.714L479.632 449.69L487.333 491.315L494.271 540.652L496.584 588.44L498.133 637.777L495.046 686.34L485.021 717.94L475.007 755.715L465.756 774.99L437.23 778.065" stroke="white" stroke-opacity="0.8" stroke-width="1.5" stroke-miterlimit="10"/>
<path d="M81.4518 803.746L110.371 818.927L121.172 838.965M81.4518 803.746L88.7945 815.84M81.4518 803.746L62.5806 772.677L49.0632 722.889L45.6173 710.239L43.3047 593.84L51.7921 483.614L75.6817 519.458L125.404 539.114L150.843 541.427L186.689 522.927L210.972 503.27L239.88 491.315" stroke="white" stroke-opacity="0.8" stroke-width="1.5" stroke-miterlimit="10"/>
<path d="M361.688 352.564L379.414 366.439" stroke="white" stroke-opacity="0.8" stroke-width="1.5" stroke-miterlimit="10"/>
<path d="M304.634 798.115L303.096 787.315L304.634 734.902L306.946 665.527L312.346 609.252L332.385 595.377L349.349 571.489L358.969 563.303L364.762 558.377L377.875 559.927V569.94L389.438 588.44L392.514 602.315" stroke="white" stroke-opacity="0.8" stroke-width="1.5" stroke-miterlimit="10"/>
<path d="M377.875 569.94L364.763 558.377" stroke="white" stroke-opacity="0.8" stroke-width="1.5" stroke-miterlimit="10"/>
<path d="M327.621 371.747L321.84 387.206L331.09 392.698L342.365 379.69" stroke="white" stroke-opacity="0.8" stroke-width="1.5" stroke-miterlimit="10"/>
<path d="M326.315 389.807L318.799 397.184L318.082 404.549L326.754 407.879L335.566 403.682L347.279 392.27L354.795 391.252" stroke="white" stroke-opacity="0.8" stroke-width="1.5" stroke-miterlimit="10"/>
<path d="M299.581 310.604L297.847 320.143L292.643 339.083L287.729 355.987L280.791 377.378L279.346 389.807L280.745 394.19" stroke="white" stroke-opacity="0.8" stroke-width="1.5" stroke-miterlimit="10"/>
<path d="M296.933 451.239L241.036 403.833L209.815 392.27L199.408 364.52L179.809 289.445" stroke="white" stroke-opacity="0.8" stroke-width="1.5" stroke-miterlimit="10"/>
<path d="M106.902 499.802L120.778 513.677L140.436 527.552" stroke="white" stroke-opacity="0.8" stroke-width="1.5" stroke-miterlimit="10"/>
<path d="M61.8066 529.864L76.8388 540.27L110.372 555.302L150.844 541.427L117.31 529.864L94.1837 513.677L74.5262 491.708" stroke="white" stroke-opacity="0.8" stroke-width="1.5" stroke-miterlimit="10"/>
<path d="M94.1836 573.802L132.342 557.614L167.032 533.333" stroke="white" stroke-opacity="0.8" stroke-width="1.5" stroke-miterlimit="10"/>
<path d="M142.749 559.927L135.811 594.614L139.28 621.208L147.374 636.239" stroke="white" stroke-opacity="0.8" stroke-width="1.5" stroke-miterlimit="10"/>
<path d="M131.961 563.002L125.797 588.44L118.859 630.065L129.648 659.364L148.924 682.49L163.563 653.19L168.963 587.677L182.839 536.027L192.089 521.377" stroke="white" stroke-opacity="0.8" stroke-width="1.5" stroke-miterlimit="10"/>
<path d="M202.878 517.527L185.926 576.877L172.813 637.777L171.275 697.902L179.751 766.503L195.177 789.628H206.74L215.216 800.427H229.866L215.216 751.09L207.503 691.739L205.19 614.652L209.052 562.239" stroke="white" stroke-opacity="0.8" stroke-width="1.5" stroke-miterlimit="10"/>
<path d="M313.885 442.752L322.372 472.815L320.823 489.002L350.124 517.527L352.437 534.489L372.476 547.589L377.876 559.927" stroke="white" stroke-opacity="0.8" stroke-width="1.5" stroke-miterlimit="10"/>
<path d="M313.884 493.627L281.507 521.377L246.818 556.065L240.654 606.94L243.742 710.239" stroke="white" stroke-opacity="0.8" stroke-width="1.5" stroke-miterlimit="10"/>
<path d="M320.823 508.277L274.57 536.027L252.218 567.627L245.28 620.815" stroke="white" stroke-opacity="0.8" stroke-width="1.5" stroke-miterlimit="10"/>
<path d="M269.181 562.239L269.944 646.253L272.256 714.09L276.119 734.902H290.758L299.245 720.253" stroke="white" stroke-opacity="0.8" stroke-width="1.5" stroke-miterlimit="10"/>
<path d="M276.883 588.44L279.195 667.84" stroke="white" stroke-opacity="0.8" stroke-width="1.5" stroke-miterlimit="10"/>
<path d="M280.744 721.802L292.307 713.315L294.62 670.927L299.245 645.489L305.409 605.402" stroke="white" stroke-opacity="0.8" stroke-width="1.5" stroke-miterlimit="10"/>
<path d="M62.5811 590.752L74.919 660.128L89.5581 710.24L109.609 754.177L135.048 777.302" stroke="white" stroke-opacity="0.8" stroke-width="1.5" stroke-miterlimit="10"/>
<path d="M74.9186 660.127L73.3691 689.427V728.739L93.4198 771.128L128.873 800.427L168.188 815.84" stroke="white" stroke-opacity="0.8" stroke-width="1.5" stroke-miterlimit="10"/>
<path d="M78.7695 641.627L111.921 683.252L116.547 636.239" stroke="white" stroke-opacity="0.8" stroke-width="1.5" stroke-miterlimit="10"/>
<path d="M325.009 190.886L336.722 191.082L346.84 189.926L353.778 189.637H359.849L363.607 191.949L361.872 185.012L347.129 184.434L338.168 186.168L325.009 190.886Z" stroke="white" stroke-opacity="0.8" stroke-width="1.5" stroke-miterlimit="10"/>
<path d="M353.778 189.637L352.911 195.996L347.996 202.066L336.722 203.223L329.206 200.043L328.628 194.262L331.519 191.371" stroke="white" stroke-opacity="0.8" stroke-width="1.5" stroke-miterlimit="10"/>
<path d="M323.136 191.082L329.206 200.031L323.136 191.082Z" stroke="white" stroke-opacity="0.8" stroke-width="1.5" stroke-miterlimit="10"/>
<path d="M347.996 202.066L362.624 193.094L351.465 205.246L336.722 207.27L324.292 200.621L323.135 191.082L296.54 208.021L314.463 157.516L319.285 177.589H346.262L377.101 181.439L383.264 183.751L384.132 178.652L366.498 176.051L347.996 175.184L321.089 177.265L363.029 151.77L386.155 174.316" stroke="white" stroke-opacity="0.8" stroke-width="1.5" stroke-miterlimit="10"/>
<path d="M363.11 250.12L373.725 253.52L382.975 257.856L381.819 254.098L375.17 249.184L366.498 248.606L359.56 250.629L355.513 246.293L357.536 235.02L364.474 231.84L388.468 258.723V246.004L390.202 233.864L394.25 188.77L384.132 178.652L395.406 152.926L383.264 124.401" stroke="white" stroke-opacity="0.8" stroke-width="1.5" stroke-miterlimit="10"/>
<path d="M370.545 283.871L359.756 284.738L347.812 273.072L346.459 266.331L304.634 255.254L283.821 252.363L245.28 214.589L284.977 226.926" stroke="white" stroke-opacity="0.8" stroke-width="1.5" stroke-miterlimit="10"/>
<path d="M388.468 246.004L396.562 218.254" stroke="white" stroke-opacity="0.8" stroke-width="1.5" stroke-miterlimit="10"/>
<path d="M384.131 178.652L420.266 176.051" stroke="white" stroke-opacity="0.8" stroke-width="1.5" stroke-miterlimit="10"/>
<path d="M383.264 183.751L363.606 191.949L376.904 202.645L383.264 183.751Z" stroke="white" stroke-opacity="0.8" stroke-width="1.5" stroke-miterlimit="10"/>
<path d="M376.904 202.645L379.217 219.121L379.795 235.598L381.819 254.098" stroke="white" stroke-opacity="0.8" stroke-width="1.5" stroke-miterlimit="10"/>
<path d="M363.606 191.949L364.474 231.84" stroke="white" stroke-opacity="0.8" stroke-width="1.5" stroke-miterlimit="10"/>
<path d="M320.244 177.496L323.135 191.082" stroke="white" stroke-opacity="0.8" stroke-width="1.5" stroke-miterlimit="10"/>
<path d="M324.292 200.621L314.174 226.059" stroke="white" stroke-opacity="0.8" stroke-width="1.5" stroke-miterlimit="10"/>
<path d="M351.465 205.246L357.536 234.361L314.174 226.059L295.383 208.669L266.186 186.527L245.28 214.589L242.193 244.651L236.029 232.314L237.567 217.676" stroke="white" stroke-opacity="0.8" stroke-width="1.5" stroke-miterlimit="10"/>
<path d="M284.977 226.926L283.82 252.364L299.581 310.604" stroke="white" stroke-opacity="0.8" stroke-width="1.5" stroke-miterlimit="10"/>
<path d="M354.934 310.026L350.887 315.379L342.215 317.403L319.378 315.668L299.581 310.604L284.977 302.082L274.57 291.676L269.517 286.612L292.643 339.083L269.945 367.989L229.473 361.051L219.541 217.56L219.066 210.739L226.779 216.901L237.568 217.676L245.28 214.589" stroke="white" stroke-opacity="0.8" stroke-width="1.5" stroke-miterlimit="10"/>
<path d="M314.173 226.059L308.103 235.598L304.634 255.254L319.377 315.668L343.949 295.434" stroke="white" stroke-opacity="0.8" stroke-width="1.5" stroke-miterlimit="10"/>
<path d="M394.249 188.77L405.234 190.307L411.883 188.77L412.75 183.566" stroke="white" stroke-opacity="0.8" stroke-width="1.5" stroke-miterlimit="10"/>
<path d="M379.216 256.41L363.537 266.158L359.374 250.282" stroke="white" stroke-opacity="0.8" stroke-width="1.5" stroke-miterlimit="10"/>
<path d="M363.537 266.158L367.85 276.252L361.375 272.956L352.91 269.626L346.458 266.331L351.257 264.793L363.537 266.158ZM363.537 266.158L376.522 271.731" stroke="white" stroke-opacity="0.8" stroke-width="1.5" stroke-miterlimit="10"/>
<path d="M269.517 286.612L269.945 367.989L219.066 210.739L242.193 244.651L269.517 286.612Z" stroke="white" stroke-opacity="0.8" stroke-width="1.5" stroke-miterlimit="10"/>
<path d="M141.986 307.089L179.809 289.445L229.474 361.051L209.816 392.27L269.945 367.989L280.71 414.933L280.745 394.189L289.996 402.676L306.947 420.402L319.285 438.127L313.885 442.752H302.322L296.934 451.239L285.37 474.364L263.007 488.239L249.131 485.927L239.881 491.315L219.841 492.089H210.591L172.814 495.94L115.772 495.177L90.3332 481.302L70.2941 467.427L61.8066 456.627V432.739" stroke="white" stroke-opacity="0.8" stroke-width="1.5" stroke-miterlimit="10"/>
<path d="M239.88 491.315L238.342 445.064L209.816 392.27L121.172 346.401L179.809 289.444L195.419 235.679L219.066 210.738L214.441 202.066H184.955L195.177 216.126L154.312 196.285" stroke="white" stroke-opacity="0.8" stroke-width="1.5" stroke-miterlimit="10"/>
<path d="M115.772 495.176L129.648 435.814L121.172 346.401L88.7951 406.527L70.2939 467.426" stroke="white" stroke-opacity="0.8" stroke-width="1.5" stroke-miterlimit="10"/>
<path d="M172.813 495.94L182.064 425.027L165.112 369.527L238.342 445.065L241.037 403.833L280.745 418.864L302.322 442.752" stroke="white" stroke-opacity="0.8" stroke-width="1.5" stroke-miterlimit="10"/>
<path d="M76.457 388.801L88.795 406.527L129.648 435.814L182.064 425.027L238.342 445.065L296.933 451.239" stroke="white" stroke-opacity="0.8" stroke-width="1.5" stroke-miterlimit="10"/>
<path d="M312.347 609.252L411.791 659.364L402.54 647.027L394.065 620.052L392.515 602.315L405.628 577.652L414.104 533.714L417.191 482.065L420.267 454.315L412.566 445.839L394.828 435.815L372.476 415.777L360.138 399.589L350.124 383.402L323.91 369.527L306.947 354.114L305.409 341.002L315.435 335.614L335.474 348.714L322.372 354.114L323.91 369.527" stroke="white" stroke-opacity="0.8" stroke-width="1.5" stroke-miterlimit="10"/>
<path d="M356.38 565.419L389.439 588.44L361.872 600.685L339.324 622.653L313.885 713.315L352.622 712.263L411.791 659.364L361.872 600.685L349.349 571.489" stroke="white" stroke-opacity="0.8" stroke-width="1.5" stroke-miterlimit="10"/>
<path d="M357.247 632.481L315.619 711.974L411.791 659.364L414.878 721.802L420.267 758.027L437.23 778.065L424.129 777.302L390.202 764.19L353.974 740.302L333.161 724.114" stroke="white" stroke-opacity="0.8" stroke-width="1.5" stroke-miterlimit="10"/>
<path d="M305.409 341.002L322.372 354.114L354.75 373.377L372.476 415.777" stroke="white" stroke-opacity="0.8" stroke-width="1.5" stroke-miterlimit="10"/>
<path d="M322.372 354.114L315.435 335.614" stroke="white" stroke-opacity="0.8" stroke-width="1.5" stroke-miterlimit="10"/>
<path d="M339.324 343.314L364.763 344.864L357.062 359.502" stroke="white" stroke-opacity="0.8" stroke-width="1.5" stroke-miterlimit="10"/>
<path d="M318.082 404.55L328.2 395.589L340.48 387.495L348.991 384.199L335.566 403.682" stroke="white" stroke-opacity="0.8" stroke-width="1.5" stroke-miterlimit="10"/>
<path d="M326.755 407.879L328.2 395.588" stroke="white" stroke-opacity="0.8" stroke-width="1.5" stroke-miterlimit="10"/>
<path d="M331.091 392.698L333.403 374.637" stroke="white" stroke-opacity="0.8" stroke-width="1.5" stroke-miterlimit="10"/>
<path d="M344.816 353.385L364.763 344.864L370.406 341.395" stroke="white" stroke-opacity="0.8" stroke-width="1.5" stroke-miterlimit="10"/>
<path d="M334.698 270.089L344.388 280.981L360.912 289.364L350.887 278.564L343.186 264.689L334.698 270.089ZM334.698 270.089L336.248 284.739L350.887 304.002L360.137 317.114L364.763 327.902L353.199 333.301L339.324 343.314L335.473 348.714L357.062 359.502L368.625 366.439H379.413L375.563 353.339L364.763 327.902" stroke="white" stroke-opacity="0.8" stroke-width="1.5" stroke-miterlimit="10"/>
<path d="M360.138 317.114L380.662 319.854L389.439 316.339" stroke="white" stroke-opacity="0.8" stroke-width="1.5" stroke-miterlimit="10"/>
<path d="M336.248 284.739L380.662 319.854" stroke="white" stroke-opacity="0.8" stroke-width="1.5" stroke-miterlimit="10"/>
<path d="M344.389 280.981L380.663 319.854L392.376 355.12L379.414 366.439L411.791 400.364L449.175 450.464L454.193 555.302L434.917 647.027L411.791 659.364" stroke="white" stroke-opacity="0.8" stroke-width="1.5" stroke-miterlimit="10"/>
<path d="M368.625 366.439L354.749 373.377L396.377 403.44L434.917 452.777L412.565 445.839" stroke="white" stroke-opacity="0.8" stroke-width="1.5" stroke-miterlimit="10"/>
<path d="M405.627 577.652L454.193 555.302L486.57 654.739L495.045 686.34" stroke="white" stroke-opacity="0.8" stroke-width="1.5" stroke-miterlimit="10"/>
<path d="M420.267 454.315L449.175 450.464L479.632 449.69L392.376 355.12" stroke="white" stroke-opacity="0.8" stroke-width="1.5" stroke-miterlimit="10"/>
<path d="M389.624 431.583L396.377 403.439L406.969 396.317L421.423 385.911L420.267 351.801L392.376 355.12L400.228 341.002" stroke="white" stroke-opacity="0.8" stroke-width="1.5" stroke-miterlimit="10"/>
<path d="M434.917 452.777L488.536 502.761L452.112 514.902L418.659 482.065L454.193 555.302L496.584 588.44L486.57 654.739L461.131 724.114L435.692 724.878L434.917 647.027L392.515 602.315" stroke="white" stroke-opacity="0.8" stroke-width="1.5" stroke-miterlimit="10"/>
<path d="M479.632 449.689L449.753 468.004" stroke="white" stroke-opacity="0.8" stroke-width="1.5" stroke-miterlimit="10"/>
<path d="M449.175 450.464L421.423 385.911" stroke="white" stroke-opacity="0.8" stroke-width="1.5" stroke-miterlimit="10"/>
<path d="M434.917 647.027L486.57 654.739" stroke="white" stroke-opacity="0.8" stroke-width="1.5" stroke-miterlimit="10"/>
<path d="M167.031 108.41L172.813 98.0039L180.907 102.629L186.689 115.348L182.063 122.285L167.031 108.41Z" stroke="white" stroke-opacity="0.8" stroke-width="1.5" stroke-miterlimit="10"/>
<path d="M128.295 181.254L116.731 192.816" stroke="white" stroke-opacity="0.8" stroke-width="1.5" stroke-miterlimit="10"/>
<path d="M111.528 202.645L116.732 192.817L101.699 179.52L100.543 154.082L104.012 134.426L113.841 128.645L127.138 135.004L131.764 154.66L121.935 145.988L113.841 136.738V155.238V170.848" stroke="white" stroke-opacity="0.8" stroke-width="1.5" stroke-miterlimit="10"/>
<path d="M132.92 236.754L135.811 219.988L137.545 209.004L132.92 196.863L128.873 176.629L131.764 154.66L138.124 135.004" stroke="white" stroke-opacity="0.8" stroke-width="1.5" stroke-miterlimit="10"/>
<path d="M110.95 292.832L124.248 297.457L130.608 309.02L133.499 317.692L131.186 329.254" stroke="white" stroke-opacity="0.8" stroke-width="1.5" stroke-miterlimit="10"/>
<path d="M125.797 333.301L109.215 341.973L102.855 336.192L106.324 325.207L112.106 329.254L119.044 321.739L113.841 315.957" stroke="white" stroke-opacity="0.8" stroke-width="1.5" stroke-miterlimit="10"/>
<path d="M137.546 209.004L139.859 227.504L146.218 241.957L153.734 256.41L160.487 274.714" stroke="white" stroke-opacity="0.8" stroke-width="1.5" stroke-miterlimit="10"/>
<path d="M136.389 231.551V251.785L144.483 270.285L149.108 281.848L150.843 292.254" stroke="white" stroke-opacity="0.8" stroke-width="1.5" stroke-miterlimit="10"/>
<path d="M127.139 259.879L131.764 272.02L141.593 281.848L145.062 292.832" stroke="white" stroke-opacity="0.8" stroke-width="1.5" stroke-miterlimit="10"/>
<path d="M120.778 270.864L128.873 278.379L139.279 294.567L139.858 302.66" stroke="white" stroke-opacity="0.8" stroke-width="1.5" stroke-miterlimit="10"/>
<path d="M115.575 278.379L123.091 287.051L130.607 298.035" stroke="white" stroke-opacity="0.8" stroke-width="1.5" stroke-miterlimit="10"/>
<path d="M180.907 102.629L189.58 91.6445L200.565 84.707L205.768 86.4414L205.19 100.895L198.9 111.058L197.674 113.035L186.689 115.348" stroke="white" stroke-opacity="0.8" stroke-width="1.5" stroke-miterlimit="10"/>
<path d="M138.701 184.145L142.17 163.91L145.639 152.348L147.952 134.426L163.562 119.973L167.031 108.41" stroke="white" stroke-opacity="0.8" stroke-width="1.5" stroke-miterlimit="10"/>
<path d="M220.801 88.1758L234.677 92.8008L238.724 103.207L235.833 111.301L217.91 104.941" stroke="white" stroke-opacity="0.8" stroke-width="1.5" stroke-miterlimit="10"/>
<path d="M260.116 93.9568L267.909 77.8849L269.366 74.8787L264.163 67.9412L252.022 77.7693L234.677 92.8006L238.724 103.207L260.116 93.9568Z" stroke="white" stroke-opacity="0.8" stroke-width="1.5" stroke-miterlimit="10"/>
<path d="M173.588 250.051L169.344 239.067L160.672 225.77L150.265 211.895L147.374 182.988V165.645L145.64 152.348" stroke="white" stroke-opacity="0.8" stroke-width="1.5" stroke-miterlimit="10"/>
<path d="M163.563 143.676L156.625 145.988L153.734 155.238L147.374 165.645" stroke="white" stroke-opacity="0.8" stroke-width="1.5" stroke-miterlimit="10"/>
<path d="M147.374 182.988L154.312 196.285L162.984 197.441L157.203 181.832L153.734 155.238" stroke="white" stroke-opacity="0.8" stroke-width="1.5" stroke-miterlimit="10"/>
<path d="M156.625 145.988L164.141 156.395L164.719 172.004L177.439 171.426L186.111 176.051L198.831 169.113L208.66 173.738L217.91 178.941L231.208 165.645H253.178L267.632 167.957L284.399 162.754L304.056 161.598" stroke="white" stroke-opacity="0.8" stroke-width="1.5" stroke-miterlimit="10"/>
<path d="M159.516 169.691L162.985 178.941L172.813 179.52L184.377 187.613L199.987 181.254L216.176 186.457L230.63 181.254L243.349 176.629L257.225 181.832L281.508 174.501" stroke="white" stroke-opacity="0.8" stroke-width="1.5" stroke-miterlimit="10"/>
<path d="M162.984 197.441L184.955 202.066L201.143 195.129L214.441 202.066L235.833 195.129L252.599 189.926L266.186 186.365L284.977 226.926L308.103 235.598L355.512 246.293" stroke="white" stroke-opacity="0.8" stroke-width="1.5" stroke-miterlimit="10"/>
<path d="M150.265 211.895L173.969 220.567L195.176 216.127L195.419 235.679L221.379 252.364L232.942 259.301L269.516 286.612" stroke="white" stroke-opacity="0.8" stroke-width="1.5" stroke-miterlimit="10"/>
<path d="M182.063 122.285L189.58 135.582L196.518 136.16L210.393 125.754L197.674 113.035L209.237 112.457L217.91 104.941L223.113 81.8162L219.644 74.3005L205.768 86.4412" stroke="white" stroke-opacity="0.8" stroke-width="1.5" stroke-miterlimit="10"/>
<path d="M235.833 111.301L243.927 125.176L234.098 128.066L210.394 125.754L228.895 137.895L244.505 136.738L257.225 122.863H273.991L286.133 133.27L300.009 122.285L319.088 115.348L333.253 116.215L347.418 113.613L341.058 104.941L335.855 100.316" stroke="white" stroke-opacity="0.8" stroke-width="1.5" stroke-miterlimit="10"/>
<path d="M328.917 81.8164L338.745 82.3946L358.981 70.2539L352.043 66.207L328.917 81.8164ZM328.917 81.8164L313.306 81.2383L317.931 76.6133L316.775 69.6758L305.212 76.6133V84.1289L298.274 84.7071L281.507 89.3321L306.368 100.895L319.088 115.348L306.946 117.66L280.929 117.082L259.537 106.098L260.115 93.9571L281.507 89.3321L293.649 77.7696L295.961 62.1602L279.195 69.0977L267.909 77.8852" stroke="white" stroke-opacity="0.8" stroke-width="1.5" stroke-miterlimit="10"/>
<path d="M309.259 104.941L324.291 108.699L335.565 105.231L336.144 96.5586L323.135 86.4414L312.728 84.707L305.212 84.1289L313.306 81.2383" stroke="white" stroke-opacity="0.8" stroke-width="1.5" stroke-miterlimit="10"/>
<path d="M323.136 86.4414L328.339 87.0195L339.613 93.9571L357.536 106.098L378.35 110.723L389.335 109.566L379.796 96.2696L363.896 87.5977L353.744 83.6317L352.044 82.9727L338.746 82.3945" stroke="white" stroke-opacity="0.8" stroke-width="1.5" stroke-miterlimit="10"/>
<path d="M440.502 87.0195L437.9 93.0899L429.517 91.0664L428.938 99.4492L420.555 98.0039L415.063 101.184L396.85 97.7149L379.217 89.9102L362.45 82.1055L352.043 82.9727" stroke="white" stroke-opacity="0.8" stroke-width="1.5" stroke-miterlimit="10"/>
<path d="M358.981 70.2537L367.365 59.8474L384.999 58.4021L389.335 60.7146L380.952 69.0974L401.765 71.699L408.703 74.8787V62.1599L421.423 56.9568L431.83 62.738" stroke="white" stroke-opacity="0.8" stroke-width="1.5" stroke-miterlimit="10"/>
<path d="M424.603 87.5977L421.712 80.082L408.703 74.8789" stroke="white" stroke-opacity="0.8" stroke-width="1.5" stroke-miterlimit="10"/>
<path d="M362.45 82.1055L370.834 76.6133L390.491 81.5273L407.836 80.082L409.281 85.8633L390.78 87.8867L380.084 84.707L371.99 82.1055L370.834 76.6133" stroke="white" stroke-opacity="0.8" stroke-width="1.5" stroke-miterlimit="10"/>
<path d="M172.813 98.0039L168.188 92.8008L162.406 94.5352L167.031 108.41L158.359 111.879L142.17 113.035L120.2 112.457L101.121 124.02L88.4014 159.285L97.652 188.77L111.528 202.645L103.434 215.942L107.481 226.348L114.419 233.285H124.247L132.92 236.754L127.138 252.364L120.778 264.504L110.95 278.379V292.832L104.59 302.082L113.84 315.957L101.121 318.27L88.4014 336.77L99.583 354.114" stroke="white" stroke-opacity="0.8" stroke-width="1.5" stroke-miterlimit="10"/>
<path d="M433.275 91.6444L438.189 98.5819L441.369 106.387L441.658 114.191L449.174 109.566L443.971 95.6913L440.502 87.0194L428.939 77.7694L434.142 70.8319L431.829 62.7381L437.611 55.2224V46.5506L435.877 39.0349L427.782 39.613L421.133 43.949L417.375 46.2615L414.485 58.2056L411.016 50.0193L398.296 48.2849L393.15 42.5962" stroke="white" stroke-opacity="0.8" stroke-width="1.5" stroke-miterlimit="10"/>
<path d="M168.767 157.551V163.332L176.283 163.91L189.58 167.957L208.66 162.176L218.489 169.113L234.099 155.238L262.429 162.754L278.039 153.504L297.697 155.816L309.838 145.988L332.386 141.363L339.903 142.52L363.029 151.77L395.406 152.926L422.58 154.66L441.659 114.191" stroke="white" stroke-opacity="0.8" stroke-width="1.5" stroke-miterlimit="10"/>
<path d="M355.512 136.738L341.058 132.691L329.495 130.957L318.509 131.535L301.165 141.941L292.492 147.145L279.194 142.52L263.006 140.207L257.802 144.832L251.443 151.191L232.941 146.566L223.113 152.348L215.018 159.863L201.143 149.457" stroke="white" stroke-opacity="0.8" stroke-width="1.5" stroke-miterlimit="10"/>
<path d="M319.088 115.348L331.229 124.598H347.996L367.654 119.973H387.889L401.187 113.035L422.579 117.464L395.405 152.926" stroke="white" stroke-opacity="0.8" stroke-width="1.5" stroke-miterlimit="10"/>
<path d="M437.9 93.0898L432.986 112.457L422.579 117.464L420.556 98.0039L428.939 99.4492" stroke="white" stroke-opacity="0.8" stroke-width="1.5" stroke-miterlimit="10"/>
<path d="M379.795 96.2695L397.718 103.207L401.187 113.035" stroke="white" stroke-opacity="0.8" stroke-width="1.5" stroke-miterlimit="10"/>
<path d="M163.562 119.973L172.235 125.176L167.61 143.098L171.079 153.504L187.267 161.02L201.143 149.457L196.518 136.16L186.111 140.785L182.064 149.457L187.267 161.02" stroke="white" stroke-opacity="0.8" stroke-width="1.5" stroke-miterlimit="10"/>
<path d="M244.505 136.738L249.13 138.473L251.443 151.191L262.428 162.754L257.225 181.832" stroke="white" stroke-opacity="0.8" stroke-width="1.5" stroke-miterlimit="10"/>
<path d="M286.133 133.27L292.493 147.145L297.696 155.816" stroke="white" stroke-opacity="0.8" stroke-width="1.5" stroke-miterlimit="10"/>
<path d="M352.437 534.489L327.761 539.114L304.635 562.239L293.071 585.364" stroke="white" stroke-opacity="0.8" stroke-width="1.5" stroke-miterlimit="10"/>
<path d="M172.813 98.004L181.683 74.1042" stroke="white" stroke-opacity="0.8" stroke-width="1.5" stroke-miterlimit="10"/>
<path d="M393.093 42.8159L383.843 32.6756L362.451 18.2224L327.183 5.50367L289.024 0.878662L252.6 5.50367L222.536 21.1131L192.471 43.66L181.683 74.1041" stroke="white" stroke-opacity="0.8" stroke-width="1.5" stroke-miterlimit="10"/>
<path d="M343.428 240.258C340.491 246.108 334.062 250.016 329.807 246.883C326.234 244.247 325.864 237.864 325.818 236.604C325.39 226.117 337.589 213.062 337.589 213.062C337.589 213.062 348.505 230.025 343.428 240.258Z" fill="#FF0099"/>
</svg>
