<svg width="1024" height="3625" viewBox="0 0 1024 3625" fill="none" xmlns="http://www.w3.org/2000/svg">
<g clip-path="url(#clip0)">
<rect width="1024" height="3625" fill="black"/>
<path d="M695.3 750.476V749.659H715.338V750.476H695.3ZM695.3 757.829V757.012H715.338V757.829H695.3Z" fill="white"/>
<path d="M860.3 3389.96V3389.14H880.338V3389.96H860.3ZM860.3 3397.31V3396.5H880.338V3397.31H860.3Z" fill="white"/>
<path d="M953.9 993.095C953.413 993.095 952.968 993.167 952.567 993.31C952.166 993.454 951.822 993.712 951.535 994.084C951.248 994.428 951.019 994.93 950.847 995.589C950.675 996.22 950.589 997.037 950.589 998.04V1006.43C950.589 1007.43 950.474 1008.27 950.245 1008.96C950.016 1009.65 949.7 1010.19 949.299 1010.6C948.898 1011.03 948.41 1011.33 947.837 1011.5C947.292 1011.7 946.69 1011.8 946.031 1011.8H944.01V1010.98H946.031C947.292 1010.98 948.21 1010.58 948.783 1009.78C949.356 1009.01 949.643 1007.89 949.643 1006.43V997.997C949.643 996.191 949.915 994.901 950.46 994.127C951.005 993.353 951.693 992.895 952.524 992.751V992.665C951.693 992.522 951.005 992.063 950.46 991.289C949.915 990.515 949.643 989.225 949.643 987.419V978.991C949.643 977.529 949.356 976.411 948.783 975.637C948.21 974.835 947.292 974.433 946.031 974.433H944.01V973.616H946.031C947.35 973.616 948.439 974.018 949.299 974.82C950.159 975.594 950.589 976.985 950.589 978.991V987.376C950.589 988.38 950.675 989.211 950.847 989.87C951.019 990.501 951.248 991.003 951.535 991.375C951.822 991.719 952.166 991.963 952.567 992.106C952.968 992.25 953.413 992.321 953.9 992.321V993.095Z" fill="white"/>
<path d="M905.9 2478C905.413 2478 904.968 2478.07 904.567 2478.22C904.166 2478.36 903.822 2478.62 903.535 2478.99C903.248 2479.34 903.019 2479.84 902.847 2480.5C902.675 2481.13 902.589 2481.94 902.589 2482.95V2491.33C902.589 2492.34 902.474 2493.18 902.245 2493.87C902.016 2494.56 901.7 2495.1 901.299 2495.5C900.898 2495.93 900.41 2496.24 899.837 2496.41C899.292 2496.61 898.69 2496.71 898.031 2496.71H896.01V2495.89H898.031C899.292 2495.89 900.21 2495.49 900.783 2494.69C901.356 2493.91 901.643 2492.8 901.643 2491.33V2482.9C901.643 2481.1 901.915 2479.81 902.46 2479.03C903.005 2478.26 903.693 2477.8 904.524 2477.66V2477.57C903.693 2477.43 903.005 2476.97 902.46 2476.2C901.915 2475.42 901.643 2474.13 901.643 2472.33V2463.9C901.643 2462.44 901.356 2461.32 900.783 2460.54C900.21 2459.74 899.292 2459.34 898.031 2459.34H896.01V2458.52H898.031C899.35 2458.52 900.439 2458.93 901.299 2459.73C902.159 2460.5 902.589 2461.89 902.589 2463.9V2472.28C902.589 2473.29 902.675 2474.12 902.847 2474.78C903.019 2475.41 903.248 2475.91 903.535 2476.28C903.822 2476.63 904.166 2476.87 904.567 2477.01C904.968 2477.16 905.413 2477.23 905.9 2477.23V2478Z" fill="white"/>
<path d="M575.3 1068.79V1067.76L595.338 1058.13V1058.99L575.816 1068.28L595.338 1077.56V1078.42L575.3 1068.79Z" fill="white"/>
<path d="M923.254 642.212L922.136 650.64H926.952V651.371H922.05L920.76 661.691H919.943L921.233 651.371H913.837L912.547 661.691H911.73L913.02 651.371H908.247V650.64H913.106L914.267 642.212H909.494V641.481H914.353L915.643 631.247H916.46L915.127 641.481H922.523L923.856 631.247H924.673L923.34 641.481H928.156V642.212H923.254ZM915.084 642.212L913.966 650.64H921.319L922.437 642.212H915.084Z" fill="white"/>
<path d="M232.254 1161.69L231.136 1170.12H235.952V1170.85H231.05L229.76 1181.17H228.943L230.233 1170.85H222.837L221.547 1181.17H220.73L222.02 1170.85H217.247V1170.12H222.106L223.267 1161.69H218.494V1160.96H223.353L224.643 1150.73H225.46L224.127 1160.96H231.523L232.856 1150.73H233.673L232.34 1160.96H237.156V1161.69H232.254ZM224.084 1161.69L222.966 1170.12H230.319L231.437 1161.69H224.084Z" fill="white"/>
<path d="M600.254 2186.52L599.136 2194.95H603.952V2195.68H599.05L597.76 2206H596.943L598.233 2195.68H590.837L589.547 2206H588.73L590.02 2195.68H585.247V2194.95H590.106L591.267 2186.52H586.494V2185.79H591.353L592.643 2175.56H593.46L592.127 2185.79H599.523L600.856 2175.56H601.673L600.34 2185.79H605.156V2186.52H600.254ZM592.084 2186.52L590.966 2194.95H598.319L599.437 2186.52H592.084Z" fill="white"/>
<path d="M966.942 182.673L967.2 183.404L960.105 185.554L964.491 191.66L963.889 192.09L959.546 185.941L955.203 192.09L954.601 191.66L958.987 185.554L951.892 183.404L952.15 182.673L959.159 184.909V177.556H959.933V184.909L966.942 182.673Z" fill="white"/>
<path d="M273.942 1504.51L274.2 1505.24L267.105 1507.39L271.491 1513.49L270.889 1513.92L266.546 1507.77L262.203 1513.92L261.601 1513.49L265.987 1507.39L258.892 1505.24L259.15 1504.51L266.159 1506.74V1499.39H266.933V1506.74L273.942 1504.51Z" fill="white"/>
<path d="M170.835 222.205H169.932V212.315H160.3V211.498H169.932V201.608H170.835V211.498H180.338V212.315H170.835V222.205Z" fill="white"/>
<path d="M315.29 753.508V752.648H329.91V753.508H315.29Z" fill="white"/>
<path d="M63 855.085C63.4587 855.085 63.8887 855.014 64.29 854.87C64.72 854.727 65.0783 854.483 65.365 854.139C65.6517 853.767 65.881 853.265 66.053 852.634C66.225 851.975 66.311 851.144 66.311 850.14V841.755C66.311 839.749 66.741 838.358 67.601 837.584C68.461 836.782 69.5503 836.38 70.869 836.38H72.89V837.197H70.869C69.6077 837.197 68.6903 837.599 68.117 838.401C67.5437 839.175 67.257 840.293 67.257 841.755V850.183C67.257 851.989 66.9847 853.279 66.44 854.053C65.8953 854.827 65.2073 855.286 64.376 855.429V855.515C65.2073 855.659 65.8953 856.117 66.44 856.891C66.9847 857.665 67.257 858.955 67.257 860.761V869.189C67.257 870.651 67.5437 871.769 68.117 872.543C68.6903 873.346 69.6077 873.747 70.869 873.747H72.89V874.564H70.869C70.2097 874.564 69.5933 874.464 69.02 874.263C68.4753 874.091 68.0023 873.79 67.601 873.36C67.1997 872.959 66.8843 872.414 66.655 871.726C66.4257 871.038 66.311 870.193 66.311 869.189V860.804C66.311 859.801 66.225 858.984 66.053 858.353C65.881 857.694 65.6517 857.192 65.365 856.848C65.0783 856.476 64.72 856.218 64.29 856.074C63.8887 855.931 63.4587 855.859 63 855.859V855.085Z" fill="white"/>
<path d="M582 3454.83C582.459 3454.83 582.889 3454.76 583.29 3454.62C583.72 3454.48 584.078 3454.23 584.365 3453.89C584.652 3453.52 584.881 3453.01 585.053 3452.38C585.225 3451.72 585.311 3450.89 585.311 3449.89V3441.5C585.311 3439.5 585.741 3438.11 586.601 3437.33C587.461 3436.53 588.55 3436.13 589.869 3436.13H591.89V3436.95H589.869C588.608 3436.95 587.69 3437.35 587.117 3438.15C586.544 3438.92 586.257 3440.04 586.257 3441.5V3449.93C586.257 3451.74 585.985 3453.03 585.44 3453.8C584.895 3454.58 584.207 3455.03 583.376 3455.18V3455.26C584.207 3455.41 584.895 3455.87 585.44 3456.64C585.985 3457.41 586.257 3458.7 586.257 3460.51V3468.94C586.257 3470.4 586.544 3471.52 587.117 3472.29C587.69 3473.09 588.608 3473.5 589.869 3473.5H591.89V3474.31H589.869C589.21 3474.31 588.593 3474.21 588.02 3474.01C587.475 3473.84 587.002 3473.54 586.601 3473.11C586.2 3472.71 585.884 3472.16 585.655 3471.48C585.426 3470.79 585.311 3469.94 585.311 3468.94V3460.55C585.311 3459.55 585.225 3458.73 585.053 3458.1C584.881 3457.44 584.652 3456.94 584.365 3456.6C584.078 3456.22 583.72 3455.97 583.29 3455.82C582.889 3455.68 582.459 3455.61 582 3455.61V3454.83Z" fill="white"/>
<path d="M32.806 91.1679L31.989 90.8669L45.19 59.1759L46.007 59.4769L32.806 91.1679Z" fill="white"/>
<path d="M315.3 130.259L334.822 120.971L315.3 111.683V110.823L335.338 120.455V121.487L315.3 131.119V130.259Z" fill="white"/>
<path d="M48.02 597.672C47.762 597.672 47.5327 597.571 47.332 597.371C47.1313 597.17 47.031 596.898 47.031 596.554C47.031 596.238 47.1313 595.98 47.332 595.78C47.5327 595.579 47.762 595.479 48.02 595.479C48.278 595.479 48.5073 595.579 48.708 595.78C48.9087 595.98 49.009 596.238 49.009 596.554C49.009 596.898 48.8943 597.17 48.665 597.371C48.4643 597.571 48.2493 597.672 48.02 597.672ZM48.02 615.517C47.762 615.517 47.5327 615.416 47.332 615.216C47.1313 615.015 47.031 614.743 47.031 614.399C47.031 614.083 47.1313 613.825 47.332 613.625C47.5327 613.424 47.762 613.324 48.02 613.324C48.278 613.324 48.5073 613.424 48.708 613.625C48.9087 613.825 49.009 614.083 49.009 614.399C49.009 614.743 48.8943 615.015 48.665 615.216C48.4643 615.416 48.2493 615.517 48.02 615.517Z" fill="white"/>
<path d="M890.02 55.413C889.762 55.413 889.533 55.3127 889.332 55.112C889.131 54.9113 889.031 54.639 889.031 54.295C889.031 53.9797 889.131 53.7217 889.332 53.521C889.533 53.3203 889.762 53.22 890.02 53.22C890.278 53.22 890.507 53.3203 890.708 53.521C890.909 53.7217 891.009 53.9797 891.009 54.295C891.009 54.639 890.894 54.9113 890.665 55.112C890.464 55.3127 890.249 55.413 890.02 55.413ZM890.02 73.258C889.762 73.258 889.533 73.1577 889.332 72.957C889.131 72.7563 889.031 72.484 889.031 72.14C889.031 71.8247 889.131 71.5667 889.332 71.366C889.533 71.1653 889.762 71.065 890.02 71.065C890.278 71.065 890.507 71.1653 890.708 71.366C890.909 71.5667 891.009 71.8247 891.009 72.14C891.009 72.484 890.894 72.7563 890.665 72.957C890.464 73.1577 890.249 73.258 890.02 73.258Z" fill="white"/>
<path d="M101.942 2390.88L102.2 2391.61L95.105 2393.76L99.491 2399.87L98.889 2400.3L94.546 2394.15L90.203 2400.3L89.601 2399.87L93.987 2393.76L86.892 2391.61L87.15 2390.88L94.159 2393.12V2385.77H94.933V2393.12L101.942 2390.88Z" fill="white"/>
<path d="M87.3 3163.66V3162.84H107.338V3163.66H87.3ZM87.3 3171.01V3170.2H107.338V3171.01H87.3Z" fill="white"/>
<path d="M653.942 1575.67L654.2 1576.4L647.105 1578.55L651.491 1584.66L650.889 1585.09L646.546 1578.94L642.203 1585.09L641.601 1584.66L645.987 1578.55L638.892 1576.4L639.15 1575.67L646.159 1577.91V1570.56H646.933V1577.91L653.942 1575.67Z" fill="white"/>
<path d="M451.02 1501.41C450.762 1501.41 450.533 1501.31 450.332 1501.11C450.131 1500.91 450.031 1500.64 450.031 1500.29C450.031 1499.98 450.131 1499.72 450.332 1499.52C450.533 1499.32 450.762 1499.22 451.02 1499.22C451.278 1499.22 451.507 1499.32 451.708 1499.52C451.909 1499.72 452.009 1499.98 452.009 1500.29C452.009 1500.64 451.894 1500.91 451.665 1501.11C451.464 1501.31 451.249 1501.41 451.02 1501.41ZM451.02 1519.26C450.762 1519.26 450.533 1519.16 450.332 1518.96C450.131 1518.76 450.031 1518.48 450.031 1518.14C450.031 1517.82 450.131 1517.57 450.332 1517.37C450.533 1517.17 450.762 1517.06 451.02 1517.06C451.278 1517.06 451.507 1517.17 451.708 1517.37C451.909 1517.57 452.009 1517.82 452.009 1518.14C452.009 1518.48 451.894 1518.76 451.665 1518.96C451.464 1519.16 451.249 1519.26 451.02 1519.26Z" fill="white"/>
<path d="M576.3 1350.06L595.822 1340.77L576.3 1331.49V1330.63L596.338 1340.26V1341.29L576.3 1350.92V1350.06Z" fill="white"/>
<path d="M210.942 2969.67L211.2 2970.4L204.105 2972.55L208.491 2978.66L207.889 2979.09L203.546 2972.94L199.203 2979.09L198.601 2978.66L202.987 2972.55L195.892 2970.4L196.15 2969.67L203.159 2971.91V2964.56H203.933V2971.91L210.942 2969.67Z" fill="white"/>
<path d="M737.835 2373.2H736.932V2363.31H727.3V2362.5H736.932V2352.61H737.835V2362.5H747.338V2363.31H737.835V2373.2Z" fill="white"/>
<path d="M192.3 2120.49V2119.45L212.338 2109.82V2110.68L192.816 2119.97L212.338 2129.26V2130.12L192.3 2120.49Z" fill="white"/>
<path d="M496.14 2741.73V2740.97H509.06V2741.73H496.14Z" fill="white"/>
<path d="M922.806 2919.65L921.989 2919.34L935.19 2887.65L936.007 2887.95L922.806 2919.65Z" fill="white"/>
</g>
<defs>
<clipPath id="clip0">
<rect width="1024" height="3625" fill="white"/>
</clipPath>
</defs>
</svg>
