<svg width="320" height="1689" viewBox="0 0 320 1689" fill="none" xmlns="http://www.w3.org/2000/svg">
<g clip-path="url(#clip0)">
<rect width="320" height="1689" fill="black"/>
<path d="M226.3 334.06V333.813H232.358V334.06H226.3ZM226.3 336.283V336.036H232.358V336.283H226.3Z" fill="white"/>
<path d="M274.3 1575.06V1574.81H280.358V1575.06H274.3ZM274.3 1577.28V1577.04H280.358V1577.28H274.3Z" fill="white"/>
<path d="M301.9 447.373C301.753 447.373 301.618 447.395 301.497 447.438C301.376 447.481 301.272 447.559 301.185 447.672C301.098 447.776 301.029 447.928 300.977 448.127C300.925 448.318 300.899 448.565 300.899 448.868V451.403C300.899 451.706 300.864 451.962 300.795 452.17C300.726 452.378 300.63 452.543 300.509 452.664C300.388 452.794 300.24 452.885 300.067 452.937C299.902 452.998 299.72 453.028 299.521 453.028H298.91V452.781H299.521C299.902 452.781 300.18 452.66 300.353 452.417C300.526 452.183 300.613 451.845 300.613 451.403V448.855C300.613 448.309 300.695 447.919 300.86 447.685C301.025 447.451 301.233 447.312 301.484 447.269V447.243C301.233 447.2 301.025 447.061 300.86 446.827C300.695 446.593 300.613 446.203 300.613 445.657V443.109C300.613 442.667 300.526 442.329 300.353 442.095C300.18 441.852 299.902 441.731 299.521 441.731H298.91V441.484H299.521C299.92 441.484 300.249 441.605 300.509 441.848C300.769 442.082 300.899 442.502 300.899 443.109V445.644C300.899 445.947 300.925 446.199 300.977 446.398C301.029 446.589 301.098 446.74 301.185 446.853C301.272 446.957 301.376 447.031 301.497 447.074C301.618 447.117 301.753 447.139 301.9 447.139V447.373Z" fill="white"/>
<path d="M300.9 1093.37C300.753 1093.37 300.618 1093.39 300.497 1093.44C300.376 1093.48 300.272 1093.56 300.185 1093.67C300.098 1093.78 300.029 1093.93 299.977 1094.13C299.925 1094.32 299.899 1094.56 299.899 1094.87V1097.4C299.899 1097.71 299.864 1097.96 299.795 1098.17C299.726 1098.38 299.63 1098.54 299.509 1098.66C299.388 1098.79 299.24 1098.89 299.067 1098.94C298.902 1099 298.72 1099.03 298.521 1099.03H297.91V1098.78H298.521C298.902 1098.78 299.18 1098.66 299.353 1098.42C299.526 1098.18 299.613 1097.85 299.613 1097.4V1094.85C299.613 1094.31 299.695 1093.92 299.86 1093.68C300.025 1093.45 300.233 1093.31 300.484 1093.27V1093.24C300.233 1093.2 300.025 1093.06 299.86 1092.83C299.695 1092.59 299.613 1092.2 299.613 1091.66V1089.11C299.613 1088.67 299.526 1088.33 299.353 1088.09C299.18 1087.85 298.902 1087.73 298.521 1087.73H297.91V1087.48H298.521C298.92 1087.48 299.249 1087.61 299.509 1087.85C299.769 1088.08 299.899 1088.5 299.899 1089.11V1091.64C299.899 1091.95 299.925 1092.2 299.977 1092.4C300.029 1092.59 300.098 1092.74 300.185 1092.85C300.272 1092.96 300.376 1093.03 300.497 1093.07C300.618 1093.12 300.753 1093.14 300.9 1093.14V1093.37Z" fill="white"/>
<path d="M191.3 483.217V482.905L197.358 479.993V480.253L191.456 483.061L197.358 485.869V486.129L191.3 483.217Z" fill="white"/>
<path d="M292.914 234.111L292.576 236.659H294.032V236.88H292.55L292.16 240H291.913L292.303 236.88H290.067L289.677 240H289.43L289.82 236.88H288.377V236.659H289.846L290.197 234.111H288.754V233.89H290.223L290.613 230.796H290.86L290.457 233.89H292.693L293.096 230.796H293.343L292.94 233.89H294.396V234.111H292.914ZM290.444 234.111L290.106 236.659H292.329L292.667 234.111H290.444Z" fill="white"/>
<path d="M281.914 614.111L281.576 616.659H283.032V616.88H281.55L281.16 620H280.913L281.303 616.88H279.067L278.677 620H278.43L278.82 616.88H277.377V616.659H278.846L279.197 614.111H277.754V613.89H279.223L279.613 610.796H279.86L279.457 613.89H281.693L282.096 610.796H282.343L281.94 613.89H283.396V614.111H281.914ZM279.444 614.111L279.106 616.659H281.329L281.667 614.111H279.444Z" fill="white"/>
<path d="M248.914 1010.11L248.576 1012.66H250.032V1012.88H248.55L248.16 1016H247.913L248.303 1012.88H246.067L245.677 1016H245.43L245.82 1012.88H244.377V1012.66H245.846L246.197 1010.11H244.754V1009.89H246.223L246.613 1006.8H246.86L246.457 1009.89H248.693L249.096 1006.8H249.343L248.94 1009.89H250.396V1010.11H248.914ZM246.444 1010.11L246.106 1012.66H248.329L248.667 1010.11H246.444Z" fill="white"/>
<path d="M306.122 68.343L306.2 68.564L304.055 69.214L305.381 71.06L305.199 71.19L303.886 69.331L302.573 71.19L302.391 71.06L303.717 69.214L301.572 68.564L301.65 68.343L303.769 69.019V66.796H304.003V69.019L306.122 68.343Z" fill="white"/>
<path d="M40.122 642.343L40.2 642.564L38.055 643.214L39.381 645.06L39.199 645.19L37.886 643.331L36.573 645.19L36.391 645.06L37.717 643.214L35.572 642.564L35.65 642.343L37.769 643.019V640.796H38.003V643.019L40.122 642.343Z" fill="white"/>
<path d="M139.485 90.155H139.212V87.165H136.3V86.918H139.212V83.928H139.485V86.918H142.358V87.165H139.485V90.155Z" fill="white"/>
<path d="M114.39 334.828V334.568H118.81V334.828H114.39Z" fill="white"/>
<path d="M41 383.139C41.1387 383.139 41.2687 383.117 41.39 383.074C41.52 383.031 41.6283 382.957 41.715 382.853C41.8017 382.74 41.871 382.589 41.923 382.398C41.975 382.199 42.001 381.947 42.001 381.644V379.109C42.001 378.502 42.131 378.082 42.391 377.848C42.651 377.605 42.9803 377.484 43.379 377.484H43.99V377.731H43.379C42.9977 377.731 42.7203 377.852 42.547 378.095C42.3737 378.329 42.287 378.667 42.287 379.109V381.657C42.287 382.203 42.2047 382.593 42.04 382.827C41.8753 383.061 41.6673 383.2 41.416 383.243V383.269C41.6673 383.312 41.8753 383.451 42.04 383.685C42.2047 383.919 42.287 384.309 42.287 384.855V387.403C42.287 387.845 42.3737 388.183 42.547 388.417C42.7203 388.66 42.9977 388.781 43.379 388.781H43.99V389.028H43.379C43.1797 389.028 42.9933 388.998 42.82 388.937C42.6553 388.885 42.5123 388.794 42.391 388.664C42.2697 388.543 42.1743 388.378 42.105 388.17C42.0357 387.962 42.001 387.706 42.001 387.403V384.868C42.001 384.565 41.975 384.318 41.923 384.127C41.871 383.928 41.8017 383.776 41.715 383.672C41.6283 383.559 41.52 383.481 41.39 383.438C41.2687 383.395 41.1387 383.373 41 383.373V383.139Z" fill="white"/>
<path d="M171 1594.14C171.139 1594.14 171.269 1594.12 171.39 1594.07C171.52 1594.03 171.628 1593.96 171.715 1593.85C171.802 1593.74 171.871 1593.59 171.923 1593.4C171.975 1593.2 172.001 1592.95 172.001 1592.64V1590.11C172.001 1589.5 172.131 1589.08 172.391 1588.85C172.651 1588.61 172.98 1588.48 173.379 1588.48H173.99V1588.73H173.379C172.998 1588.73 172.72 1588.85 172.547 1589.09C172.374 1589.33 172.287 1589.67 172.287 1590.11V1592.66C172.287 1593.2 172.205 1593.59 172.04 1593.83C171.875 1594.06 171.667 1594.2 171.416 1594.24V1594.27C171.667 1594.31 171.875 1594.45 172.04 1594.68C172.205 1594.92 172.287 1595.31 172.287 1595.85V1598.4C172.287 1598.85 172.374 1599.18 172.547 1599.42C172.72 1599.66 172.998 1599.78 173.379 1599.78H173.99V1600.03H173.379C173.18 1600.03 172.993 1600 172.82 1599.94C172.655 1599.89 172.512 1599.79 172.391 1599.66C172.27 1599.54 172.174 1599.38 172.105 1599.17C172.036 1598.96 172.001 1598.71 172.001 1598.4V1595.87C172.001 1595.56 171.975 1595.32 171.923 1595.13C171.871 1594.93 171.802 1594.78 171.715 1594.67C171.628 1594.56 171.52 1594.48 171.39 1594.44C171.269 1594.39 171.139 1594.37 171 1594.37V1594.14Z" fill="white"/>
<path d="M55.546 42.195L55.299 42.104L59.29 32.523L59.537 32.614L55.546 42.195Z" fill="white"/>
<path d="M73.3 66.869L79.202 64.061L73.3 61.253V60.993L79.358 63.905V64.217L73.3 67.129V66.869Z" fill="white"/>
<path d="M36.82 232.683C36.742 232.683 36.6727 232.653 36.612 232.592C36.5513 232.531 36.521 232.449 36.521 232.345C36.521 232.25 36.5513 232.172 36.612 232.111C36.6727 232.05 36.742 232.02 36.82 232.02C36.898 232.02 36.9673 232.05 37.028 232.111C37.0887 232.172 37.119 232.25 37.119 232.345C37.119 232.449 37.0843 232.531 37.015 232.592C36.9543 232.653 36.8893 232.683 36.82 232.683ZM36.82 238.078C36.742 238.078 36.6727 238.048 36.612 237.987C36.5513 237.926 36.521 237.844 36.521 237.74C36.521 237.645 36.5513 237.567 36.612 237.506C36.6727 237.445 36.742 237.415 36.82 237.415C36.898 237.415 36.9673 237.445 37.028 237.506C37.0887 237.567 37.119 237.645 37.119 237.74C37.119 237.844 37.0843 237.926 37.015 237.987C36.9543 238.048 36.8893 238.078 36.82 238.078Z" fill="white"/>
<path d="M283.82 7.683C283.742 7.683 283.673 7.65267 283.612 7.592C283.551 7.53133 283.521 7.449 283.521 7.345C283.521 7.24967 283.551 7.17167 283.612 7.111C283.673 7.05033 283.742 7.02 283.82 7.02C283.898 7.02 283.967 7.05033 284.028 7.111C284.089 7.17167 284.119 7.24967 284.119 7.345C284.119 7.449 284.084 7.53133 284.015 7.592C283.954 7.65267 283.889 7.683 283.82 7.683ZM283.82 13.078C283.742 13.078 283.673 13.0477 283.612 12.987C283.551 12.9263 283.521 12.844 283.521 12.74C283.521 12.6447 283.551 12.5667 283.612 12.506C283.673 12.4453 283.742 12.415 283.82 12.415C283.898 12.415 283.967 12.4453 284.028 12.506C284.089 12.5667 284.119 12.6447 284.119 12.74C284.119 12.844 284.084 12.9263 284.015 12.987C283.954 13.0477 283.889 13.078 283.82 13.078Z" fill="white"/>
<path d="M38.122 1566.34L38.2 1566.56L36.055 1567.21L37.381 1569.06L37.199 1569.19L35.886 1567.33L34.573 1569.19L34.391 1569.06L35.717 1567.21L33.572 1566.56L33.65 1566.34L35.769 1567.02V1564.8H36.003V1567.02L38.122 1566.34Z" fill="white"/>
<path d="M21.82 873.683C21.742 873.683 21.6727 873.653 21.612 873.592C21.5513 873.531 21.521 873.449 21.521 873.345C21.521 873.25 21.5513 873.172 21.612 873.111C21.6727 873.05 21.742 873.02 21.82 873.02C21.898 873.02 21.9673 873.05 22.028 873.111C22.0887 873.172 22.119 873.25 22.119 873.345C22.119 873.449 22.0843 873.531 22.015 873.592C21.9543 873.653 21.8893 873.683 21.82 873.683ZM21.82 879.078C21.742 879.078 21.6727 879.048 21.612 878.987C21.5513 878.926 21.521 878.844 21.521 878.74C21.521 878.645 21.5513 878.567 21.612 878.506C21.6727 878.445 21.742 878.415 21.82 878.415C21.898 878.415 21.9673 878.445 22.028 878.506C22.0887 878.567 22.119 878.645 22.119 878.74C22.119 878.844 22.0843 878.926 22.015 878.987C21.9543 879.048 21.8893 879.078 21.82 879.078Z" fill="white"/>
<path d="M242.3 550.217V549.905L248.358 546.993V547.253L242.456 550.061L248.358 552.869V553.129L242.3 550.217Z" fill="white"/>
<path d="M17.3 1330.22V1329.9L23.358 1326.99V1327.25L17.456 1330.06L23.358 1332.87V1333.13L17.3 1330.22Z" fill="white"/>
<path d="M51 1234.14C51.1387 1234.14 51.2687 1234.12 51.39 1234.07C51.52 1234.03 51.6283 1233.96 51.715 1233.85C51.8017 1233.74 51.871 1233.59 51.923 1233.4C51.975 1233.2 52.001 1232.95 52.001 1232.64V1230.11C52.001 1229.5 52.131 1229.08 52.391 1228.85C52.651 1228.61 52.9803 1228.48 53.379 1228.48H53.99V1228.73H53.379C52.9977 1228.73 52.7203 1228.85 52.547 1229.09C52.3737 1229.33 52.287 1229.67 52.287 1230.11V1232.66C52.287 1233.2 52.2047 1233.59 52.04 1233.83C51.8753 1234.06 51.6673 1234.2 51.416 1234.24V1234.27C51.6673 1234.31 51.8753 1234.45 52.04 1234.68C52.2047 1234.92 52.287 1235.31 52.287 1235.85V1238.4C52.287 1238.85 52.3737 1239.18 52.547 1239.42C52.7203 1239.66 52.9977 1239.78 53.379 1239.78H53.99V1240.03H53.379C53.1797 1240.03 52.9933 1240 52.82 1239.94C52.6553 1239.89 52.5123 1239.79 52.391 1239.66C52.2697 1239.54 52.1743 1239.38 52.105 1239.17C52.0357 1238.96 52.001 1238.71 52.001 1238.4V1235.87C52.001 1235.56 51.975 1235.32 51.923 1235.13C51.871 1234.93 51.8017 1234.78 51.715 1234.67C51.6283 1234.56 51.52 1234.48 51.39 1234.44C51.2687 1234.39 51.1387 1234.37 51 1234.37V1234.14Z" fill="white"/>
<path d="M306.122 808.343L306.2 808.564L304.055 809.214L305.381 811.06L305.199 811.19L303.886 809.331L302.573 811.19L302.391 811.06L303.717 809.214L301.572 808.564L301.65 808.343L303.769 809.019V806.796H304.003V809.019L306.122 808.343Z" fill="white"/>
<path d="M26.546 469.195L26.299 469.104L30.29 459.523L30.537 459.614L26.546 469.195Z" fill="white"/>
<path d="M71.3 494.869L77.202 492.061L71.3 489.253V488.993L77.358 491.905V492.217L71.3 495.129V494.869Z" fill="white"/>
<path d="M280.39 1273.83V1273.57H284.81V1273.83H280.39Z" fill="white"/>
</g>
<defs>
<clipPath id="clip0">
<rect width="320" height="1689" fill="white"/>
</clipPath>
</defs>
</svg>
