<svg width="768" height="3261" viewBox="0 0 768 3261" fill="none" xmlns="http://www.w3.org/2000/svg">
<g clip-path="url(#clip0)">
<rect width="768" height="3261" fill="black"/>
<path d="M582.26 48.45L581.69 48.24L590.9 26.13L591.47 26.34L582.26 48.45Z" fill="white"/>
<path d="M77.26 2260.16L76.69 2259.95L85.9 2237.84L86.47 2238.05L77.26 2260.16Z" fill="white"/>
<path d="M49.9586 349.05H50.5886V342.15H57.3086V341.58H50.5886V334.68H49.9586V341.58H43.3286V342.15H49.9586V349.05Z" fill="white"/>
<path d="M99.34 2531.76L98.56 2537.64H101.92V2538.15H98.5L97.6 2545.35H97.03L97.93 2538.15H92.77L91.87 2545.35H91.3L92.2 2538.15H88.87V2537.64H92.26L93.07 2531.76H89.74V2531.25H93.13L94.03 2524.11H94.6L93.67 2531.25H98.83L99.76 2524.11H100.33L99.4 2531.25H102.76V2531.76H99.34ZM93.64 2531.76L92.86 2537.64H97.99L98.77 2531.76H93.64Z" fill="white"/>
<path d="M714.619 2877.29H715.249V2870.39H721.969V2869.82H715.249V2862.92H714.619V2869.82H707.989V2870.39H714.619V2877.29Z" fill="white"/>
<path d="M604.82 2074.05L605 2074.56L600.05 2076.06L603.11 2080.32L602.69 2080.62L599.66 2076.33L596.63 2080.62L596.21 2080.32L599.27 2076.06L594.32 2074.56L594.5 2074.05L599.39 2075.61V2070.48H599.93V2075.61L604.82 2074.05Z" fill="white"/>
<path d="M580.82 3001.74L581 3002.25L576.05 3003.75L579.11 3008.01L578.69 3008.31L575.66 3004.02L572.63 3008.31L572.21 3008.01L575.27 3003.75L570.32 3002.25L570.5 3001.74L575.39 3003.3V2998.17H575.93V3003.3L580.82 3001.74Z" fill="white"/>
<path d="M70 2914.56V2913.99H83.98V2914.56H70ZM70 2919.69V2919.12H83.98V2919.69H70Z" fill="white"/>
<path d="M613.2 2384.15C613.02 2384.15 612.86 2384.08 612.72 2383.94C612.58 2383.8 612.51 2383.61 612.51 2383.37C612.51 2383.15 612.58 2382.97 612.72 2382.83C612.86 2382.69 613.02 2382.62 613.2 2382.62C613.38 2382.62 613.54 2382.69 613.68 2382.83C613.82 2382.97 613.89 2383.15 613.89 2383.37C613.89 2383.61 613.81 2383.8 613.65 2383.94C613.51 2384.08 613.36 2384.15 613.2 2384.15ZM613.2 2396.6C613.02 2396.6 612.86 2396.53 612.72 2396.39C612.58 2396.25 612.51 2396.06 612.51 2395.82C612.51 2395.6 612.58 2395.42 612.72 2395.28C612.86 2395.14 613.02 2395.07 613.2 2395.07C613.38 2395.07 613.54 2395.14 613.68 2395.28C613.82 2395.42 613.89 2395.6 613.89 2395.82C613.89 2396.06 613.81 2396.25 613.65 2396.39C613.51 2396.53 613.36 2396.6 613.2 2396.6Z" fill="white"/>
<path d="M548.26 2599.34L547.69 2599.13L556.9 2577.02L557.47 2577.23L548.26 2599.34Z" fill="white"/>
<path d="M507 1816.56L520.62 1810.08L507 1803.6V1803L520.98 1809.72V1810.44L507 1817.16V1816.56Z" fill="white"/>
<path d="M707.34 1479.48L706.56 1485.36H709.92V1485.87H706.5L705.6 1493.07H705.03L705.93 1485.87H700.77L699.87 1493.07H699.3L700.2 1485.87H696.87V1485.36H700.26L701.07 1479.48H697.74V1478.97H701.13L702.03 1471.83H702.6L701.67 1478.97H706.83L707.76 1471.83H708.33L707.4 1478.97H710.76V1479.48H707.34ZM701.64 1479.48L700.86 1485.36H705.99L706.77 1479.48H701.64Z" fill="white"/>
<path d="M204 3084.48C204.32 3084.48 204.62 3084.43 204.9 3084.33C205.2 3084.23 205.45 3084.06 205.65 3083.82C205.85 3083.56 206.01 3083.21 206.13 3082.77C206.25 3082.31 206.31 3081.73 206.31 3081.03V3075.18C206.31 3073.78 206.61 3072.81 207.21 3072.27C207.81 3071.71 208.57 3071.43 209.49 3071.43H210.9V3072H209.49C208.61 3072 207.97 3072.28 207.57 3072.84C207.17 3073.38 206.97 3074.16 206.97 3075.18V3081.06C206.97 3082.32 206.78 3083.22 206.4 3083.76C206.02 3084.3 205.54 3084.62 204.96 3084.72V3084.78C205.54 3084.88 206.02 3085.2 206.4 3085.74C206.78 3086.28 206.97 3087.18 206.97 3088.44V3094.32C206.97 3095.34 207.17 3096.12 207.57 3096.66C207.97 3097.22 208.61 3097.5 209.49 3097.5H210.9V3098.07H209.49C209.03 3098.07 208.6 3098 208.2 3097.86C207.82 3097.74 207.49 3097.53 207.21 3097.23C206.93 3096.95 206.71 3096.57 206.55 3096.09C206.39 3095.61 206.31 3095.02 206.31 3094.32V3088.47C206.31 3087.77 206.25 3087.2 206.13 3086.76C206.01 3086.3 205.85 3085.95 205.65 3085.71C205.45 3085.45 205.2 3085.27 204.9 3085.17C204.62 3085.07 204.32 3085.02 204 3085.02V3084.48Z" fill="white"/>
<path d="M290.9 1689.68V1689.08H301.1V1689.68H290.9Z" fill="white"/>
<path d="M113.2 81.9766C113.02 81.9766 112.86 81.9066 112.72 81.7666C112.58 81.6266 112.51 81.4366 112.51 81.1966C112.51 80.9766 112.58 80.7966 112.72 80.6566C112.86 80.5166 113.02 80.4466 113.2 80.4466C113.38 80.4466 113.54 80.5166 113.68 80.6566C113.82 80.7966 113.89 80.9766 113.89 81.1966C113.89 81.4366 113.81 81.6266 113.65 81.7666C113.51 81.9066 113.36 81.9766 113.2 81.9766ZM113.2 94.4266C113.02 94.4266 112.86 94.3566 112.72 94.2166C112.58 94.0766 112.51 93.8866 112.51 93.6466C112.51 93.4266 112.58 93.2466 112.72 93.1066C112.86 92.9666 113.02 92.8966 113.2 92.8966C113.38 92.8966 113.54 92.9666 113.68 93.1066C113.82 93.2466 113.89 93.4266 113.89 93.6466C113.89 93.8866 113.81 94.0766 113.65 94.2166C113.51 94.3566 113.36 94.4266 113.2 94.4266Z" fill="white"/>
<path d="M336.82 2988.11L337 2988.62L332.05 2990.12L335.11 2994.38L334.69 2994.68L331.66 2990.39L328.63 2994.68L328.21 2994.38L331.27 2990.12L326.32 2988.62L326.5 2988.11L331.39 2989.67V2984.54H331.93V2989.67L336.82 2988.11Z" fill="white"/>
<path d="M633 1015.17V1014.6H646.98V1015.17H633ZM633 1020.3V1019.73H646.98V1020.3H633Z" fill="white"/>
<path d="M355 2535.39L368.62 2528.91L355 2522.43V2521.83L368.98 2528.55V2529.27L355 2535.99V2535.39Z" fill="white"/>
<path d="M68.26 1231.67L67.69 1231.46L76.9 1209.35L77.47 1209.56L68.26 1231.67Z" fill="white"/>
<path d="M543.25 486.074V485.504H557.23V486.074H543.25ZM543.25 491.204V490.634H557.23V491.204H543.25Z" fill="white"/>
<path d="M708 1225.77C707.66 1225.77 707.35 1225.82 707.07 1225.92C706.79 1226.02 706.55 1226.2 706.35 1226.46C706.15 1226.7 705.99 1227.05 705.87 1227.51C705.75 1227.95 705.69 1228.52 705.69 1229.22V1235.07C705.69 1235.77 705.61 1236.36 705.45 1236.84C705.29 1237.32 705.07 1237.7 704.79 1237.98C704.51 1238.28 704.17 1238.49 703.77 1238.61C703.39 1238.75 702.97 1238.82 702.51 1238.82H701.1V1238.25H702.51C703.39 1238.25 704.03 1237.97 704.43 1237.41C704.83 1236.87 705.03 1236.09 705.03 1235.07V1229.19C705.03 1227.93 705.22 1227.03 705.6 1226.49C705.98 1225.95 706.46 1225.63 707.04 1225.53V1225.47C706.46 1225.37 705.98 1225.05 705.6 1224.51C705.22 1223.97 705.03 1223.07 705.03 1221.81V1215.93C705.03 1214.91 704.83 1214.13 704.43 1213.59C704.03 1213.03 703.39 1212.75 702.51 1212.75H701.1V1212.18H702.51C703.43 1212.18 704.19 1212.46 704.79 1213.02C705.39 1213.56 705.69 1214.53 705.69 1215.93V1221.78C705.69 1222.48 705.75 1223.06 705.87 1223.52C705.99 1223.96 706.15 1224.31 706.35 1224.57C706.55 1224.81 706.79 1224.98 707.07 1225.08C707.35 1225.18 707.66 1225.23 708 1225.23V1225.77Z" fill="white"/>
<path d="M541.25 967.245V966.525L555.23 959.805V960.405L541.61 966.885L555.23 973.365V973.965L541.25 967.245Z" fill="white"/>
<path d="M713.59 564.23L712.81 570.11H716.17V570.62H712.75L711.85 577.82H711.28L712.18 570.62H707.02L706.12 577.82H705.55L706.45 570.62H703.12V570.11H706.51L707.32 564.23H703.99V563.72H707.38L708.28 556.58H708.85L707.92 563.72H713.08L714.01 556.58H714.58L713.65 563.72H717.01V564.23H713.59ZM707.89 564.23L707.11 570.11H712.24L713.02 564.23H707.89Z" fill="white"/>
<path d="M195.34 1033.04L194.56 1038.92H197.92V1039.43H194.5L193.6 1046.63H193.03L193.93 1039.43H188.77L187.87 1046.63H187.3L188.2 1039.43H184.87V1038.92H188.26L189.07 1033.04H185.74V1032.53H189.13L190.03 1025.39H190.6L189.67 1032.53H194.83L195.76 1025.39H196.33L195.4 1032.53H198.76V1033.04H195.34ZM189.64 1033.04L188.86 1038.92H193.99L194.77 1033.04H189.64Z" fill="white"/>
<path d="M498.34 2043.41L497.56 2049.29H500.92V2049.8H497.5L496.6 2057H496.03L496.93 2049.8H491.77L490.87 2057H490.3L491.2 2049.8H487.87V2049.29H491.26L492.07 2043.41H488.74V2042.9H492.13L493.03 2035.76H493.6L492.67 2042.9H497.83L498.76 2035.76H499.33L498.4 2042.9H501.76V2043.41H498.34ZM492.64 2043.41L491.86 2049.29H496.99L497.77 2043.41H492.64Z" fill="white"/>
<path d="M755.82 356.181L756 356.691L751.05 358.191L754.11 362.451L753.69 362.751L750.66 358.461L747.63 362.751L747.21 362.451L750.27 358.191L745.32 356.691L745.5 356.181L750.39 357.741V352.611H750.93V357.741L755.82 356.181Z" fill="white"/>
<path d="M226.57 1310.62L226.75 1311.13L221.8 1312.63L224.86 1316.89L224.44 1317.19L221.41 1312.9L218.38 1317.19L217.96 1316.89L221.02 1312.63L216.07 1311.13L216.25 1310.62L221.14 1312.18V1307.05H221.68V1312.18L226.57 1310.62Z" fill="white"/>
<path d="M257.35 84.509H256.72V77.609H250V77.039H256.72V70.139H257.35V77.039H263.98V77.609H257.35V84.509Z" fill="white"/>
<path d="M229.65 549.551V548.951H239.85V549.551H229.65Z" fill="white"/>
<path d="M91.75 791.065C92.07 791.065 92.37 791.015 92.65 790.915C92.95 790.815 93.2 790.645 93.4 790.405C93.6 790.145 93.76 789.795 93.88 789.355C94 788.895 94.06 788.315 94.06 787.615V781.765C94.06 780.365 94.36 779.395 94.96 778.855C95.56 778.295 96.32 778.015 97.24 778.015H98.65V778.585H97.24C96.36 778.585 95.72 778.865 95.32 779.425C94.92 779.965 94.72 780.745 94.72 781.765V787.645C94.72 788.905 94.53 789.805 94.15 790.345C93.77 790.885 93.29 791.205 92.71 791.305V791.365C93.29 791.465 93.77 791.785 94.15 792.325C94.53 792.865 94.72 793.765 94.72 795.025V800.905C94.72 801.925 94.92 802.705 95.32 803.245C95.72 803.805 96.36 804.085 97.24 804.085H98.65V804.655H97.24C96.78 804.655 96.35 804.585 95.95 804.445C95.57 804.325 95.24 804.115 94.96 803.815C94.68 803.535 94.46 803.155 94.3 802.675C94.14 802.195 94.06 801.605 94.06 800.905V795.055C94.06 794.355 94 793.785 93.88 793.345C93.76 792.885 93.6 792.535 93.4 792.295C93.2 792.035 92.95 791.855 92.65 791.755C92.37 791.655 92.07 791.605 91.75 791.605V791.065Z" fill="white"/>
<path d="M679 2198.66C679.32 2198.66 679.62 2198.61 679.9 2198.51C680.2 2198.41 680.45 2198.24 680.65 2198C680.85 2197.74 681.01 2197.39 681.13 2196.95C681.25 2196.49 681.31 2195.91 681.31 2195.21V2189.36C681.31 2187.96 681.61 2186.99 682.21 2186.45C682.81 2185.89 683.57 2185.61 684.49 2185.61H685.9V2186.18H684.49C683.61 2186.18 682.97 2186.46 682.57 2187.02C682.17 2187.56 681.97 2188.34 681.97 2189.36V2195.24C681.97 2196.5 681.78 2197.4 681.4 2197.94C681.02 2198.48 680.54 2198.8 679.96 2198.9V2198.96C680.54 2199.06 681.02 2199.38 681.4 2199.92C681.78 2200.46 681.97 2201.36 681.97 2202.62V2208.5C681.97 2209.52 682.17 2210.3 682.57 2210.84C682.97 2211.4 683.61 2211.68 684.49 2211.68H685.9V2212.25H684.49C684.03 2212.25 683.6 2212.18 683.2 2212.04C682.82 2211.92 682.49 2211.71 682.21 2211.41C681.93 2211.13 681.71 2210.75 681.55 2210.27C681.39 2209.79 681.31 2209.2 681.31 2208.5V2202.65C681.31 2201.95 681.25 2201.38 681.13 2200.94C681.01 2200.48 680.85 2200.13 680.65 2199.89C680.45 2199.63 680.2 2199.45 679.9 2199.35C679.62 2199.25 679.32 2199.2 679 2199.2V2198.66Z" fill="white"/>
<path d="M68 182.39L81.62 175.91L68 169.43V168.83L81.98 175.55V176.27L68 182.99V182.39Z" fill="white"/>
<path d="M57.7 523.647C57.52 523.647 57.36 523.577 57.22 523.437C57.08 523.297 57.01 523.107 57.01 522.867C57.01 522.647 57.08 522.467 57.22 522.327C57.36 522.187 57.52 522.117 57.7 522.117C57.88 522.117 58.04 522.187 58.18 522.327C58.32 522.467 58.39 522.647 58.39 522.867C58.39 523.107 58.31 523.297 58.15 523.437C58.01 523.577 57.86 523.647 57.7 523.647ZM57.7 536.097C57.52 536.097 57.36 536.027 57.22 535.887C57.08 535.747 57.01 535.557 57.01 535.317C57.01 535.097 57.08 534.917 57.22 534.777C57.36 534.637 57.52 534.567 57.7 534.567C57.88 534.567 58.04 534.637 58.18 534.777C58.32 534.917 58.39 535.097 58.39 535.317C58.39 535.557 58.31 535.747 58.15 535.887C58.01 536.027 57.86 536.097 57.7 536.097Z" fill="white"/>
<path d="M687.2 81.9766C687.02 81.9766 686.86 81.9066 686.72 81.7666C686.58 81.6266 686.51 81.4366 686.51 81.1966C686.51 80.9766 686.58 80.7966 686.72 80.6566C686.86 80.5166 687.02 80.4466 687.2 80.4466C687.38 80.4466 687.54 80.5166 687.68 80.6566C687.82 80.7966 687.89 80.9766 687.89 81.1966C687.89 81.4366 687.81 81.6266 687.65 81.7666C687.51 81.9066 687.36 81.9766 687.2 81.9766ZM687.2 94.4266C687.02 94.4266 686.86 94.3566 686.72 94.2166C686.58 94.0766 686.51 93.8866 686.51 93.6466C686.51 93.4266 686.58 93.2466 686.72 93.1066C686.86 92.9666 687.02 92.8966 687.2 92.8966C687.38 92.8966 687.54 92.9666 687.68 93.1066C687.82 93.2466 687.89 93.4266 687.89 93.6466C687.89 93.8866 687.81 94.0766 687.65 94.2166C687.51 94.3566 687.36 94.4266 687.2 94.4266Z" fill="white"/>
<path d="M97.57 2017.19L97.75 2017.7L92.8 2019.2L95.86 2023.46L95.44 2023.76L92.41 2019.47L89.38 2023.76L88.96 2023.46L92.02 2019.2L87.07 2017.7L87.25 2017.19L92.14 2018.75V2013.62H92.68V2018.75L97.57 2017.19Z" fill="white"/>
<path d="M50.2 1677.4C50.02 1677.4 49.86 1677.33 49.72 1677.19C49.58 1677.05 49.51 1676.86 49.51 1676.62C49.51 1676.4 49.58 1676.22 49.72 1676.08C49.86 1675.94 50.02 1675.87 50.2 1675.87C50.38 1675.87 50.54 1675.94 50.68 1676.08C50.82 1676.22 50.89 1676.4 50.89 1676.62C50.89 1676.86 50.81 1677.05 50.65 1677.19C50.51 1677.33 50.36 1677.4 50.2 1677.4ZM50.2 1689.85C50.02 1689.85 49.86 1689.78 49.72 1689.64C49.58 1689.5 49.51 1689.31 49.51 1689.07C49.51 1688.85 49.58 1688.67 49.72 1688.53C49.86 1688.39 50.02 1688.32 50.2 1688.32C50.38 1688.32 50.54 1688.39 50.68 1688.53C50.82 1688.67 50.89 1688.85 50.89 1689.07C50.89 1689.31 50.81 1689.5 50.65 1689.64C50.51 1689.78 50.36 1689.85 50.2 1689.85Z" fill="white"/>
</g>
<defs>
<clipPath id="clip0">
<rect width="768" height="3261" fill="white"/>
</clipPath>
</defs>
</svg>
