<svg width="1440" height="4142" viewBox="0 0 1440 4142" fill="none" xmlns="http://www.w3.org/2000/svg">
<g clip-path="url(#clip0)">
<rect width="1440" height="4142" fill="black"/>
<path d="M969.8 601.478V600.566H992.168V601.478H969.8ZM969.8 609.686V608.774H992.168V609.686H969.8Z" fill="white"/>
<path d="M1183.8 2486.18V2485.26H1206.17V2486.18H1183.8ZM1183.8 2494.38V2493.47H1206.17V2494.38H1183.8Z" fill="white"/>
<path d="M1302.4 768.97C1301.86 768.97 1301.36 769.05 1300.91 769.21C1300.46 769.37 1300.08 769.658 1299.76 770.074C1299.44 770.458 1299.18 771.018 1298.99 771.754C1298.8 772.458 1298.7 773.37 1298.7 774.49V783.85C1298.7 784.97 1298.58 785.914 1298.32 786.682C1298.06 787.45 1297.71 788.058 1297.26 788.506C1296.82 788.986 1296.27 789.322 1295.63 789.514C1295.02 789.738 1294.35 789.85 1293.62 789.85H1291.36V788.938H1293.62C1295.02 788.938 1296.05 788.49 1296.69 787.594C1297.33 786.73 1297.65 785.482 1297.65 783.85V774.442C1297.65 772.426 1297.95 770.986 1298.56 770.122C1299.17 769.258 1299.94 768.746 1300.86 768.586V768.49C1299.94 768.33 1299.17 767.818 1298.56 766.954C1297.95 766.09 1297.65 764.65 1297.65 762.634V753.226C1297.65 751.594 1297.33 750.346 1296.69 749.482C1296.05 748.586 1295.02 748.138 1293.62 748.138H1291.36V747.226H1293.62C1295.09 747.226 1296.3 747.674 1297.26 748.57C1298.22 749.434 1298.7 750.986 1298.7 753.226V762.586C1298.7 763.706 1298.8 764.634 1298.99 765.37C1299.18 766.074 1299.44 766.634 1299.76 767.05C1300.08 767.434 1300.46 767.706 1300.91 767.866C1301.36 768.026 1301.86 768.106 1302.4 768.106V768.97Z" fill="white"/>
<path d="M1386.4 1833.55C1385.86 1833.55 1385.36 1833.63 1384.91 1833.79C1384.46 1833.95 1384.08 1834.24 1383.76 1834.65C1383.44 1835.04 1383.18 1835.6 1382.99 1836.33C1382.8 1837.04 1382.7 1837.95 1382.7 1839.07V1848.43C1382.7 1849.55 1382.58 1850.49 1382.32 1851.26C1382.06 1852.03 1381.71 1852.64 1381.26 1853.08C1380.82 1853.56 1380.27 1853.9 1379.63 1854.09C1379.02 1854.32 1378.35 1854.43 1377.62 1854.43H1375.36V1853.52H1377.62C1379.02 1853.52 1380.05 1853.07 1380.69 1852.17C1381.33 1851.31 1381.65 1850.06 1381.65 1848.43V1839.02C1381.65 1837 1381.95 1835.56 1382.56 1834.7C1383.17 1833.84 1383.94 1833.32 1384.86 1833.16V1833.07C1383.94 1832.91 1383.17 1832.4 1382.56 1831.53C1381.95 1830.67 1381.65 1829.23 1381.65 1827.21V1817.8C1381.65 1816.17 1381.33 1814.92 1380.69 1814.06C1380.05 1813.16 1379.02 1812.72 1377.62 1812.72H1375.36V1811.8H1377.62C1379.09 1811.8 1380.3 1812.25 1381.26 1813.15C1382.22 1814.01 1382.7 1815.56 1382.7 1817.8V1827.16C1382.7 1828.28 1382.8 1829.21 1382.99 1829.95C1383.18 1830.65 1383.44 1831.21 1383.76 1831.63C1384.08 1832.01 1384.46 1832.28 1384.91 1832.44C1385.36 1832.6 1385.86 1832.68 1386.4 1832.68V1833.55Z" fill="white"/>
<path d="M815.8 820.637V819.485L838.168 808.733V809.693L816.376 820.061L838.168 830.429V831.389L815.8 820.637Z" fill="white"/>
<path d="M1263.14 526.017L1261.9 535.425H1267.27V536.241H1261.8L1260.36 547.761H1259.45L1260.89 536.241H1252.63L1251.19 547.761H1250.28L1251.72 536.241H1246.39V535.425H1251.82L1253.11 526.017H1247.78V525.201H1253.21L1254.65 513.777H1255.56L1254.07 525.201H1262.33L1263.82 513.777H1264.73L1263.24 525.201H1268.62V526.017H1263.14ZM1254.02 526.017L1252.78 535.425H1260.98L1262.23 526.017H1254.02Z" fill="white"/>
<path d="M371.144 880.876L369.896 890.284H375.272V891.1H369.8L368.36 902.62H367.448L368.888 891.1H360.632L359.192 902.62H358.28L359.72 891.1H354.392V890.284H359.816L361.112 880.876H355.784V880.06H361.208L362.648 868.636H363.56L362.072 880.06H370.328L371.816 868.636H372.728L371.24 880.06H376.616V880.876H371.144ZM362.024 880.876L360.776 890.284H368.984L370.232 880.876H362.024Z" fill="white"/>
<path d="M611.144 1538.35L609.896 1547.76H615.272V1548.58H609.8L608.36 1560.1H607.448L608.888 1548.58H600.632L599.192 1560.1H598.28L599.72 1548.58H594.392V1547.76H599.816L601.112 1538.35H595.784V1537.54H601.208L602.648 1526.11H603.56L602.072 1537.54H610.328L611.816 1526.11H612.728L611.24 1537.54H616.616V1538.35H611.144ZM602.024 1538.35L600.776 1547.76H608.984L610.232 1538.35H602.024Z" fill="white"/>
<path d="M1410.91 364.728L1411.2 365.544L1403.28 367.944L1408.18 374.76L1407.5 375.24L1402.66 368.376L1397.81 375.24L1397.14 374.76L1402.03 367.944L1394.11 365.544L1394.4 364.728L1402.22 367.224V359.016H1403.09V367.224L1410.91 364.728Z" fill="white"/>
<path d="M423.912 1112.5L424.2 1113.32L416.28 1115.72L421.176 1122.53L420.504 1123.01L415.656 1116.15L410.808 1123.01L410.136 1122.53L415.032 1115.72L407.112 1113.32L407.4 1112.5L415.224 1115V1106.79H416.088V1115L423.912 1112.5Z" fill="white"/>
<path d="M637.56 198.88H636.552V187.84H625.8V186.928H636.552V175.888H637.56V186.928H648.168V187.84H637.56V198.88Z" fill="white"/>
<path d="M86.44 636.288V635.328H102.76V636.288H86.44Z" fill="white"/>
<path d="M183 745.744C183.512 745.744 183.992 745.664 184.44 745.504C184.92 745.344 185.32 745.072 185.64 744.688C185.96 744.272 186.216 743.712 186.408 743.008C186.6 742.272 186.696 741.344 186.696 740.224V730.864C186.696 728.624 187.176 727.072 188.136 726.208C189.096 725.312 190.312 724.864 191.784 724.864H194.04V725.776H191.784C190.376 725.776 189.352 726.224 188.712 727.12C188.072 727.984 187.752 729.232 187.752 730.864V740.272C187.752 742.288 187.448 743.728 186.84 744.592C186.232 745.456 185.464 745.968 184.536 746.128V746.224C185.464 746.384 186.232 746.896 186.84 747.76C187.448 748.624 187.752 750.064 187.752 752.08V761.488C187.752 763.12 188.072 764.368 188.712 765.232C189.352 766.128 190.376 766.576 191.784 766.576H194.04V767.488H191.784C191.048 767.488 190.36 767.376 189.72 767.152C189.112 766.96 188.584 766.624 188.136 766.144C187.688 765.696 187.336 765.088 187.08 764.32C186.824 763.552 186.696 762.608 186.696 761.488V752.128C186.696 751.008 186.6 750.096 186.408 749.392C186.216 748.656 185.96 748.096 185.64 747.712C185.32 747.296 184.92 747.008 184.44 746.848C183.992 746.688 183.512 746.608 183 746.608V745.744Z" fill="white"/>
<path d="M824 2449.75C824.512 2449.75 824.992 2449.67 825.44 2449.51C825.92 2449.35 826.32 2449.07 826.64 2448.69C826.96 2448.27 827.216 2447.71 827.408 2447.01C827.6 2446.27 827.696 2445.35 827.696 2444.23V2434.87C827.696 2432.63 828.176 2431.07 829.136 2430.21C830.096 2429.31 831.312 2428.87 832.784 2428.87H835.04V2429.78H832.784C831.376 2429.78 830.352 2430.23 829.712 2431.12C829.072 2431.99 828.752 2433.23 828.752 2434.87V2444.27C828.752 2446.29 828.448 2447.73 827.84 2448.59C827.232 2449.46 826.464 2449.97 825.536 2450.13V2450.23C826.464 2450.39 827.232 2450.9 827.84 2451.76C828.448 2452.63 828.752 2454.07 828.752 2456.08V2465.49C828.752 2467.12 829.072 2468.37 829.712 2469.23C830.352 2470.13 831.376 2470.58 832.784 2470.58H835.04V2471.49H832.784C832.048 2471.49 831.36 2471.38 830.72 2471.15C830.112 2470.96 829.584 2470.63 829.136 2470.15C828.688 2469.7 828.336 2469.09 828.08 2468.32C827.824 2467.55 827.696 2466.61 827.696 2465.49V2456.13C827.696 2455.01 827.6 2454.1 827.408 2453.39C827.216 2452.66 826.96 2452.1 826.64 2451.71C826.32 2451.3 825.92 2451.01 825.44 2450.85C824.992 2450.69 824.512 2450.61 824 2450.61V2449.75Z" fill="white"/>
<path d="M160.016 128.72L159.104 128.384L173.84 93.008L174.752 93.344L160.016 128.72Z" fill="white"/>
<path d="M370.8 277.824L392.592 267.456L370.8 257.088V256.128L393.168 266.88V268.032L370.8 278.784V277.824Z" fill="white"/>
<path d="M135.72 496.666C135.432 496.666 135.176 496.554 134.952 496.33C134.728 496.106 134.616 495.802 134.616 495.418C134.616 495.066 134.728 494.778 134.952 494.554C135.176 494.33 135.432 494.218 135.72 494.218C136.008 494.218 136.264 494.33 136.488 494.554C136.712 494.778 136.824 495.066 136.824 495.418C136.824 495.802 136.696 496.106 136.44 496.33C136.216 496.554 135.976 496.666 135.72 496.666ZM135.72 516.586C135.432 516.586 135.176 516.474 134.952 516.25C134.728 516.026 134.616 515.722 134.616 515.338C134.616 514.986 134.728 514.698 134.952 514.474C135.176 514.25 135.432 514.138 135.72 514.138C136.008 514.138 136.264 514.25 136.488 514.474C136.712 514.698 136.824 514.986 136.824 515.338C136.824 515.722 136.696 516.026 136.44 516.25C136.216 516.474 135.976 516.586 135.72 516.586Z" fill="white"/>
<path d="M1221.72 125.892C1221.43 125.892 1221.18 125.78 1220.95 125.556C1220.73 125.332 1220.62 125.028 1220.62 124.644C1220.62 124.292 1220.73 124.004 1220.95 123.78C1221.18 123.556 1221.43 123.444 1221.72 123.444C1222.01 123.444 1222.26 123.556 1222.49 123.78C1222.71 124.004 1222.82 124.292 1222.82 124.644C1222.82 125.028 1222.7 125.332 1222.44 125.556C1222.22 125.78 1221.98 125.892 1221.72 125.892ZM1221.72 145.812C1221.43 145.812 1221.18 145.7 1220.95 145.476C1220.73 145.252 1220.62 144.948 1220.62 144.564C1220.62 144.212 1220.73 143.924 1220.95 143.7C1221.18 143.476 1221.43 143.364 1221.72 143.364C1222.01 143.364 1222.26 143.476 1222.49 143.7C1222.71 143.924 1222.82 144.212 1222.82 144.564C1222.82 144.948 1222.7 145.252 1222.44 145.476C1222.22 145.7 1221.98 145.812 1221.72 145.812Z" fill="white"/>
<path d="M202.912 1622.51L203.2 1623.33L195.28 1625.73L200.176 1632.54L199.504 1633.02L194.656 1626.16L189.808 1633.02L189.136 1632.54L194.032 1625.73L186.112 1623.33L186.4 1622.51L194.224 1625.01V1616.8H195.088V1625.01L202.912 1622.51Z" fill="white"/>
<path d="M70.72 1383.73C70.432 1383.73 70.176 1383.62 69.952 1383.4C69.728 1383.17 69.616 1382.87 69.616 1382.49C69.616 1382.13 69.728 1381.85 69.952 1381.62C70.176 1381.4 70.432 1381.29 70.72 1381.29C71.008 1381.29 71.264 1381.4 71.488 1381.62C71.712 1381.85 71.824 1382.13 71.824 1382.49C71.824 1382.87 71.696 1383.17 71.44 1383.4C71.216 1383.62 70.976 1383.73 70.72 1383.73ZM70.72 1403.65C70.432 1403.65 70.176 1403.54 69.952 1403.32C69.728 1403.09 69.616 1402.79 69.616 1402.41C69.616 1402.05 69.728 1401.77 69.952 1401.54C70.176 1401.32 70.432 1401.21 70.72 1401.21C71.008 1401.21 71.264 1401.32 71.488 1401.54C71.712 1401.77 71.824 1402.05 71.824 1402.41C71.824 1402.79 71.696 1403.09 71.44 1403.32C71.216 1403.54 70.976 1403.65 70.72 1403.65Z" fill="white"/>
<path d="M930.016 1689.95L929.104 1689.61L943.84 1654.23L944.752 1654.57L930.016 1689.95Z" fill="white"/>
<path d="M204.016 2761.42L203.104 2761.09L217.84 2725.71L218.752 2726.05L204.016 2761.42Z" fill="white"/>
<path d="M688.44 1794.54H689.448V1783.5H700.2V1782.58H689.448V1771.54H688.44V1782.58H677.832V1783.5H688.44V1794.54Z" fill="white"/>
<path d="M600.144 3150.26L598.896 3159.66H604.272V3160.48H598.8L597.36 3172H596.448L597.888 3160.48H589.632L588.192 3172H587.28L588.72 3160.48H583.392V3159.66H588.816L590.112 3150.26H584.784V3149.44H590.208L591.648 3138.02H592.56L591.072 3149.44H599.328L600.816 3138.02H601.728L600.24 3149.44H605.616V3150.26H600.144ZM591.024 3150.26L589.776 3159.66H597.984L599.232 3150.26H591.024Z" fill="white"/>
<path d="M1023.44 3905.95H1024.45V3894.91H1035.2V3894H1024.45V3882.96H1023.44V3894H1012.83V3894.91H1023.44V3905.95Z" fill="white"/>
<path d="M81.8 3807.03V3805.88L104.168 3795.13V3796.09L82.376 3806.46L104.168 3816.82V3817.78L81.8 3807.03Z" fill="white"/>
<path d="M1073.91 2644.7L1074.2 2645.52L1066.28 2647.92L1071.18 2654.74L1070.5 2655.22L1065.66 2648.35L1060.81 2655.22L1060.14 2654.74L1065.03 2647.92L1057.11 2645.52L1057.4 2644.7L1065.22 2647.2V2638.99H1066.09V2647.2L1073.91 2644.7Z" fill="white"/>
<path d="M1286.91 3429.34L1287.2 3430.15L1279.28 3432.55L1284.18 3439.37L1283.5 3439.85L1278.66 3432.99L1273.81 3439.85L1273.14 3439.37L1278.03 3432.55L1270.11 3430.15L1270.4 3429.34L1278.22 3431.83V3423.63H1279.09V3431.83L1286.91 3429.34Z" fill="white"/>
<path d="M790.912 3811.73L791.2 3812.54L783.28 3814.94L788.176 3821.76L787.504 3822.24L782.656 3815.38L777.808 3822.24L777.136 3821.76L782.032 3814.94L774.112 3812.54L774.4 3811.73L782.224 3814.22V3806.02H783.088V3814.22L790.912 3811.73Z" fill="white"/>
<path d="M89.8 3348.68V3347.77H112.168V3348.68H89.8ZM89.8 3356.89V3355.98H112.168V3356.89H89.8Z" fill="white"/>
<path d="M1126.72 3250.37C1126.43 3250.37 1126.18 3250.26 1125.95 3250.03C1125.73 3249.81 1125.62 3249.5 1125.62 3249.12C1125.62 3248.77 1125.73 3248.48 1125.95 3248.26C1126.18 3248.03 1126.43 3247.92 1126.72 3247.92C1127.01 3247.92 1127.26 3248.03 1127.49 3248.26C1127.71 3248.48 1127.82 3248.77 1127.82 3249.12C1127.82 3249.5 1127.7 3249.81 1127.44 3250.03C1127.22 3250.26 1126.98 3250.37 1126.72 3250.37ZM1126.72 3270.29C1126.43 3270.29 1126.18 3270.18 1125.95 3269.95C1125.73 3269.73 1125.62 3269.42 1125.62 3269.04C1125.62 3268.69 1125.73 3268.4 1125.95 3268.18C1126.18 3267.95 1126.43 3267.84 1126.72 3267.84C1127.01 3267.84 1127.26 3267.95 1127.49 3268.18C1127.71 3268.4 1127.82 3268.69 1127.82 3269.04C1127.82 3269.42 1127.7 3269.73 1127.44 3269.95C1127.22 3270.18 1126.98 3270.29 1126.72 3270.29Z" fill="white"/>
<path d="M1332.02 3826L1331.1 3825.67L1345.84 3790.29L1346.75 3790.63L1332.02 3826Z" fill="white"/>
<path d="M1198.8 3625.82L1220.59 3615.46L1198.8 3605.09V3604.13L1221.17 3614.88V3616.03L1198.8 3626.78V3625.82Z" fill="white"/>
<path d="M399.144 3935.26L397.896 3944.66H403.272V3945.48H397.8L396.36 3957H395.448L396.888 3945.48H388.632L387.192 3957H386.28L387.72 3945.48H382.392V3944.66H387.816L389.112 3935.26H383.784V3934.44H389.208L390.648 3923.02H391.56L390.072 3934.44H398.328L399.816 3923.02H400.728L399.24 3934.44H404.616V3935.26H399.144ZM390.024 3935.26L388.776 3944.66H396.984L398.232 3935.26H390.024Z" fill="white"/>
<path d="M209 3663.78C209.512 3663.78 209.992 3663.7 210.44 3663.54C210.92 3663.38 211.32 3663.11 211.64 3662.73C211.96 3662.31 212.216 3661.75 212.408 3661.05C212.6 3660.31 212.696 3659.38 212.696 3658.26V3648.9C212.696 3646.66 213.176 3645.11 214.136 3644.25C215.096 3643.35 216.312 3642.9 217.784 3642.9H220.04V3643.81H217.784C216.376 3643.81 215.352 3644.26 214.712 3645.16C214.072 3646.02 213.752 3647.27 213.752 3648.9V3658.31C213.752 3660.33 213.448 3661.77 212.84 3662.63C212.232 3663.49 211.464 3664.01 210.536 3664.17V3664.26C211.464 3664.42 212.232 3664.93 212.84 3665.8C213.448 3666.66 213.752 3668.1 213.752 3670.12V3679.53C213.752 3681.16 214.072 3682.41 214.712 3683.27C215.352 3684.17 216.376 3684.61 217.784 3684.61H220.04V3685.53H217.784C217.048 3685.53 216.36 3685.41 215.72 3685.19C215.112 3685 214.584 3684.66 214.136 3684.18C213.688 3683.73 213.336 3683.13 213.08 3682.36C212.824 3681.59 212.696 3680.65 212.696 3679.53V3670.17C212.696 3669.05 212.6 3668.13 212.408 3667.43C212.216 3666.69 211.96 3666.13 211.64 3665.75C211.32 3665.33 210.92 3665.05 210.44 3664.89C209.992 3664.73 209.512 3664.65 209 3664.65V3663.78Z" fill="white"/>
<path d="M648.44 2558.29V2557.33H664.76V2558.29H648.44Z" fill="white"/>
<path d="M411.72 1593.37C411.432 1593.37 411.176 1593.26 410.952 1593.03C410.728 1592.81 410.616 1592.5 410.616 1592.12C410.616 1591.77 410.728 1591.48 410.952 1591.26C411.176 1591.03 411.432 1590.92 411.72 1590.92C412.008 1590.92 412.264 1591.03 412.488 1591.26C412.712 1591.48 412.824 1591.77 412.824 1592.12C412.824 1592.5 412.696 1592.81 412.44 1593.03C412.216 1593.26 411.976 1593.37 411.72 1593.37ZM411.72 1613.29C411.432 1613.29 411.176 1613.18 410.952 1612.95C410.728 1612.73 410.616 1612.42 410.616 1612.04C410.616 1611.69 410.728 1611.4 410.952 1611.18C411.176 1610.95 411.432 1610.84 411.72 1610.84C412.008 1610.84 412.264 1610.95 412.488 1611.18C412.712 1611.4 412.824 1611.69 412.824 1612.04C412.824 1612.42 412.696 1612.73 412.44 1612.95C412.216 1613.18 411.976 1613.29 411.72 1613.29Z" fill="white"/>
<path d="M810.912 3058.73L811.2 3059.54L803.28 3061.94L808.176 3068.76L807.504 3069.24L802.656 3062.38L797.808 3069.24L797.136 3068.76L802.032 3061.94L794.112 3059.54L794.4 3058.73L802.224 3061.22V3053.02H803.088V3061.22L810.912 3058.73Z" fill="white"/>
<path d="M1322.8 2098.79V2097.88H1345.17V2098.79H1322.8ZM1322.8 2107V2106.08H1345.17V2107H1322.8Z" fill="white"/>
<path d="M411.8 2874.82L433.592 2864.46L411.8 2854.09V2853.13L434.168 2863.88V2865.03L411.8 2875.78V2874.82Z" fill="white"/>
<path d="M780.016 3286.72L779.104 3286.38L793.84 3251.01L794.752 3251.34L780.016 3286.72Z" fill="white"/>
<path d="M1270.02 2848.72L1269.1 2848.38L1283.84 2813.01L1284.75 2813.34L1270.02 2848.72Z" fill="white"/>
</g>
<defs>
<clipPath id="clip0">
<rect width="1440" height="4142" fill="white"/>
</clipPath>
</defs>
</svg>
